<?xml version="1.0" encoding="utf-8"?>
<!-- Generator: Adobe Illustrator 19.0.0, SVG Export Plug-In . SVG Version: 6.00 Build 0)  -->
<svg version="1.1" id="Capa_1" xmlns="http://www.w3.org/2000/svg" xmlns:xlink="http://www.w3.org/1999/xlink" x="0px" y="0px"
	 viewBox="7 149 400 496" style="enable-background:new 7 149 400 496;" width="56px" xml:space="preserve">
<style type="text/css">
	.st0{fill:#192D6B;}
	.st1{fill:#DEDFE0;}
</style>
<circle class="st0" cx="207" cy="445" r="136"/>
<g>
	<path class="st1" d="M103.8,256.6l14.3-7.2l-29.3-58.5c-1.2-2.5-1.9-5.2-1.9-8c0-9.9,8-17.9,18.1-17.9c6,0,11.6,3,14.9,8l3.9,5.8
		c4.3,6.4,11.4,10.2,19.1,10.2s14.8-3.8,19.1-10.2l7.1-10.7c2.6-3.9,9-3.9,11.6,0l7.1,10.7c4.3,6.4,11.4,10.2,19.1,10.2
		c7.7,0,14.8-3.8,19.1-10.2l7.1-10.7c2.6-3.9,9-3.9,11.6,0l7.1,10.7c4.3,6.4,11.4,10.2,19.1,10.2s14.8-3.8,19.1-10.2l3.9-5.8
		c3.3-5,8.9-8,15.1-8c9.9,0,17.9,8,17.9,17.9c0,2.8-0.7,5.5-1.9,8l-29.3,58.5l14.3,7.2l29.3-58.5c2.3-4.7,3.6-9.9,3.6-15.2
		c0-18.7-15.2-33.9-34.1-33.9c-11.4,0-21.9,5.6-28.2,15.1l-3.9,5.8c-2.6,3.9-9,3.9-11.6,0l-7.1-10.7c-4.3-6.4-11.4-10.2-19.1-10.2
		s-14.8,3.8-19.1,10.2l-7.1,10.7c-2.6,3.9-9,3.9-11.6,0l-7.1-10.7c-4.3-6.4-11.4-10.2-19.1-10.2s-14.8,3.8-19.1,10.2l-7.1,10.7
		c-2.6,3.9-9,3.9-11.6,0l-3.9-5.8c-6.3-9.4-16.8-15.1-28.4-15.1C86.2,149,71,164.2,71,182.9c0,5.2,1.2,10.5,3.6,15.2L103.8,256.6z"
		/>
	<path class="st1" d="M335.5,291.9l-10.3,12.2C367,339.2,391,390.6,391,445c0,101.5-82.5,184-184,184S23,546.5,23,445
		c0-54.4,24-105.8,65.8-140.9l-10.3-12.2C33,330,7,385.8,7,445c0,110.3,89.7,200,200,200s200-89.7,200-200
		C407,385.8,381,330,335.5,291.9z"/>
</g>
<path class="st0" d="M303,293H111c-13.2,0-24-10.8-24-24s10.8-24,24-24h192c13.2,0,24,10.8,24,24S316.2,293,303,293z M111,261
	c-4.4,0-8,3.6-8,8s3.6,8,8,8h192c4.4,0,8-3.6,8-8s-3.6-8-8-8H111z"/>
</svg>
