<?xml version="1.0" encoding="utf-8"?>
<!-- Generator: Adobe Illustrator 19.0.0, SVG Export Plug-In . SVG Version: 6.00 Build 0)  -->
<svg version="1.1" id="Слой_1" xmlns="http://www.w3.org/2000/svg" xmlns:xlink="http://www.w3.org/1999/xlink" x="0px" y="0px"
	 viewBox="0 0 496 339.4" style="enable-background:new 0 0 496 339.4;" width="70px" xml:space="preserve">
<style type="text/css">
	.st0{fill:#DFDFDF;}
	.st1{fill:#FFFFFF;}
	.st2{fill:#192D6B;}
	.st3{display:none;}
</style>
<g>
	<path class="st0" d="M467.7,0H28.3C12.8,0,0,12.8,0,28.3V311c0,15.6,12.8,28.3,28.3,28.3h439.3c15.6,0,28.3-12.8,28.3-28.3V28.3
		C496,12.8,483.2,0,467.7,0z"/>
	<path class="st1" d="M459.1,18.6H36.9c-10.9,0-19.8,8.9-19.8,19.8v263.6c0,10.9,8.9,19.8,19.8,19.8h422.2
		c10.9,0,19.8-8.9,19.8-19.8V38.5C478.9,27.6,470,18.6,459.1,18.6z"/>
	<rect y="59.8" class="st2" width="496" height="104.6"/>
	<path class="st3" d="M235.2,3.3h-192C22,3.3,4.8,20.5,4.8,41.7v256c0,21.2,17.2,38.4,38.4,38.4h409.6c21.2,0,38.4-17.2,38.4-38.4
		v-192 M465.6,297.7c0,7.1-5.8,12.8-12.8,12.8H43.2c-7,0-12.8-5.7-12.8-12.8v-256c0-7.1,5.8-12.8-8.7-12.8h409.6
		c28.5,0,34.3,5.7,34.3,12.8V297.7z M491.2,105.7v-64c0-21.2-17.2-38.4-38.4-38.4l-217.6,0 M414.4,3.3H260.8"/>
	<rect x="376" y="208.1" class="st0" width="51.2" height="25.6"/>
	<rect x="299.2" y="208.1" class="st0" width="51.2" height="25.6"/>
	<rect x="222.4" y="208.1" class="st0" width="51.2" height="25.6"/>
	<rect x="222.4" y="259.3" class="st0" width="204.8" height="25.6"/>
</g>
<g>
	<polygon class="st2" points="129.3,266.2 127.6,273.2 131.9,277.3 148.4,298.8 174.1,298.8 154,269 171.8,241.7 148.4,241.7 
		132.4,262.5 	"/>
	<path class="st2" d="M131.9,257.7c-1.4-17.5-14.2-30.3-31.4-30.3c-3.1,0-6.2,0.4-9.3,1.1c-3.1,0.7-6.3,1.9-9.5,3.4l0-15.6h43.8
		v-21.8H53l0.1,60.1l26.6,0c3.8-8.8,13.7-9,18.1-5.8c4.2,3.1,5.3,9,5.6,14.1c0.7,14.2-19.1,22.2-26.9,3.9l-27.3,0
		c3,10.1,4.8,17.5,13.6,24.1c3.4,2.6,7.6,4.5,12.4,5.8c4.9,1.3,10.7,1.9,17.5,1.9c9.5,0,15.6-1.6,21.7-4.9
		c6.1-3.3,10.7-9.5,12.8-13.5C130,275.6,132.3,266.3,131.9,257.7L131.9,257.7z"/>
</g>
</svg>
