<svg xmlns="http://www.w3.org/2000/svg" xmlns:xlink="http://www.w3.org/1999/xlink" preserveAspectRatio="xMidYMid" width="18.72" height="29.94" viewBox="0 0 18.72 29.94">
  <defs>
    <style>
      .cls-1 {
        fill: #fff;
        fill-rule: evenodd;
      }
    </style>
  </defs>
  <path d="M16.343,19.509 L16.345,19.510 C14.682,20.528 12.393,20.931 10.881,21.083 C10.506,20.721 16.656,26.627 16.783,26.748 C18.477,28.419 15.721,31.033 14.009,29.419 C12.850,28.285 11.150,26.648 9.377,24.940 L4.744,29.412 C3.033,31.020 0.276,28.384 1.989,26.741 C10.065,18.966 7.260,21.665 7.872,21.077 C6.379,20.925 4.055,20.544 2.373,19.504 C0.393,18.276 -0.474,17.558 0.290,16.055 C0.740,15.201 1.971,14.482 3.603,15.722 C3.603,15.722 5.806,17.412 9.363,17.412 C12.919,17.412 15.123,15.722 15.123,15.722 C16.756,14.488 17.982,15.201 18.437,16.055 C19.190,17.558 18.322,18.275 16.343,19.509 ZM9.361,15.133 C5.025,15.133 1.485,11.742 1.485,7.568 C1.485,3.377 5.025,-0.013 9.361,-0.013 C13.695,-0.013 17.234,3.377 17.234,7.568 C17.234,11.742 13.695,15.133 9.361,15.133 ZM9.361,3.827 C7.229,3.827 5.492,5.499 5.493,7.568 C5.493,9.619 7.231,11.292 9.361,11.292 C11.490,11.292 13.228,9.619 13.228,7.568 C13.228,5.500 11.490,3.827 9.361,3.827 Z" class="cls-1"/>
</svg>
