<svg xmlns="http://www.w3.org/2000/svg" xmlns:xlink="http://www.w3.org/1999/xlink" preserveAspectRatio="xMidYMid" width="29.97" height="24.35" viewBox="0 0 29.97 24.35">
  <defs>
    <style>
      .cls-1 {
        fill: #fff;
        fill-rule: evenodd;
      }
    </style>
  </defs>
  <path d="M26.891,6.084 C28.110,5.219 29.135,4.140 29.970,2.897 L29.970,2.896 C28.855,3.383 27.669,3.708 26.431,3.865 C27.704,3.105 28.677,1.911 29.134,0.472 C27.946,1.180 26.635,1.679 25.238,1.958 C24.111,0.758 22.504,0.015 20.751,0.015 C17.350,0.015 14.612,2.774 14.612,6.157 C14.612,6.643 14.654,7.112 14.755,7.557 C9.648,7.307 5.129,4.861 2.093,1.133 C1.563,2.053 1.251,3.105 1.251,4.237 C1.251,6.364 2.346,8.248 3.981,9.341 C2.993,9.322 2.025,9.035 1.205,8.584 L1.205,8.651 C1.205,11.636 3.334,14.115 6.127,14.686 C5.626,14.823 5.081,14.888 4.516,14.888 C4.123,14.888 3.726,14.866 3.354,14.783 C4.149,17.215 6.409,19.003 9.093,19.062 C7.003,20.696 4.349,21.680 1.476,21.680 C0.973,21.680 0.490,21.658 0.006,21.597 C2.728,23.350 5.952,24.353 9.430,24.353 C20.270,24.353 27.336,15.311 26.891,6.084 L26.891,6.084 Z" class="cls-1"/>
</svg>
