<svg xmlns="http://www.w3.org/2000/svg" xmlns:xlink="http://www.w3.org/1999/xlink" preserveAspectRatio="xMidYMid" width="30" height="29.97" viewBox="0 0 30 29.97">
  <defs>
    <style>
      .cls-1 {
        fill: #fff;
        fill-rule: evenodd;
      }
    </style>
  </defs>
  <path d="M30.000,14.862 C29.995,26.165 17.804,33.247 7.926,27.913 L0.010,29.977 L2.129,22.280 C0.822,20.026 0.136,17.473 0.136,14.855 C0.142,1.758 16.043,-4.976 25.651,4.308 L25.632,4.357 C28.450,7.162 30.000,10.895 30.000,14.862 ZM23.868,6.090 C21.524,3.749 18.411,2.456 15.095,2.456 C5.333,2.456 -0.588,13.172 4.566,21.372 L4.864,21.840 L3.608,26.393 L8.294,25.175 L8.744,25.443 C17.025,30.309 27.496,24.355 27.503,14.821 C27.503,11.524 26.211,8.413 23.868,6.090 ZM19.854,21.862 C19.211,21.954 18.397,21.994 17.505,21.711 C14.201,20.577 12.394,19.760 9.003,15.323 C7.277,12.893 6.769,10.607 8.785,8.391 C9.249,7.909 9.775,7.899 10.495,7.962 C10.726,7.962 11.035,7.869 11.335,8.598 C11.647,9.330 12.393,11.166 12.487,11.354 C12.579,11.540 12.643,11.746 12.518,12.008 C11.821,13.327 11.055,13.417 11.421,14.049 C11.641,14.424 12.386,15.642 13.495,16.635 C14.920,17.908 16.123,18.302 16.498,18.489 C16.869,18.658 17.086,18.640 17.305,18.396 C17.521,18.148 18.238,17.313 18.485,16.944 C18.840,16.412 19.138,16.501 21.886,17.870 C22.261,18.038 22.506,18.132 22.598,18.301 C22.692,18.470 22.692,19.200 22.374,20.080 C22.062,20.961 20.572,21.748 19.854,21.862 Z" class="cls-1"/>
</svg>
