<svg xmlns="http://www.w3.org/2000/svg" xmlns:xlink="http://www.w3.org/1999/xlink" preserveAspectRatio="xMidYMid" width="29.94" height="21.18" viewBox="0 0 29.94 21.18">
  <defs>
    <style>
      .cls-1 {
        fill: #fff;
        fill-rule: evenodd;
      }
    </style>
  </defs>
  <path d="M29.277,3.017 L29.314,3.262 C28.952,1.978 27.974,0.988 26.732,0.627 L26.706,0.621 C24.369,-0.013 14.967,-0.013 14.967,-0.013 C14.967,-0.013 5.589,-0.025 3.229,0.621 C1.963,0.988 0.984,1.978 0.628,3.235 L0.621,3.262 C-0.251,7.815 -0.258,13.288 0.660,18.164 L0.621,17.917 C0.984,19.200 1.961,20.191 3.204,20.551 L3.230,20.557 C5.564,21.192 14.969,21.192 14.969,21.192 C14.969,21.192 24.345,21.192 26.707,20.557 C27.974,20.191 28.953,19.200 29.309,17.943 L29.316,17.917 C29.713,15.799 29.940,13.361 29.940,10.872 C29.940,10.781 29.940,10.689 29.939,10.596 C29.940,10.511 29.940,10.410 29.940,10.309 C29.940,7.818 29.713,5.381 29.277,3.017 L29.277,3.017 ZM11.968,15.144 L11.968,6.047 L19.792,10.602 L11.968,15.144 Z" class="cls-1"/>
</svg>
