<svg xmlns="http://www.w3.org/2000/svg" xmlns:xlink="http://www.w3.org/1999/xlink" preserveAspectRatio="xMidYMid" width="42" height="26" viewBox="0 0 42 26">
  <defs>
    <style>
      .cls-1 {
        fill: #fff;
        fill-rule: evenodd;
      }
    </style>
  </defs>
  <path d="M40.923,25.995 L1.068,25.995 C0.471,25.995 -0.013,25.533 -0.013,24.963 L-0.013,1.028 C-0.013,0.458 0.471,-0.004 1.068,-0.004 L40.923,-0.004 C41.519,-0.004 42.003,0.458 42.003,1.028 L42.003,24.963 C42.003,25.533 41.519,25.995 40.923,25.995 ZM37.624,18.874 C37.659,18.929 37.702,18.970 37.756,19.000 C37.811,19.030 37.868,19.044 37.931,19.044 C37.989,19.044 38.047,19.030 38.102,19.000 C38.159,18.970 38.198,18.929 38.234,18.874 C38.264,18.826 38.276,18.766 38.276,18.712 C38.276,18.656 38.260,18.601 38.230,18.545 C38.198,18.489 38.155,18.449 38.102,18.422 C38.043,18.393 37.989,18.378 37.931,18.378 C37.868,18.378 37.815,18.393 37.756,18.422 C37.702,18.449 37.656,18.489 37.628,18.545 C37.598,18.601 37.582,18.652 37.582,18.712 C37.582,18.766 37.598,18.822 37.624,18.874 ZM39.012,12.992 C39.012,7.306 34.181,2.697 28.225,2.697 C25.443,2.700 22.905,3.706 20.995,5.360 C19.081,3.706 16.546,2.700 13.765,2.700 C13.741,2.700 13.719,2.700 13.695,2.700 C7.775,2.737 2.982,7.336 2.982,12.996 C2.982,18.682 7.814,23.291 13.765,23.291 C16.546,23.291 19.081,22.284 20.995,20.631 C22.905,22.288 25.447,23.295 28.233,23.295 C34.187,23.295 39.012,18.682 39.012,12.996 L39.012,12.992 ZM30.604,13.714 C30.604,12.286 31.596,11.316 33.118,11.316 C34.443,11.316 35.145,12.111 35.145,13.136 C35.145,13.384 35.145,13.402 35.114,13.635 C34.917,14.978 33.939,15.574 32.634,15.574 C31.185,15.574 30.604,14.738 30.604,13.714 ZM33.742,13.602 C33.773,13.454 33.789,13.295 33.789,13.121 C33.789,12.700 33.607,12.300 33.087,12.300 C32.433,12.300 32.037,13.036 32.037,13.683 C32.037,14.231 32.313,14.597 32.770,14.590 C33.045,14.590 33.638,14.231 33.742,13.602 ZM35.254,14.834 C35.435,14.834 35.587,14.975 35.587,15.149 C35.587,15.323 35.435,15.463 35.254,15.463 C35.067,15.463 34.917,15.323 34.917,15.149 C34.917,14.975 35.067,14.834 35.254,14.834 ZM35.254,15.389 C35.389,15.389 35.498,15.282 35.498,15.149 C35.498,15.015 35.389,14.908 35.254,14.908 C35.114,14.908 34.994,15.015 34.994,15.149 C34.994,15.282 35.114,15.389 35.254,15.389 ZM35.343,15.022 C35.358,15.038 35.374,15.067 35.374,15.093 C35.374,15.123 35.358,15.152 35.327,15.167 L35.374,15.286 L35.296,15.286 L35.254,15.178 L35.207,15.178 L35.207,15.286 L35.145,15.286 L35.145,15.008 L35.269,15.008 C35.281,15.008 35.311,15.008 35.343,15.022 ZM35.207,15.056 L35.207,15.131 L35.254,15.131 C35.254,15.131 35.269,15.131 35.281,15.127 C35.296,15.119 35.300,15.104 35.300,15.093 C35.300,15.082 35.300,15.071 35.285,15.063 C35.285,15.056 35.254,15.056 35.238,15.056 L35.207,15.056 ZM30.530,12.573 C30.468,12.567 30.422,12.567 30.376,12.567 C29.767,12.567 29.569,13.000 29.112,15.463 L27.833,15.463 L28.608,11.430 L29.767,11.430 L29.647,12.041 C30.042,11.568 30.344,11.386 30.758,11.386 C30.805,11.386 30.852,11.390 30.894,11.397 C30.894,11.397 30.941,11.409 31.004,11.420 C31.018,11.427 31.034,11.427 31.138,11.463 L30.681,12.604 L30.530,12.573 ZM27.818,12.410 L27.160,12.410 L26.827,14.094 C26.811,14.168 26.811,14.224 26.811,14.261 C26.811,14.471 26.951,14.560 27.252,14.560 C27.392,14.560 27.496,14.545 27.589,14.520 L27.419,15.415 C27.071,15.507 26.795,15.548 26.504,15.548 C25.850,15.548 25.501,15.234 25.501,14.661 C25.501,14.549 25.516,14.427 25.532,14.298 L25.606,13.902 L25.668,13.584 L26.264,10.502 L27.528,10.502 L27.345,11.430 L28.000,11.430 L27.818,12.410 ZM24.327,12.293 C23.916,12.293 23.703,12.404 23.703,12.622 C23.703,12.810 23.766,12.855 24.296,13.058 C24.951,13.307 25.211,13.628 25.211,14.184 C25.211,15.100 24.587,15.526 23.215,15.526 C23.044,15.526 22.820,15.515 22.514,15.492 C22.363,15.486 22.239,15.470 22.165,15.459 L21.936,15.418 L21.874,15.408 L22.057,14.475 C22.467,14.586 22.820,14.634 23.215,14.634 C23.719,14.634 23.947,14.523 23.947,14.272 C23.947,14.087 23.870,14.028 23.351,13.828 C22.669,13.561 22.363,13.210 22.363,12.703 C22.363,11.960 22.866,11.338 24.296,11.338 C24.602,11.338 25.106,11.376 25.439,11.420 L25.257,12.352 C24.920,12.315 24.587,12.293 24.327,12.293 ZM18.605,8.608 L23.522,8.608 C23.695,8.963 23.851,9.333 23.986,9.710 L18.023,9.710 C18.081,9.603 18.290,9.174 18.605,8.608 ZM20.011,6.425 L22.060,6.425 C22.366,6.773 22.646,7.139 22.898,7.524 L19.243,7.524 C19.480,7.158 19.735,6.780 20.011,6.425 ZM20.243,11.331 C21.293,11.331 21.963,11.900 21.963,12.796 C21.963,13.091 21.921,13.384 21.813,13.791 L19.282,13.791 C19.267,13.854 19.267,13.883 19.267,13.920 C19.267,14.386 19.650,14.623 20.379,14.623 C20.836,14.623 21.251,14.545 21.704,14.368 L21.495,15.378 C21.065,15.488 20.638,15.540 20.197,15.540 C18.767,15.540 18.019,14.923 18.019,13.732 C18.019,12.348 18.965,11.331 20.243,11.331 ZM20.825,12.981 C20.825,12.892 20.825,12.826 20.825,12.773 C20.825,12.445 20.607,12.252 20.227,12.252 C19.817,12.252 19.526,12.511 19.406,12.977 L20.825,12.981 ZM17.422,14.753 L17.380,15.012 L17.349,15.215 L17.333,15.352 L17.318,15.463 L16.252,15.463 L16.284,15.045 C15.961,15.378 15.520,15.533 14.943,15.533 C14.257,15.533 13.784,15.082 13.784,14.430 C13.784,13.450 14.605,12.878 16.024,12.878 C16.160,12.878 16.341,12.888 16.540,12.907 C16.570,12.773 16.585,12.718 16.585,12.644 C16.585,12.377 16.357,12.278 15.764,12.278 C15.396,12.278 14.985,12.323 14.710,12.389 L14.528,12.433 L14.424,12.462 L14.590,11.552 C15.229,11.397 15.640,11.342 16.113,11.342 C17.209,11.342 17.790,11.753 17.790,12.522 C17.790,12.722 17.775,12.874 17.697,13.321 L17.422,14.753 ZM16.101,13.650 C15.384,13.650 15.016,13.858 15.016,14.265 C15.016,14.516 15.187,14.679 15.473,14.679 C15.993,14.679 16.357,14.265 16.388,13.669 C16.252,13.654 16.190,13.650 16.101,13.650 ZM11.893,15.463 L12.656,11.649 L10.901,15.463 L9.743,15.463 L9.530,11.675 L8.770,15.463 L7.612,15.463 L8.604,10.506 L10.599,10.506 L10.688,13.576 L12.107,10.506 L14.180,10.506 L13.172,15.463 L11.893,15.463 ZM22.913,18.445 L19.085,18.445 C18.856,18.090 18.635,17.727 18.449,17.346 L23.540,17.346 C23.355,17.724 23.146,18.093 22.913,18.445 ZM21.022,20.605 L21.018,20.605 C21.010,20.617 20.999,20.620 20.991,20.631 C20.591,20.287 20.231,19.903 19.890,19.503 L22.115,19.503 C21.782,19.899 21.414,20.264 21.022,20.605 ZM38.016,18.570 C38.031,18.585 38.047,18.611 38.047,18.641 C38.047,18.671 38.031,18.700 38.004,18.712 L38.047,18.834 L37.974,18.834 L37.927,18.725 L37.880,18.725 L37.880,18.834 L37.819,18.834 L37.819,18.556 L37.943,18.556 C37.958,18.556 37.989,18.556 38.016,18.570 ZM37.880,18.604 L37.880,18.678 L37.927,18.678 C37.927,18.678 37.943,18.678 37.958,18.671 C37.974,18.663 37.974,18.652 37.974,18.641 C37.974,18.630 37.974,18.619 37.958,18.611 C37.958,18.604 37.927,18.604 37.911,18.604 L37.880,18.604 Z" class="cls-1"/>
</svg>
