<svg xmlns="http://www.w3.org/2000/svg" xmlns:xlink="http://www.w3.org/1999/xlink" preserveAspectRatio="xMidYMid" width="42" height="26" viewBox="0 0 42 26">
  <defs>
    <style>
      .cls-1 {
        fill: #fff;
        fill-rule: evenodd;
      }
    </style>
  </defs>
  <path d="M40.923,25.995 L1.068,25.995 C0.471,25.995 -0.013,25.533 -0.013,24.963 L-0.013,1.028 C-0.013,0.458 0.471,-0.004 1.068,-0.004 L40.923,-0.004 C41.519,-0.004 42.003,0.458 42.003,1.028 L42.003,24.963 C42.003,25.533 41.519,25.995 40.923,25.995 ZM37.624,18.874 C37.659,18.929 37.702,18.970 37.756,19.000 C37.811,19.030 37.868,19.044 37.931,19.044 C37.988,19.044 38.047,19.030 38.102,19.000 C38.159,18.970 38.198,18.929 38.234,18.874 C38.264,18.826 38.276,18.766 38.276,18.712 C38.276,18.656 38.260,18.601 38.229,18.545 C38.198,18.489 38.155,18.449 38.102,18.422 C38.043,18.393 37.988,18.378 37.931,18.378 C37.868,18.378 37.815,18.393 37.756,18.422 C37.702,18.449 37.656,18.489 37.628,18.545 C37.598,18.601 37.582,18.652 37.582,18.712 C37.582,18.766 37.598,18.822 37.624,18.874 ZM39.012,12.992 C39.012,7.306 34.181,2.697 28.225,2.697 C25.443,2.700 22.905,3.706 20.995,5.360 C19.081,3.706 16.546,2.700 13.765,2.700 C13.741,2.700 13.719,2.700 13.695,2.700 C7.775,2.737 2.982,7.336 2.982,12.996 C2.982,18.682 7.814,23.291 13.765,23.291 C16.546,23.291 19.081,22.284 20.995,20.631 C22.905,22.288 25.447,23.295 28.233,23.295 C34.188,23.295 39.012,18.682 39.012,12.996 L39.012,12.992 ZM33.370,13.902 C33.370,12.511 34.250,11.301 35.300,11.301 C35.978,11.301 36.408,11.871 36.408,11.871 L36.656,10.402 L37.807,10.402 L36.931,15.614 L35.815,15.614 L35.866,15.222 C35.866,15.222 35.482,15.682 34.797,15.682 C33.839,15.682 33.370,14.801 33.370,13.902 ZM35.203,14.616 C35.823,14.616 36.122,13.842 36.122,13.262 C36.122,12.625 35.912,12.356 35.498,12.356 C34.994,12.356 34.595,12.914 34.595,13.765 C34.595,14.287 34.789,14.616 35.203,14.616 ZM37.610,15.015 C37.667,14.986 37.726,14.971 37.780,14.971 C37.842,14.971 37.896,14.986 37.954,15.015 C38.008,15.041 38.051,15.082 38.082,15.137 C38.113,15.189 38.128,15.245 38.128,15.304 C38.128,15.360 38.116,15.415 38.082,15.467 C38.051,15.522 38.008,15.563 37.954,15.593 C37.900,15.622 37.842,15.637 37.780,15.637 C37.722,15.637 37.663,15.622 37.610,15.593 C37.555,15.563 37.508,15.522 37.482,15.467 C37.451,15.415 37.435,15.360 37.435,15.304 C37.435,15.245 37.451,15.189 37.482,15.137 C37.512,15.082 37.555,15.041 37.610,15.015 ZM37.532,15.441 C37.559,15.486 37.594,15.519 37.640,15.544 C37.683,15.570 37.734,15.581 37.783,15.581 C37.834,15.581 37.880,15.570 37.927,15.544 C37.974,15.519 38.008,15.486 38.035,15.441 C38.063,15.397 38.074,15.352 38.074,15.304 C38.074,15.256 38.059,15.208 38.031,15.164 C38.008,15.119 37.974,15.086 37.923,15.060 C37.880,15.038 37.830,15.026 37.783,15.026 C37.734,15.026 37.687,15.038 37.640,15.060 C37.594,15.086 37.559,15.119 37.532,15.164 C37.504,15.208 37.493,15.256 37.493,15.304 C37.493,15.352 37.504,15.397 37.532,15.441 ZM37.858,15.137 C37.872,15.145 37.888,15.160 37.900,15.174 C37.915,15.189 37.919,15.208 37.919,15.226 C37.919,15.252 37.907,15.275 37.888,15.292 C37.868,15.315 37.846,15.327 37.811,15.327 C37.826,15.330 37.834,15.337 37.846,15.344 C37.858,15.360 37.876,15.381 37.900,15.415 L37.947,15.486 L37.868,15.486 L37.838,15.430 C37.811,15.385 37.791,15.360 37.776,15.344 C37.764,15.337 37.749,15.333 37.726,15.333 L37.691,15.333 L37.691,15.486 L37.628,15.486 L37.628,15.127 L37.760,15.127 C37.803,15.127 37.838,15.131 37.858,15.137 ZM37.691,15.286 L37.764,15.286 C37.799,15.286 37.823,15.282 37.838,15.271 C37.850,15.259 37.858,15.245 37.858,15.230 C37.858,15.219 37.854,15.212 37.846,15.201 C37.842,15.193 37.830,15.185 37.823,15.182 C37.811,15.178 37.791,15.178 37.760,15.178 L37.691,15.178 L37.691,15.286 ZM32.297,15.626 L31.116,15.626 L31.832,11.379 L32.902,11.379 L32.801,11.993 C32.801,11.993 33.181,11.324 33.696,11.324 C33.847,11.324 33.917,11.338 33.917,11.338 C33.766,11.634 33.630,11.904 33.490,12.607 C32.693,12.337 32.630,13.809 32.297,15.626 ZM29.910,15.614 L29.945,15.193 C29.930,15.197 29.577,15.696 28.768,15.696 C28.345,15.696 27.659,15.478 27.659,14.516 C27.659,13.295 28.701,12.892 29.697,12.892 C29.852,12.892 30.189,12.918 30.189,12.918 C30.189,12.918 30.228,12.844 30.228,12.641 C30.228,12.311 29.914,12.263 29.488,12.263 C28.736,12.263 28.236,12.459 28.236,12.459 L28.403,11.512 C28.403,11.512 29.008,11.271 29.794,11.271 C30.201,11.271 31.372,11.312 31.372,12.596 L30.918,15.614 L29.910,15.614 ZM30.042,13.728 C30.008,13.724 29.988,13.706 29.790,13.706 C28.949,13.706 28.779,14.065 28.779,14.364 C28.779,14.520 28.872,14.778 29.228,14.778 C29.922,14.778 30.065,13.912 30.042,13.728 ZM26.741,11.397 C25.963,11.397 25.260,12.107 25.260,13.402 C25.260,14.042 25.587,14.634 26.404,14.634 C26.788,14.634 27.353,14.364 27.353,14.364 L27.148,15.563 C27.148,15.563 26.528,15.711 26.140,15.711 C24.772,15.711 24.075,14.808 24.075,13.443 C24.075,11.379 25.366,10.280 26.691,10.280 C27.287,10.280 27.985,10.550 27.985,10.550 L27.795,11.712 C27.795,11.712 27.325,11.397 26.741,11.397 ZM22.657,15.626 L21.479,15.626 L22.196,11.379 L23.262,11.379 L23.160,11.993 C23.160,11.993 23.540,11.324 24.056,11.324 C24.207,11.324 24.276,11.338 24.276,11.338 C24.126,11.634 23.990,11.908 23.851,12.607 C23.052,12.340 22.990,13.813 22.657,15.626 ZM18.605,8.608 L23.522,8.608 C23.695,8.963 23.851,9.333 23.986,9.710 L18.023,9.710 C18.081,9.603 18.290,9.174 18.605,8.608 ZM20.011,6.425 L22.060,6.425 C22.366,6.773 22.646,7.139 22.898,7.524 L19.243,7.524 C19.479,7.158 19.735,6.780 20.011,6.425 ZM17.857,12.408 L17.252,12.408 L16.926,14.308 C16.904,14.457 16.946,14.664 17.345,14.664 C17.449,14.664 17.562,14.631 17.644,14.631 L17.500,15.563 C17.384,15.593 17.058,15.703 16.640,15.707 C16.101,15.711 15.721,15.422 15.721,14.775 C15.721,14.343 16.376,10.761 16.400,10.735 L17.550,10.735 L17.430,11.376 L18.004,11.376 L17.857,12.408 ZM14.834,12.286 C14.428,12.286 14.203,12.371 14.203,12.641 C14.203,13.188 15.570,12.922 15.570,14.283 C15.570,15.741 14.094,15.674 13.835,15.674 C12.869,15.674 12.575,15.548 12.548,15.540 L12.699,14.582 C12.699,14.575 13.184,14.749 13.719,14.749 C14.028,14.749 14.431,14.720 14.431,14.368 C14.431,13.839 12.993,13.965 12.993,12.711 C12.993,11.604 13.853,11.279 14.707,11.279 C15.361,11.279 15.764,11.364 15.764,11.364 L15.617,12.333 C15.617,12.333 14.997,12.286 14.834,12.286 ZM11.300,15.614 L11.335,15.193 C11.320,15.197 10.967,15.696 10.158,15.696 C9.735,15.696 9.050,15.478 9.050,14.516 C9.050,13.295 10.095,12.892 11.087,12.892 C11.243,12.892 11.580,12.918 11.580,12.918 C11.580,12.918 11.619,12.844 11.619,12.641 C11.619,12.311 11.304,12.263 10.878,12.263 C10.123,12.263 9.627,12.459 9.627,12.459 L9.794,11.512 C9.794,11.512 10.398,11.271 11.184,11.271 C11.591,11.271 12.761,11.312 12.761,12.596 L12.308,15.614 L11.300,15.614 ZM11.428,13.728 C11.397,13.724 11.374,13.706 11.180,13.706 C10.336,13.706 10.170,14.065 10.170,14.364 C10.170,14.520 10.262,14.778 10.615,14.778 C11.308,14.778 11.452,13.912 11.428,13.728 ZM7.379,15.618 L8.034,11.682 L6.562,15.618 L5.767,15.618 L5.667,11.682 L4.969,15.618 L3.861,15.618 L4.779,10.399 L6.454,10.399 L6.511,13.602 L7.643,10.399 L9.464,10.399 L8.558,15.618 L7.379,15.618 ZM19.871,11.253 C21.130,11.253 21.510,12.134 21.510,12.855 C21.510,13.144 21.359,13.854 21.359,13.854 L19.022,13.854 C19.022,13.854 18.810,14.735 20.042,14.735 C20.619,14.735 21.262,14.464 21.262,14.464 L21.057,15.519 C21.057,15.519 20.689,15.700 19.845,15.700 C18.934,15.700 17.864,15.333 17.864,13.784 C17.864,12.441 18.717,11.253 19.871,11.253 ZM20.402,12.988 C20.402,12.932 20.522,12.237 19.875,12.237 C19.251,12.237 19.131,12.914 19.131,12.988 L20.402,12.988 ZM22.912,18.445 L19.085,18.445 C18.853,18.090 18.635,17.727 18.449,17.343 L23.540,17.343 C23.355,17.724 23.146,18.093 22.912,18.445 ZM21.022,20.609 L21.018,20.609 C21.010,20.617 20.999,20.624 20.991,20.631 C20.591,20.287 20.231,19.906 19.890,19.507 L22.115,19.507 C21.782,19.899 21.414,20.268 21.022,20.609 ZM38.000,18.545 C38.020,18.552 38.039,18.563 38.047,18.581 C38.059,18.597 38.067,18.615 38.067,18.634 C38.067,18.659 38.055,18.682 38.035,18.700 C38.016,18.723 37.992,18.733 37.958,18.733 C37.974,18.737 37.982,18.744 37.992,18.752 C38.004,18.766 38.024,18.793 38.047,18.822 L38.094,18.896 L38.016,18.896 L37.986,18.837 C37.958,18.797 37.935,18.766 37.919,18.756 C37.911,18.748 37.896,18.741 37.872,18.741 L37.838,18.741 L37.838,18.892 L37.776,18.892 L37.776,18.533 L37.907,18.533 C37.950,18.533 37.982,18.537 38.000,18.545 ZM37.838,18.692 L37.911,18.692 C37.947,18.692 37.970,18.689 37.982,18.678 C37.996,18.671 38.000,18.656 38.000,18.641 C38.000,18.630 37.996,18.619 37.992,18.611 C37.986,18.604 37.978,18.597 37.966,18.593 C37.954,18.589 37.935,18.585 37.907,18.585 L37.838,18.585 L37.838,18.692 Z" class="cls-1"/>
</svg>
