<svg xmlns="http://www.w3.org/2000/svg" xmlns:xlink="http://www.w3.org/1999/xlink" preserveAspectRatio="xMidYMid" width="42" height="26" viewBox="0 0 42 26">
  <defs>
    <style>
      .cls-1 {
        fill: #fff;
        fill-rule: evenodd;
      }
    </style>
  </defs>
  <path d="M40.923,25.995 L1.068,25.995 C0.471,25.995 -0.013,25.533 -0.013,24.963 L-0.013,1.028 C-0.013,0.458 0.471,-0.004 1.068,-0.004 L40.923,-0.004 C41.519,-0.004 42.003,0.458 42.003,1.028 L42.003,24.963 C42.003,25.533 41.519,25.995 40.923,25.995 ZM8.983,8.678 C8.817,8.061 8.329,7.875 7.724,7.853 L3.241,7.853 L3.202,8.057 C6.694,8.863 9.003,10.813 9.960,13.155 L8.983,8.678 ZM13.219,7.950 L10.386,14.859 L10.084,13.817 C9.522,12.563 7.938,10.757 6.078,9.618 L8.666,18.067 L11.727,18.064 L16.284,7.950 L13.219,7.950 ZM17.449,7.939 L15.644,18.075 L18.534,18.075 L20.343,7.939 L17.449,7.939 ZM26.435,7.768 C23.575,7.768 21.561,9.140 21.545,11.112 C21.530,12.567 22.983,13.380 24.079,13.865 C25.207,14.361 25.583,14.679 25.579,15.123 C25.571,15.800 24.680,16.111 23.851,16.111 C22.692,16.111 22.076,15.959 21.126,15.578 L20.751,15.418 L20.343,17.687 C21.022,17.968 22.274,18.215 23.567,18.227 C26.609,18.227 28.585,16.869 28.605,14.768 C28.616,13.613 27.845,12.736 26.175,12.012 C25.164,11.542 24.544,11.231 24.552,10.757 C24.552,10.336 25.079,9.885 26.211,9.885 C27.156,9.870 27.841,10.065 28.376,10.273 L28.636,10.388 L29.027,8.193 C28.453,7.987 27.555,7.768 26.435,7.768 ZM36.447,7.950 L34.211,7.950 C33.518,7.950 33.002,8.131 32.697,8.793 L28.403,18.079 L31.441,18.079 C31.441,18.079 31.933,16.829 32.045,16.555 C32.378,16.555 35.331,16.561 35.754,16.561 C35.839,16.913 36.102,18.079 36.102,18.079 L38.787,18.079 L36.447,7.950 ZM34.029,11.653 C34.014,11.678 34.269,11.065 34.417,10.683 L34.610,11.556 C34.610,11.556 35.164,13.976 35.281,14.482 L32.878,14.482 C33.118,13.902 34.029,11.653 34.029,11.653 Z" class="cls-1"/>
</svg>
