<svg xmlns="http://www.w3.org/2000/svg" xmlns:xlink="http://www.w3.org/1999/xlink" preserveAspectRatio="xMidYMid" width="20" height="20" viewBox="0 0 20 20">
  <defs>
    <style>
      .cls-1 {
        fill: #ededed;
        fill-rule: evenodd;
      }
    </style>
  </defs>
  <path d="M19.660,12.588 C19.660,12.588 19.660,12.586 19.660,12.584 C19.880,11.759 20.000,10.894 20.000,10.000 C20.000,9.106 19.880,8.240 19.660,7.415 C19.658,7.413 19.660,7.412 19.660,7.412 C19.658,7.410 19.658,7.409 19.657,7.407 C19.430,6.564 19.095,5.763 18.667,5.023 C18.664,5.014 18.664,5.006 18.660,5.000 C18.655,4.991 18.649,4.988 18.644,4.982 C18.211,4.238 17.689,3.556 17.085,2.951 C17.080,2.944 17.077,2.934 17.070,2.928 C17.065,2.921 17.056,2.920 17.049,2.915 C16.444,2.311 15.760,1.789 15.018,1.355 C15.011,1.351 15.008,1.344 15.000,1.339 C14.992,1.336 14.984,1.336 14.977,1.333 C14.235,0.905 13.436,0.569 12.591,0.343 C12.591,0.341 12.590,0.341 12.588,0.341 C12.588,0.340 12.586,0.341 12.584,0.341 C11.759,0.120 10.894,-0.000 10.000,-0.000 C9.106,-0.000 8.240,0.120 7.415,0.340 C7.414,0.341 7.412,0.340 7.412,0.340 C7.410,0.341 7.409,0.341 7.409,0.341 C6.564,0.569 5.765,0.905 5.023,1.331 C5.016,1.336 5.008,1.336 5.000,1.339 C4.992,1.344 4.989,1.351 4.982,1.355 C4.240,1.789 3.556,2.311 2.951,2.915 C2.944,2.920 2.934,2.923 2.930,2.929 C2.923,2.934 2.920,2.944 2.915,2.951 C2.313,3.556 1.789,4.240 1.356,4.982 C1.351,4.988 1.345,4.993 1.340,5.000 C1.336,5.008 1.336,5.014 1.333,5.023 C0.905,5.763 0.570,6.564 0.343,7.409 C0.342,7.409 0.342,7.410 0.342,7.412 C0.342,7.412 0.342,7.413 0.340,7.415 C0.120,8.240 -0.000,9.106 -0.000,10.000 C-0.000,10.894 0.120,11.759 0.340,12.584 C0.342,12.586 0.340,12.588 0.342,12.588 C0.342,12.589 0.343,12.591 0.343,12.593 C0.570,13.435 0.905,14.236 1.333,14.977 C1.336,14.985 1.336,14.991 1.340,15.000 C1.346,15.009 1.354,15.017 1.362,15.027 C1.794,15.766 2.315,16.447 2.915,17.049 C2.920,17.056 2.923,17.063 2.930,17.070 C2.936,17.077 2.944,17.080 2.951,17.085 C3.556,17.687 4.238,18.211 4.982,18.642 C4.989,18.649 4.992,18.655 5.000,18.660 C5.011,18.667 5.025,18.670 5.036,18.675 C5.773,19.098 6.569,19.432 7.409,19.656 C7.410,19.656 7.410,19.658 7.412,19.658 C7.414,19.658 7.415,19.658 7.417,19.660 C8.240,19.881 9.106,20.000 10.000,20.000 C10.894,20.000 11.759,19.881 12.583,19.660 C12.584,19.660 12.586,19.660 12.588,19.658 C12.590,19.658 12.591,19.658 12.591,19.656 C13.431,19.432 14.227,19.098 14.964,18.675 C14.975,18.670 14.989,18.667 15.000,18.660 C15.008,18.655 15.011,18.649 15.020,18.644 C15.762,18.211 16.444,17.687 17.049,17.085 C17.056,17.080 17.065,17.077 17.070,17.070 C17.077,17.065 17.080,17.056 17.085,17.049 C17.685,16.447 18.206,15.766 18.639,15.027 C18.646,15.017 18.654,15.011 18.660,15.000 C18.665,14.993 18.664,14.985 18.669,14.977 C19.095,14.236 19.430,13.437 19.657,12.593 C19.658,12.591 19.658,12.589 19.660,12.588 L19.660,12.588 ZM18.285,12.565 L18.922,12.736 C18.748,13.307 18.519,13.854 18.242,14.373 L17.672,14.044 C17.513,13.951 17.310,14.007 17.217,14.166 C17.126,14.326 17.179,14.529 17.339,14.622 L17.907,14.949 C17.591,15.452 17.230,15.923 16.826,16.356 L16.364,15.892 C16.234,15.761 16.024,15.761 15.892,15.892 C15.762,16.022 15.762,16.234 15.892,16.363 L16.356,16.826 C15.923,17.228 15.452,17.591 14.950,17.907 L14.622,17.338 C14.530,17.179 14.325,17.124 14.167,17.216 C14.007,17.308 13.952,17.513 14.045,17.671 L14.373,18.240 C13.854,18.517 13.307,18.746 12.736,18.922 L12.565,18.284 C12.518,18.107 12.335,18.001 12.157,18.048 C11.979,18.095 11.873,18.279 11.920,18.457 L12.092,19.093 C11.523,19.223 10.936,19.303 10.334,19.324 L10.334,17.999 C10.334,17.816 10.184,17.665 10.000,17.665 C9.816,17.665 9.666,17.816 9.666,17.999 L9.666,19.324 C9.064,19.303 8.477,19.225 7.908,19.095 L8.080,18.459 C8.127,18.279 8.021,18.097 7.843,18.050 C7.666,18.001 7.484,18.107 7.435,18.286 L7.264,18.924 C6.692,18.748 6.146,18.519 5.627,18.242 L5.955,17.672 C6.048,17.513 5.993,17.309 5.833,17.216 C5.675,17.126 5.470,17.179 5.379,17.338 L5.050,17.907 C4.547,17.593 4.077,17.230 3.646,16.828 L4.108,16.363 C4.238,16.234 4.238,16.023 4.108,15.893 C3.978,15.763 3.766,15.763 3.636,15.893 L3.174,16.356 C2.770,15.923 2.409,15.452 2.093,14.949 L2.661,14.622 C2.821,14.529 2.876,14.326 2.783,14.166 C2.690,14.007 2.487,13.951 2.327,14.044 L1.758,14.373 C1.483,13.854 1.252,13.307 1.077,12.736 L1.715,12.565 C1.893,12.517 1.999,12.335 1.952,12.156 C1.904,11.979 1.720,11.873 1.543,11.920 L0.907,12.091 C0.775,11.523 0.697,10.935 0.675,10.333 L2.000,10.333 C2.184,10.333 2.334,10.184 2.334,10.000 C2.334,9.816 2.184,9.666 2.000,9.666 L0.675,9.666 C0.697,9.064 0.775,8.476 0.905,7.908 L1.541,8.079 C1.571,8.085 1.600,8.089 1.629,8.089 C1.776,8.089 1.911,7.992 1.950,7.843 C1.999,7.666 1.893,7.482 1.714,7.435 L1.077,7.264 C1.252,6.692 1.481,6.146 1.758,5.626 L2.327,5.955 C2.380,5.986 2.437,5.999 2.493,5.999 C2.609,5.999 2.721,5.940 2.783,5.833 C2.874,5.673 2.821,5.470 2.661,5.377 L2.093,5.050 C2.409,4.547 2.770,4.077 3.174,3.644 L3.636,4.108 C3.701,4.171 3.786,4.206 3.872,4.206 C3.957,4.206 4.043,4.171 4.108,4.108 C4.238,3.976 4.238,3.766 4.108,3.636 L3.644,3.173 C4.077,2.770 4.547,2.409 5.050,2.093 L5.377,2.661 C5.439,2.769 5.552,2.827 5.667,2.827 C5.724,2.827 5.781,2.814 5.833,2.783 C5.993,2.690 6.048,2.487 5.955,2.327 L5.627,1.758 C6.146,1.481 6.692,1.251 7.264,1.077 L7.435,1.715 C7.474,1.863 7.609,1.961 7.755,1.961 C7.785,1.961 7.814,1.958 7.843,1.950 C8.021,1.902 8.127,1.720 8.080,1.543 L7.908,0.906 C8.477,0.775 9.064,0.696 9.666,0.675 L9.666,2.000 C9.666,2.184 9.816,2.334 10.000,2.334 C10.184,2.334 10.334,2.184 10.334,2.000 L10.334,0.675 C10.936,0.696 11.523,0.775 12.092,0.905 L11.920,1.541 C11.873,1.720 11.979,1.902 12.157,1.950 C12.186,1.958 12.215,1.961 12.243,1.961 C12.391,1.961 12.526,1.863 12.565,1.714 L12.736,1.076 C13.307,1.251 13.854,1.481 14.373,1.758 L14.045,2.327 C13.952,2.487 14.007,2.690 14.167,2.783 C14.219,2.812 14.276,2.827 14.332,2.827 C14.448,2.827 14.560,2.767 14.622,2.661 L14.950,2.093 C15.452,2.409 15.923,2.770 16.356,3.172 L15.892,3.636 C15.762,3.766 15.762,3.976 15.892,4.106 C15.957,4.171 16.043,4.204 16.128,4.204 C16.212,4.204 16.299,4.171 16.364,4.106 L16.826,3.644 C17.228,4.077 17.591,4.547 17.907,5.050 L17.339,5.377 C17.179,5.470 17.124,5.673 17.217,5.833 C17.279,5.940 17.391,5.999 17.505,5.999 C17.562,5.999 17.620,5.984 17.672,5.955 L18.242,5.626 C18.517,6.144 18.748,6.692 18.922,7.264 L18.285,7.435 C18.107,7.482 18.001,7.664 18.048,7.843 C18.089,7.992 18.222,8.089 18.371,8.089 C18.400,8.089 18.428,8.085 18.457,8.078 L19.093,7.908 C19.224,8.476 19.303,9.064 19.324,9.666 L17.999,9.666 C17.816,9.666 17.666,9.816 17.666,10.000 C17.666,10.184 17.816,10.333 17.999,10.333 L19.324,10.333 C19.303,10.935 19.225,11.523 19.095,12.091 L18.459,11.920 C18.281,11.873 18.097,11.979 18.050,12.156 C18.001,12.334 18.107,12.517 18.285,12.565 L18.285,12.565 Z" class="cls-1"/>
</svg>
