<svg xmlns="http://www.w3.org/2000/svg" xmlns:xlink="http://www.w3.org/1999/xlink" preserveAspectRatio="xMidYMid" width="20" height="20" viewBox="0 0 20 20">
  <defs>
    <style>
      .cls-1 {
        fill: #ededed;
        fill-rule: evenodd;
      }
    </style>
  </defs>
  <path d="M9.612,0.004 C8.986,0.028 8.374,0.110 7.782,0.244 L7.037,0.441 C6.442,0.626 5.873,0.866 5.331,1.152 L4.666,1.539 C4.143,1.869 3.652,2.245 3.201,2.662 L2.656,3.207 C2.238,3.658 1.863,4.148 1.531,4.671 L1.144,5.336 C0.881,5.834 0.657,6.358 0.481,6.901 C0.479,6.902 0.477,6.904 0.477,6.908 C0.475,6.910 0.477,6.912 0.475,6.914 C0.462,6.955 0.446,6.998 0.433,7.040 L0.236,7.784 C0.102,8.375 0.020,8.988 -0.005,9.613 L-0.005,10.384 C0.020,11.010 0.102,11.622 0.236,12.214 L0.433,12.958 C0.618,13.552 0.858,14.121 1.144,14.662 L1.531,15.327 C1.863,15.849 2.238,16.340 2.656,16.791 L3.201,17.336 C3.485,17.597 3.782,17.843 4.096,18.072 C4.102,18.078 4.106,18.087 4.113,18.093 C4.124,18.100 4.137,18.102 4.149,18.110 C4.316,18.232 4.489,18.348 4.666,18.459 L5.331,18.846 C5.873,19.132 6.442,19.372 7.037,19.556 L7.782,19.753 C8.376,19.887 8.986,19.970 9.614,19.994 L10.384,19.994 C11.011,19.970 11.623,19.887 12.215,19.753 L12.961,19.556 C13.556,19.372 14.125,19.132 14.667,18.846 L15.332,18.459 C15.509,18.348 15.680,18.232 15.849,18.110 C15.861,18.102 15.874,18.100 15.883,18.093 C15.891,18.087 15.894,18.078 15.902,18.072 C16.214,17.843 16.513,17.597 16.797,17.336 L17.340,16.791 C17.760,16.340 18.135,15.849 18.467,15.327 L18.852,14.662 C19.140,14.121 19.378,13.552 19.563,12.958 L19.760,12.214 C19.895,11.622 19.978,11.010 20.001,10.384 L20.001,9.613 C19.976,8.988 19.894,8.375 19.760,7.784 L19.563,7.040 C19.550,6.997 19.534,6.955 19.519,6.914 C19.519,6.912 19.519,6.910 19.519,6.908 C19.519,6.904 19.517,6.904 19.516,6.901 C19.339,6.358 19.115,5.834 18.852,5.336 L18.465,4.671 C18.134,4.148 17.758,3.658 17.340,3.207 L16.795,2.662 C16.344,2.245 15.853,1.869 15.330,1.539 L14.665,1.152 C14.123,0.866 13.554,0.626 12.959,0.441 L12.215,0.244 C11.623,0.110 11.010,0.028 10.384,0.004 L9.612,0.004 ZM15.733,17.232 L12.785,13.178 C13.670,12.402 14.234,11.265 14.234,9.999 C14.234,9.678 14.195,9.364 14.125,9.063 L18.897,7.515 C19.119,8.306 19.239,9.138 19.239,9.999 C19.239,12.928 17.867,15.540 15.733,17.232 L15.733,17.232 ZM9.998,19.233 C8.108,19.233 6.350,18.662 4.884,17.687 L7.834,13.631 C8.467,14.010 9.206,14.232 9.998,14.232 C10.790,14.232 11.529,14.010 12.162,13.631 L15.112,17.687 C13.646,18.662 11.888,19.233 9.998,19.233 L9.998,19.233 ZM0.757,9.999 C0.757,9.138 0.877,8.306 1.099,7.513 L5.871,9.063 C5.801,9.364 5.762,9.678 5.762,9.999 C5.762,11.265 6.326,12.402 7.210,13.178 L4.263,17.232 C2.129,15.540 0.757,12.928 0.757,9.999 L0.757,9.999 ZM9.612,0.774 L9.612,5.785 C8.037,5.927 6.708,6.937 6.106,8.330 L1.336,6.782 C2.603,3.385 5.816,0.930 9.612,0.774 L9.612,0.774 ZM18.660,6.782 L13.890,8.330 C13.288,6.937 11.959,5.929 10.384,5.787 L10.384,0.774 C14.180,0.930 17.393,3.385 18.660,6.782 L18.660,6.782 ZM9.998,13.461 C8.088,13.461 6.533,11.908 6.533,9.999 C6.533,8.090 8.088,6.536 9.998,6.536 C11.909,6.536 13.463,8.090 13.463,9.999 C13.463,11.908 11.909,13.461 9.998,13.461 L9.998,13.461 Z" class="cls-1"/>
</svg>
