<svg xmlns="http://www.w3.org/2000/svg" xmlns:xlink="http://www.w3.org/1999/xlink" preserveAspectRatio="xMidYMid" width="20" height="20" viewBox="0 0 20 20">
  <defs>
    <style>
      .cls-1 {
        fill: #ededed;
        fill-rule: evenodd;
      }
    </style>
  </defs>
  <path d="M18.968,12.220 L17.097,12.220 C16.796,12.220 16.547,12.387 16.433,12.665 C16.319,12.942 16.377,13.235 16.589,13.447 L17.912,14.771 C18.105,14.966 18.212,15.225 18.212,15.498 C18.212,15.775 18.105,16.033 17.912,16.227 L16.225,17.914 C15.837,18.304 15.159,18.304 14.770,17.914 L13.447,16.590 C13.236,16.379 12.943,16.319 12.664,16.435 C12.388,16.551 12.221,16.799 12.221,17.099 L12.221,18.971 C12.221,19.539 11.761,20.000 11.193,20.000 L8.809,20.000 C8.241,20.000 7.780,19.539 7.780,18.971 L7.780,17.099 C7.780,16.799 7.614,16.551 7.338,16.435 C7.059,16.321 6.766,16.379 6.555,16.590 L5.232,17.914 C4.843,18.304 4.165,18.304 3.777,17.914 L2.090,16.227 C1.897,16.033 1.790,15.775 1.790,15.498 C1.790,15.225 1.897,14.964 2.090,14.771 L3.413,13.447 C3.625,13.235 3.684,12.942 3.569,12.665 C3.453,12.387 3.205,12.220 2.906,12.220 L1.035,12.220 C0.467,12.220 0.006,11.759 0.006,11.191 L0.006,8.805 C0.006,8.237 0.467,7.776 1.035,7.776 L2.906,7.776 C3.205,7.776 3.455,7.609 3.569,7.333 C3.683,7.054 3.625,6.761 3.413,6.550 L2.090,5.226 C1.897,5.032 1.790,4.773 1.790,4.498 C1.790,4.223 1.897,3.963 2.090,3.769 L3.777,2.082 C4.165,1.693 4.843,1.693 5.232,2.082 L6.555,3.406 C6.766,3.618 7.059,3.677 7.338,3.561 C7.614,3.445 7.780,3.198 7.780,2.898 L7.780,1.026 C7.780,0.457 8.241,-0.004 8.809,-0.004 L11.193,-0.004 C11.761,-0.004 12.221,0.457 12.221,1.026 L12.221,2.898 C12.221,3.198 12.388,3.445 12.666,3.561 C12.943,3.677 13.236,3.618 13.447,3.406 L14.770,2.082 C15.159,1.693 15.837,1.693 16.225,2.082 L17.912,3.769 C18.105,3.965 18.212,4.223 18.212,4.498 C18.212,4.773 18.105,5.032 17.912,5.226 L16.589,6.550 C16.377,6.761 16.319,7.054 16.433,7.333 C16.549,7.609 16.796,7.776 17.097,7.776 L18.968,7.776 C19.535,7.776 19.996,8.237 19.996,8.805 L19.996,11.191 C19.996,11.759 19.535,12.220 18.968,12.220 ZM19.257,8.805 C19.257,8.646 19.126,8.516 18.968,8.517 L17.097,8.517 C16.497,8.517 15.980,8.172 15.750,7.617 C15.518,7.060 15.641,6.450 16.066,6.025 L17.387,4.703 C17.502,4.591 17.502,4.406 17.387,4.294 L15.703,2.606 C15.591,2.494 15.406,2.494 15.294,2.606 L13.971,3.930 C13.547,4.355 12.937,4.477 12.382,4.245 C11.828,4.016 11.482,3.500 11.482,2.898 L11.482,1.026 C11.482,0.866 11.352,0.738 11.193,0.738 L8.809,0.738 C8.650,0.738 8.520,0.866 8.520,1.026 L8.520,2.898 C8.520,3.500 8.176,4.016 7.619,4.245 C7.065,4.477 6.456,4.353 6.031,3.929 L4.709,2.606 C4.596,2.494 4.413,2.494 4.299,2.606 L2.615,4.292 C2.503,4.406 2.503,4.589 2.615,4.703 L3.938,6.025 C4.362,6.450 4.484,7.060 4.252,7.615 C4.023,8.172 3.507,8.516 2.906,8.516 L1.035,8.516 C0.876,8.516 0.747,8.646 0.747,8.805 L0.747,11.191 C0.747,11.350 0.876,11.481 1.035,11.481 L2.906,11.481 C3.507,11.481 4.023,11.826 4.252,12.381 C4.484,12.937 4.362,13.546 3.938,13.972 L2.615,15.294 C2.503,15.407 2.503,15.590 2.615,15.704 L4.299,17.390 C4.413,17.502 4.596,17.504 4.709,17.390 L6.031,16.066 C6.313,15.784 6.678,15.635 7.052,15.635 C7.242,15.635 7.433,15.673 7.619,15.751 C8.176,15.981 8.520,16.499 8.520,17.099 L8.520,18.971 C8.520,19.130 8.650,19.261 8.809,19.261 L11.193,19.261 C11.352,19.261 11.482,19.130 11.482,18.971 L11.482,17.099 C11.482,16.499 11.828,15.981 12.382,15.751 C12.937,15.521 13.547,15.641 13.971,16.068 L15.294,17.390 C15.406,17.504 15.589,17.502 15.703,17.390 L17.387,15.704 C17.502,15.590 17.502,15.407 17.387,15.295 L16.066,13.972 C15.640,13.546 15.518,12.937 15.750,12.381 C15.980,11.826 16.497,11.481 17.097,11.481 L18.968,11.481 C19.126,11.481 19.257,11.350 19.257,11.191 L19.257,8.805 ZM10.002,13.333 C8.164,13.333 6.669,11.837 6.669,9.999 C6.669,8.160 8.164,6.663 10.002,6.663 C11.838,6.663 13.333,8.160 13.333,9.999 C13.333,11.837 11.838,13.333 10.002,13.333 ZM10.002,7.405 C8.572,7.405 7.410,8.568 7.410,9.999 C7.410,11.428 8.572,12.591 10.002,12.591 C11.430,12.591 12.592,11.428 12.592,9.999 C12.592,8.568 11.430,7.405 10.002,7.405 Z" class="cls-1"/>
</svg>
