<svg xmlns="http://www.w3.org/2000/svg" xmlns:xlink="http://www.w3.org/1999/xlink" preserveAspectRatio="xMidYMid" width="20" height="20" viewBox="0 0 20 20">
  <defs>
    <style>
      .cls-1 {
        fill: #ededed;
        fill-rule: evenodd;
      }
    </style>
  </defs>
  <path d="M0.157,19.093 L19.102,0.148 L19.845,0.894 L0.902,19.836 L0.157,19.093 ZM3.161,6.310 C1.419,6.310 0.003,4.892 0.003,3.152 C0.003,1.410 1.419,-0.006 3.161,-0.006 C4.900,-0.006 6.319,1.410 6.319,3.152 C6.319,4.892 4.900,6.310 3.161,6.310 ZM3.161,1.048 C1.999,1.048 1.057,1.991 1.057,3.152 C1.057,4.313 1.999,5.257 3.161,5.257 C4.322,5.257 5.265,4.313 5.265,3.152 C5.265,1.991 4.322,1.048 3.161,1.048 ZM16.844,13.677 C18.583,13.677 19.999,15.093 19.999,16.835 C19.999,18.574 18.583,19.990 16.844,19.990 C15.101,19.990 13.686,18.574 13.686,16.835 C13.686,15.093 15.101,13.677 16.844,13.677 ZM16.844,18.939 C18.002,18.939 18.948,17.994 18.948,16.835 C18.948,15.673 18.002,14.727 16.844,14.727 C15.682,14.727 14.736,15.673 14.736,16.835 C14.736,17.994 15.682,18.939 16.844,18.939 Z" class="cls-1"/>
</svg>
