<svg xmlns="http://www.w3.org/2000/svg" xmlns:xlink="http://www.w3.org/1999/xlink" preserveAspectRatio="xMidYMid" width="21.031" height="20" viewBox="0 0 21.031 20">
  <defs>
    <style>
      .cls-1 {
        fill: #ededed;
        fill-rule: evenodd;
      }
    </style>
  </defs>
  <path d="M20.581,9.067 C20.994,8.667 21.140,8.079 20.961,7.532 C20.782,6.985 20.316,6.595 19.744,6.514 L14.654,5.779 C14.438,5.749 14.252,5.612 14.155,5.418 L11.880,0.837 C11.623,0.323 11.105,0.003 10.528,0.003 C9.950,0.003 9.433,0.323 9.175,0.837 L6.901,5.418 C6.804,5.612 6.615,5.749 6.399,5.779 L1.309,6.514 C0.737,6.595 0.271,6.985 0.092,7.532 C-0.084,8.079 0.061,8.667 0.474,9.067 L4.157,12.631 C4.313,12.784 4.385,13.003 4.348,13.217 L3.479,18.252 C3.383,18.818 3.610,19.377 4.079,19.715 C4.545,20.052 5.154,20.097 5.665,19.830 L10.218,17.452 C10.411,17.352 10.643,17.352 10.838,17.452 L15.388,19.830 C15.612,19.946 15.852,20.003 16.091,20.003 C16.403,20.003 16.711,19.905 16.976,19.715 C17.443,19.377 17.673,18.818 17.576,18.252 L16.705,13.217 C16.668,13.003 16.740,12.784 16.898,12.633 L20.581,9.067 ZM15.877,13.359 L16.746,18.393 C16.789,18.646 16.691,18.887 16.481,19.040 C16.272,19.191 16.010,19.210 15.780,19.089 L11.229,16.713 C11.011,16.599 10.768,16.542 10.528,16.542 C10.287,16.542 10.045,16.599 9.825,16.713 L5.275,19.089 C5.045,19.210 4.784,19.191 4.574,19.040 C4.365,18.887 4.266,18.646 4.309,18.393 L5.179,13.359 C5.263,12.874 5.100,12.378 4.745,12.033 L1.062,8.469 C0.877,8.289 0.814,8.035 0.894,7.791 C0.974,7.546 1.175,7.377 1.430,7.341 L6.520,6.606 C7.012,6.536 7.435,6.230 7.655,5.787 L9.930,1.207 C10.045,0.976 10.269,0.839 10.528,0.839 C10.787,0.839 11.009,0.976 11.123,1.207 L13.401,5.787 C13.619,6.230 14.044,6.536 14.535,6.606 L19.624,7.341 C19.880,7.377 20.082,7.546 20.160,7.791 C20.240,8.035 20.178,8.289 19.993,8.469 L16.311,12.033 C15.955,12.378 15.792,12.872 15.877,13.359 L15.877,13.359 Z" class="cls-1"/>
</svg>
