<svg xmlns="http://www.w3.org/2000/svg" xmlns:xlink="http://www.w3.org/1999/xlink" preserveAspectRatio="xMidYMid" width="20" height="20" viewBox="0 0 20 20">
  <defs>
    <style>
      .cls-1 {
        fill: #ededed;
        fill-rule: evenodd;
      }
    </style>
  </defs>
  <path d="M19.999,20.000 L-0.000,20.000 L3.581,12.333 L6.037,12.333 L5.033,10.856 C3.159,8.308 3.432,4.106 5.624,1.871 C6.809,0.665 8.383,-0.000 10.057,-0.000 C11.732,-0.000 13.306,0.665 14.491,1.871 C16.682,4.106 16.954,8.308 15.073,10.866 L14.077,12.332 L16.418,12.332 L19.999,20.000 ZM14.543,10.476 C16.250,8.156 16.007,4.360 14.029,2.344 C12.968,1.261 11.558,0.665 10.057,0.665 C8.557,0.665 7.147,1.261 6.087,2.344 C4.109,4.360 3.865,8.156 5.565,10.467 L6.833,12.332 L10.057,17.080 L14.543,10.476 ZM13.624,12.999 L10.057,18.252 L6.489,12.999 L3.994,12.999 L1.036,19.332 L18.962,19.332 L16.004,12.999 L13.624,12.999 ZM7.827,6.333 C7.827,5.047 8.854,3.999 10.115,3.999 C11.376,3.999 12.404,5.047 12.404,6.333 C12.404,7.618 11.376,8.667 10.115,8.667 C8.854,8.667 7.827,7.618 7.827,6.333 ZM10.115,7.999 C11.017,7.999 11.750,7.252 11.750,6.333 C11.750,5.413 11.017,4.666 10.115,4.666 C9.213,4.666 8.480,5.413 8.480,6.333 C8.480,7.252 9.213,7.999 10.115,7.999 Z" class="cls-1"/>
</svg>
