<svg xmlns="http://www.w3.org/2000/svg" xmlns:xlink="http://www.w3.org/1999/xlink" preserveAspectRatio="xMidYMid" width="16" height="20" viewBox="0 0 16 20">
  <defs>
    <style>
      .cls-1 {
        fill: #ededed;
        fill-rule: evenodd;
      }
    </style>
  </defs>
  <path d="M-0.006,20.000 L-0.006,-0.000 L11.031,-0.000 L15.999,4.861 L15.999,20.000 L-0.006,20.000 ZM11.230,1.137 L11.230,4.666 L14.835,4.666 L11.230,1.137 ZM15.317,5.333 L10.550,5.333 L10.550,0.667 L0.676,0.667 L0.676,19.332 L15.317,19.332 L15.317,5.333 ZM3.740,4.666 L7.145,4.666 C7.333,4.666 7.486,4.816 7.486,5.000 C7.486,5.184 7.333,5.333 7.145,5.333 L3.740,5.333 C3.552,5.333 3.399,5.184 3.399,5.000 C3.399,4.816 3.552,4.666 3.740,4.666 ZM3.740,7.334 L12.253,7.334 C12.441,7.334 12.594,7.482 12.594,7.666 C12.594,7.851 12.441,7.999 12.253,7.999 L3.740,7.999 C3.552,7.999 3.399,7.851 3.399,7.666 C3.399,7.482 3.552,7.334 3.740,7.334 ZM3.740,10.000 L12.253,10.000 C12.441,10.000 12.594,10.149 12.594,10.333 C12.594,10.517 12.441,10.667 12.253,10.667 L3.740,10.667 C3.552,10.667 3.399,10.517 3.399,10.333 C3.399,10.149 3.552,10.000 3.740,10.000 ZM3.740,12.666 L12.253,12.666 C12.441,12.666 12.594,12.816 12.594,12.999 C12.594,13.184 12.441,13.333 12.253,13.333 L3.740,13.333 C3.552,13.333 3.399,13.184 3.399,12.999 C3.399,12.816 3.552,12.666 3.740,12.666 ZM3.740,15.333 L12.253,15.333 C12.441,15.333 12.594,15.481 12.594,15.667 C12.594,15.851 12.441,15.999 12.253,15.999 L3.740,15.999 C3.552,15.999 3.399,15.851 3.399,15.667 C3.399,15.481 3.552,15.333 3.740,15.333 Z" class="cls-1"/>
</svg>
