<svg xmlns="http://www.w3.org/2000/svg" xmlns:xlink="http://www.w3.org/1999/xlink" preserveAspectRatio="xMidYMid" width="20.03" height="20" viewBox="0 0 20.03 20">
  <defs>
    <style>
      .cls-1 {
        fill: #fff;
        fill-rule: evenodd;
      }
    </style>
  </defs>
  <path d="M19.762,19.761 C19.603,19.920 19.395,19.999 19.187,19.999 C18.979,19.999 18.771,19.920 18.612,19.761 L14.431,15.581 C12.905,16.850 10.944,17.615 8.808,17.615 C3.951,17.615 -0.000,13.664 -0.000,8.807 C-0.000,3.950 3.951,-0.000 8.808,-0.000 C13.664,-0.000 17.615,3.950 17.615,8.807 C17.615,10.943 16.850,12.904 15.581,14.431 L19.762,18.612 C20.079,18.929 20.079,19.444 19.762,19.761 ZM8.808,1.626 C4.848,1.626 1.626,4.848 1.626,8.807 C1.626,12.767 4.848,15.989 8.808,15.989 C12.767,15.989 15.989,12.767 15.989,8.807 C15.989,4.848 12.767,1.626 8.808,1.626 Z" class="cls-1"/>
</svg>
