<?xml version="1.0" encoding="iso-8859-1"?>
<!-- Generator: Adobe Illustrator 19.0.0, SVG Export Plug-In . SVG Version: 6.00 Build 0)  -->
<svg version="1.1" id="&#x421;&#x43B;&#x43E;&#x439;_1"
	 xmlns="http://www.w3.org/2000/svg" xmlns:xlink="http://www.w3.org/1999/xlink" x="0px" y="0px" viewBox="0 0 496 496"
	 style="enable-background:new 0 0 496 496;" xml:space="preserve" width="70">
<path style="fill:#FC352E;" d="M248,64C146.535,64,64,146.543,64,248s82.535,184,184,184s184-82.543,184-184S349.465,64,248,64
	L248,64z M248,392c-79.527,0-144-64.473-144-144s64.473-144,144-144s144,64.473,144,144S327.527,392,248,392L248,392z M248,392"/>
<path style="fill:#DEDFE0;" d="M248,0C111.246,0,0,111.258,0,248s111.246,248,248,248s248-111.258,248-248S384.754,0,248,0L248,0z
	 M479.801,256c-0.879,25.711-5.93,50.375-14.543,73.328l-29.418-12.183l-6.129,14.785l29.367,12.168
	c-10.484,22.933-24.582,43.879-41.59,62.086L395.07,383.77l-11.308,11.308l22.414,22.418
	c-18.207,17.008-39.153,31.106-62.086,41.582l-12.16-29.367l-14.785,6.129l12.183,29.406c-22.953,8.625-47.617,13.676-73.328,14.547
	V448h-16v31.801c-25.711-0.879-50.375-5.93-73.328-14.543l12.183-29.41l-14.785-6.129l-12.16,29.371
	c-22.933-10.488-43.879-24.578-62.086-41.586l22.414-22.414l-11.308-11.313l-22.418,22.414
	c-17.008-18.214-31.106-39.152-41.59-62.093l29.367-12.168l-6.129-14.785l-29.418,12.183C22.129,306.375,17.078,281.711,16.199,256
	H48v-16H16.199c0.879-25.711,5.93-50.375,14.543-73.328l29.418,12.183l6.129-14.785l-29.367-12.168
	c10.484-22.933,24.582-43.879,41.59-62.093l22.418,22.414l11.308-11.313L89.824,78.496c18.207-17.008,39.153-31.105,62.086-41.586
	l12.16,29.371l14.785-6.129l-12.183-29.41c22.953-8.613,47.617-13.664,73.328-14.543V48h16V16.199
	c25.711,0.879,50.375,5.93,73.328,14.543L317.152,60.16l14.786,6.129l12.16-29.367c22.933,10.476,43.879,24.574,62.086,41.582
	l-22.414,22.418l11.308,11.308l22.418-22.414c17.008,18.207,31.106,39.153,41.594,62.086l-29.371,12.168l6.129,14.785l29.418-12.183
	c8.613,22.953,13.672,47.617,14.543,73.328H448v16H479.801z M479.801,256"/>
<path style="fill:#FC352E;" d="M248,96c-83.816,0-152,68.184-152,152s68.184,152,152,152s152-68.184,152-152S331.816,96,248,96
	L248,96z M360.902,172.289l-85.031,37.344l9.242-92.352C316.398,126.176,343.168,145.91,360.902,172.289L360.902,172.289z M248,272
	c-13.23,0-24-10.77-24-24c0-13.23,10.77-24,24-24c13.23,0,24,10.77,24,24C272,261.23,261.23,272,248,272L248,272z M210.887,117.281
	l9.234,92.352l-85.023-37.344C152.832,145.91,179.602,126.176,210.887,117.281L210.887,117.281z M112.258,242.91l90.637,19.746
	l-61.711,69.246C122.969,308.762,112,279.664,112,248C112,246.281,112.191,244.617,112.258,242.91L112.258,242.91z M201.207,375.527
	L248,295.426l46.793,80.109C280.176,380.91,264.465,384,248,384C231.535,384,215.824,380.91,201.207,375.527L201.207,375.527z
	 M354.816,331.902l-61.711-69.246l90.637-19.746c0.067,1.707,0.258,3.371,0.258,5.09C384,279.664,373.031,308.762,354.816,331.902
	L354.816,331.902z M354.816,331.902"/>
</svg>
