<?xml version="1.0" encoding="utf-8"?>
<!-- Generator: Adobe Illustrator 19.0.0, SVG Export Plug-In . SVG Version: 6.00 Build 0)  -->
<svg version="1.1" id="Capa_1" xmlns="http://www.w3.org/2000/svg" xmlns:xlink="http://www.w3.org/1999/xlink" x="0px" y="0px"
	 viewBox="55.2 357.4 327.6 191.4" style="enable-background:new 55.2 357.4 327.6 191.4;" width="68px" xml:space="preserve">
<style type="text/css">
	.st0{fill:#192D6B;}
	.st1{fill:#E0E1E1;}
</style>
<polygon class="st0" points="252.5,505 154,505 126.8,493.3 101,505 66,505 66,368 252.5,368 "/>
<path class="st1" d="M363.9,435.2l-23.6-4.7l-18-36c-4-8-12.1-13-21-13h-38.7V373c0-8.6-7-15.5-15.5-15.5H70.7
	c-8.6,0-15.5,7-15.5,15.5v128.3c0,8.6,7,15.5,15.5,15.5h24.6c0,0.2,0,0.3,0,0.5c0,17.4,14.2,31.5,31.5,31.5s31.5-14.2,31.5-31.5
	c0-0.2,0-0.3,0-0.5h137.3c0,0.2,0,0.3,0,0.5c0,17.4,14.2,31.5,31.5,31.5s31.5-14.2,31.5-31.5c0-1.3-0.1-2.6-0.2-3.8l13.8-9.2
	c6.6-4.4,10.5-11.7,10.5-19.6v-26.4C382.8,447.1,374.9,437.4,363.9,435.2z M126.8,533.8c-9.1,0-16.5-7.4-16.5-16.5
	s7.4-16.5,16.5-16.5s16.5,7.4,16.5,16.5C143.4,526.4,136,533.8,126.8,533.8z M154.3,501.7c-5.4-9.6-15.7-16-27.5-16s-22,6.5-27.5,16
	H70.7c-0.3,0-0.5-0.2-0.5-0.5V373c0-0.3,0.2-0.5,0.5-0.5h176.4c0.3,0,0.5,0.2,0.5,0.5v128.8H154.3z M262.6,396.5h38.7
	c3.3,0,6.2,1.8,7.6,4.7l14.2,28.4h-60.5V396.5z M327.2,533.8c-9.1,0-16.5-7.4-16.5-16.5s7.4-16.5,16.5-16.5s16.5,7.4,16.5,16.5
	C343.8,526.4,336.4,533.8,327.2,533.8z M367.8,461.6h-8.5c-4.1,0-7.5,3.4-7.5,7.5c0,4.1,3.4,7.5,7.5,7.5h8.5v8
	c0,2.9-1.4,5.5-3.8,7.1l-11,7.4c-5.7-8.1-15.1-13.4-25.8-13.4c-11.8,0-22,6.5-27.5,16h-37.2v-57.1h71.9l26.5,5.3
	c4,0.8,6.9,4.3,6.9,8.4L367.8,461.6L367.8,461.6z"/>
</svg>
