<?xml version="1.0" encoding="iso-8859-1"?>
<!-- Generator: Adobe Illustrator 19.0.0, SVG Export Plug-In . SVG Version: 6.00 Build 0)  -->
<svg version="1.1" id="Capa_1" xmlns="http://www.w3.org/2000/svg" xmlns:xlink="http://www.w3.org/1999/xlink" x="0px" y="0px"
	 viewBox="55.21 357.436 327.629 191.355" style="enable-background:new 55.21 357.436 327.629 191.355;" xml:space="preserve" width="68">
<polygon style="fill:#FC352E;" points="252.5,505 154,505 126.839,493.25 101,505 66,505 66,368 252.5,368 "/>
<path style="fill:#E0E1E1;" d="M363.921,435.165l-23.595-4.72l-17.977-35.953c-4.012-8.024-12.077-13.008-21.048-13.008h-38.705
	v-8.532c0-8.556-6.96-15.516-15.516-15.516H70.726c-8.556,0-15.516,6.96-15.516,15.516V501.21c0,8.556,6.96,15.516,15.516,15.516
	h24.578c-0.003,0.173-0.013,0.343-0.013,0.517c0,17.396,14.152,31.548,31.548,31.548s31.548-14.152,31.548-31.548
	c0-0.173-0.01-0.344-0.013-0.517h137.332c-0.003,0.173-0.013,0.343-0.013,0.517c0,17.396,14.152,31.548,31.548,31.548
	s31.549-14.152,31.549-31.548c0-1.301-0.089-2.581-0.242-3.841l13.812-9.208c6.562-4.375,10.479-11.694,10.479-19.58V458.24
	C382.839,447.062,374.883,437.357,363.921,435.165z M126.839,533.79c-9.125,0-16.548-7.423-16.548-16.548
	s7.423-16.549,16.548-16.549s16.548,7.424,16.548,16.549C143.387,526.367,135.964,533.79,126.839,533.79z M154.291,501.726
	c-5.426-9.562-15.695-16.032-27.453-16.032s-22.027,6.47-27.453,16.032H70.724c-0.285,0-0.516-0.231-0.516-0.516V372.952
	c0-0.285,0.231-0.516,0.516-0.516h176.355c0.285,0,0.516,0.231,0.516,0.516v128.774H154.291z M262.597,396.484h38.705
	c3.253,0,6.177,1.807,7.632,4.716l14.19,28.38h-60.527V396.484z M327.242,533.79c-9.125,0-16.548-7.423-16.548-16.548
	s7.423-16.549,16.548-16.549s16.549,7.424,16.549,16.549C343.791,526.367,336.367,533.79,327.242,533.79z M367.839,461.646h-8.532
	c-4.142,0-7.5,3.357-7.5,7.5c0,4.142,3.358,7.5,7.5,7.5h8.532v7.968c0,2.859-1.42,5.513-3.799,7.1l-11.034,7.355
	c-5.719-8.083-15.132-13.375-25.764-13.375c-11.758,0-22.027,6.47-27.453,16.032h-37.192v-57.145h71.92l26.464,5.292
	c3.974,0.795,6.859,4.314,6.859,8.367L367.839,461.646L367.839,461.646z"/>
</svg>
