<?xml version="1.0" encoding="iso-8859-1"?>
<!-- Generator: Adobe Illustrator 19.0.0, SVG Export Plug-In . SVG Version: 6.00 Build 0)  -->
<svg version="1.1" id="Capa_1" xmlns="http://www.w3.org/2000/svg" xmlns:xlink="http://www.w3.org/1999/xlink" x="0px" y="0px"
	 viewBox="7 149 400 496" style="enable-background:new 7 149 400 496;" xml:space="preserve" width="56">
<circle style="fill:#FC352E;" cx="207" cy="445" r="136"/>
<g>
	<path style="fill:#DEDFE0;" d="M103.84,256.576l14.312-7.16L88.888,190.88c-1.232-2.464-1.888-5.232-1.888-7.992
		C87,173.024,95.024,165,105.144,165c6,0,11.56,2.976,14.88,7.968l3.88,5.816C128.168,185.176,135.312,189,143,189
		s14.832-3.824,19.096-10.216l7.128-10.688c2.584-3.872,8.976-3.872,11.56,0l7.128,10.688C192.168,185.176,199.312,189,207,189
		c7.688,0,14.832-3.824,19.096-10.216l7.128-10.688c2.584-3.872,8.976-3.872,11.56,0l7.128,10.688
		C256.168,185.176,263.312,189,271,189s14.832-3.824,19.096-10.216l3.88-5.816c3.32-4.992,8.88-7.968,15.136-7.968
		c9.864,0,17.888,8.024,17.888,17.888c0,2.76-0.656,5.528-1.888,8l-29.264,58.536l14.312,7.16l29.264-58.536
		c2.336-4.688,3.576-9.928,3.576-15.16C343,164.2,327.8,149,308.856,149c-11.36,0-21.896,5.64-28.192,15.088l-3.88,5.816
		c-2.584,3.872-8.976,3.872-11.56,0l-7.128-10.688C253.832,152.824,246.688,149,239,149s-14.832,3.824-19.096,10.216l-7.128,10.688
		c-2.584,3.872-8.976,3.872-11.56,0l-7.128-10.688C189.832,152.824,182.688,149,175,149s-14.832,3.824-19.096,10.216l-7.128,10.688
		c-2.584,3.872-8.976,3.872-11.56,0l-3.88-5.816C127.04,154.64,116.504,149,104.888,149C86.2,149,71,164.2,71,182.888
		c0,5.232,1.24,10.472,3.576,15.16L103.84,256.576z"/>
	<path style="fill:#DEDFE0;" d="M335.528,291.88l-10.288,12.248C367.032,339.232,391,390.576,391,445c0,101.464-82.544,184-184,184
		S23,546.464,23,445c0-54.424,23.968-105.768,65.76-140.872L78.472,291.88C33.048,330.024,7,385.832,7,445
		c0,110.28,89.72,200,200,200s200-89.72,200-200C407,385.832,380.952,330.024,335.528,291.88z"/>
</g>
<path style="fill:#FC352E;" d="M303,293H111c-13.232,0-24-10.768-24-24s10.768-24,24-24h192c13.232,0,24,10.768,24,24
	S316.232,293,303,293z M111,261c-4.408,0-8,3.592-8,8s3.592,8,8,8h192c4.408,0,8-3.592,8-8s-3.592-8-8-8H111z"/>
</svg>
