<?xml version="1.0" encoding="iso-8859-1"?>
<!-- Generator: Adobe Illustrator 19.0.0, SVG Export Plug-In . SVG Version: 6.00 Build 0)  -->
<svg version="1.1" xmlns="http://www.w3.org/2000/svg" xmlns:xlink="http://www.w3.org/1999/xlink" x="0px" y="0px"
	 viewBox="0 0 496 339.368" style="enable-background:new 0 0 496 339.368;" xml:space="preserve" width="70">
<g id="&#x421;&#x43B;&#x43E;&#x439;_1">
	<g>
		<path style="fill:#DFDFDF;" d="M467.654,0H28.347C12.756,0,0,12.756,0,28.346v282.676c0,15.591,12.756,28.346,28.346,28.346
			h439.307c15.591,0,28.346-12.756,28.346-28.346V28.346C496,12.756,483.244,0,467.654,0z"/>
		<path style="fill:#FFFFFF;" d="M459.091,18.645H36.91c-10.913,0-19.843,8.929-19.843,19.843v263.593
			c0,10.913,8.929,19.843,19.843,19.843h422.181c10.913,0,19.843-8.929,19.843-19.843V38.488
			C478.933,27.574,470.004,18.645,459.091,18.645z"/>
		<rect y="59.767" style="fill:#FC352E;" width="496" height="104.635"/>
		<path style="display:none;" d="M235.2,3.284h-192c-21.168,0-38.4,17.232-38.4,38.4v256c0,21.168,17.232,38.4,38.4,38.4h409.6
			c21.168,0,38.4-17.232,38.4-38.4v-192 M465.6,297.684c0,7.062-5.75,12.8-12.8,12.8H43.2c-7.05,0-12.8-5.738-12.8-12.8v-256
			c0-7.062,5.75-12.8-8.667-12.8h409.6c28.516,0,34.267,5.738,34.267,12.8V297.684z M491.2,105.684v-64
			c0-21.168-17.232-38.4-38.4-38.4l-217.6,0 M414.4,3.284H260.8"/>
		<rect x="376" y="208.084" style="fill:#DFDFDF;" width="51.2" height="25.6"/>
		<rect x="299.2" y="208.084" style="fill:#DFDFDF;" width="51.2" height="25.6"/>
		<rect x="222.4" y="208.084" style="fill:#DFDFDF;" width="51.2" height="25.6"/>
		<rect x="222.4" y="259.284" style="fill:#DFDFDF;" width="204.8" height="25.6"/>
	</g>
	<g>
		<polygon style="fill:#FC352E;" points="129.258,266.184 127.635,273.215 131.933,277.286 148.433,298.752 174.126,298.752 
			153.967,269.049 171.805,241.68 148.369,241.68 132.405,262.509 		"/>
		<path style="fill:#FC352E;" d="M131.92,257.714c-1.441-17.462-14.154-30.328-31.367-30.328c-3.06,0-6.158,0.388-9.282,1.141
			c-3.137,0.746-6.299,1.881-9.513,3.398l0.025-15.562h43.799v-21.772H52.981l0.115,60.113l26.611,0.013
			c3.825-8.836,13.719-9.021,18.144-5.776c4.182,3.086,5.317,9.002,5.648,14.14c0.676,14.23-19.126,22.167-26.866,3.889l-27.3-0.025
			c2.971,10.137,4.833,17.482,13.605,24.068c3.417,2.575,7.574,4.514,12.445,5.814c4.858,1.275,10.723,1.925,17.545,1.925
			c9.512,0,15.632-1.613,21.727-4.871c6.107-3.258,10.749-9.518,12.84-13.535C129.97,275.591,132.341,266.346,131.92,257.714
			L131.92,257.714z"/>
	</g>
</g>
<g id="&#x421;&#x43B;&#x43E;&#x439;_2">
</g>
</svg>
