<?xml version="1.0" encoding="utf-8"?>
<!-- Generator: Adobe Illustrator 19.0.0, SVG Export Plug-In . SVG Version: 6.00 Build 0)  -->
<svg version="1.1" id="Слой_1" xmlns="http://www.w3.org/2000/svg" xmlns:xlink="http://www.w3.org/1999/xlink" x="0px" y="0px"
	 viewBox="0 0 496 496" style="enable-background:new 0 0 496 496;" width="70px" xml:space="preserve">
<style type="text/css">
	.st0{fill:#DFDFDF;}
	.st1{fill:#192D6B;}
	.st2{fill:#FFFFFF;}
	.st3{font-family:'Stolzl-Bold';}
	.st4{font-size:115.5944px;}
</style>
<g>
	<path class="st0" d="M472,16h-48v16h48c4.4,0,8,3.6,8,8v40H144V40c0-4.4,3.6-8,8-8h48V16h-48c-13.2,0-24,10.8-24,24v208.3h16V96
		h336v216c0,4.4-3.6,8-8,8H241.2v16H472c13.2,0,24-10.8,24-24V40C496,26.8,485.2,16,472,16L472,16z M472,16"/>
	<path class="st0" d="M448,288V128H176v133.8h16V240h48v32h-30.4v16H448z M384,272v-32h48v32H384z M320,192h48v32h-48V192z M304,224
		h-48v-32h48V224z M384,192h48v32h-48V192z M432,144v32h-48v-32H432z M368,176h-48v-32h48V176z M304,144v32h-48v-32H304z M240,144
		v32h-48v-32H240z M192,224v-32h48v32H192z M256,240h48v32h-48V240z M320,272v-32h48v32H320z M320,272"/>
	<path class="st1" d="M416,48H208c-8.8,0-16-7.2-16-16V16c0-8.8,7.2-16,16-16h208c8.8,0,16,7.2,16,16v16C432,40.8,424.8,48,416,48
		L416,48z M416,48"/>
	<path class="st1" d="M128,496C57.4,496,0,438.6,0,368s57.4-128,128-128s128,57.4,128,128S198.6,496,128,496L128,496z M128,496"/>
	<path class="st2" d="M128,464c-52.9,0-96-43.1-96-96s43.1-96,96-96s96,43.1,96,96S180.9,464,128,464L128,464z M128,288
		c-44.1,0-80,35.9-80,80c0,44.1,35.9,80,80,80s80-35.9,80-80C208,323.9,172.1,288,128,288L128,288z M128,288"/>
</g>
<text transform="matrix(1 0 0 1 85.7589 411.3624)" class="st2 st3 st4">4</text>
</svg>
