<svg xmlns="http://www.w3.org/2000/svg" xmlns:xlink="http://www.w3.org/1999/xlink" preserveAspectRatio="xMidYMid" width="22.938" height="14.907" viewBox="0 0 22.938 14.907">
  <defs>
    <style>
      .cls-1 {
        fill: #898682;
        fill-rule: evenodd;
      }
    </style>
  </defs>
  <path d="M22.911,7.665 C22.882,7.734 22.840,7.798 22.787,7.852 L15.900,14.729 C15.679,14.951 15.317,14.953 15.093,14.733 C15.092,14.732 15.090,14.730 15.089,14.729 C14.864,14.505 14.864,14.142 15.089,13.918 L20.996,8.019 L0.573,8.019 C0.255,8.018 -0.001,7.762 -0.000,7.446 L-0.000,7.446 C-0.000,7.128 0.257,6.873 0.573,6.873 L20.996,6.873 L15.089,0.973 C14.864,0.749 14.864,0.387 15.089,0.163 C15.311,-0.060 15.673,-0.062 15.897,0.160 C15.898,0.161 15.899,0.161 15.900,0.163 L22.787,7.040 C22.951,7.204 23.000,7.451 22.912,7.665 L22.911,7.665 Z" class="cls-1"/>
</svg>
