<?xml version="1.0" encoding="utf-8"?>
<!-- Generator: Adobe Illustrator 19.0.0, SVG Export Plug-In . SVG Version: 6.00 Build 0)  -->
<svg version="1.1" id="OBJECTS" xmlns="http://www.w3.org/2000/svg" xmlns:xlink="http://www.w3.org/1999/xlink" x="0px" y="0px"
	 viewBox="0 0 500 500" style="enable-background:new 0 0 500 500;" xml:space="preserve">
<style type="text/css">
	.st0{fill:#EDEDED;}
	.st1{fill:#FC352E;}
	.st2{fill:#D31818;}
	.st3{fill:#4B4B4B;}
	.st4{fill:#F9F9F9;}
	.st5{fill:#898682;}
</style>
<g>
	<path class="st0" d="M156.9,81.7l8.3,346h3.8c-0.1-2.5,1.9-4.6,4.4-4.6c2.5,0,4.6,2.1,4.6,4.6h4.1c-0.1-2.5,1.9-4.6,4.4-4.6
		c2.5,0,4.6,2.1,4.6,4.6h4.1c-0.1-2.5,1.9-4.6,4.4-4.6c2.5,0,4.6,2.1,4.6,4.6h4.1c-0.1-2.5,1.9-4.6,4.4-4.6c2.5,0,4.6,2.1,4.6,4.6
		h4.1c-0.1-2.5,1.9-4.6,4.4-4.6c2.5,0,4.6,2.1,4.6,4.6h4.1c-0.1-2.5,1.9-4.6,4.4-4.6s4.6,2.1,4.6,4.6h4.1c-0.1-2.5,1.9-4.6,4.4-4.6
		c2.5,0,4.6,2.1,4.6,4.6h4.1c-0.1-2.5,1.9-4.6,4.4-4.6c2.5,0,4.6,2.1,4.6,4.6h4.1c-0.1-2.5,1.9-4.6,4.4-4.6c2.5,0,4.6,2.1,4.6,4.6
		h4.1c-0.1-2.5,1.9-4.6,4.4-4.6c2.5,0,4.6,2.1,4.6,4.6h4.1c-0.1-2.5,1.9-4.6,4.4-4.6c2.5,0,4.6,2.1,4.6,4.6h4.1
		c-0.1-2.5,1.9-4.6,4.4-4.6c2.5,0,4.6,2.1,4.6,4.6h4.1c-0.1-2.5,1.9-4.6,4.4-4.6c2.5,0,4.6,2.1,4.6,4.6h4.1
		c-0.1-2.5,1.9-4.6,4.4-4.6c2.5,0,4.6,2.1,4.6,4.6h4.1c-0.1-2.5,1.9-4.6,4.4-4.6c2.5,0,4.6,2.1,4.6,4.6h4.1
		c-0.1-2.5,1.9-4.6,4.4-4.6c2.5,0,4.6,2.1,4.6,4.6h3.8c0,0-34.3-155.6-8.1-334.6L156.9,81.7z"/>
	<g>
		<path class="st1" d="M379.9,68.3H120.1c-6.9,0-12.5,5.6-12.5,12.5v0c0,6.9,5.6,12.5,12.5,12.5h259.7c6.9,0,12.5-5.6,12.5-12.5v0
			C392.4,73.9,386.8,68.3,379.9,68.3z"/>
		<polygon class="st2" points="357.2,79 349.3,93.3 371.6,93.3 		"/>
		<polygon class="st2" points="142.8,79 150.7,93.3 128.4,93.3 		"/>
	</g>
	<path class="st3" d="M362.8,78.7H137.2c-1.5,0-2.7,1.2-2.7,2.7c0,1.5,1.2,2.7,2.7,2.7h225.7c1.5,0,2.7-1.2,2.7-2.7
		C365.6,80,364.4,78.7,362.8,78.7z"/>
	<g>
		<path class="st4" d="M142.8,81.7v340.2h3.8c0-2.5,2-4.5,4.5-4.5c2.5,0,4.5,2,4.5,4.5h4.1c0-2.5,2-4.5,4.5-4.5c2.5,0,4.5,2,4.5,4.5
			h4.1c0-2.5,2-4.5,4.5-4.5c2.5,0,4.5,2,4.5,4.5h4.1c0-2.5,2-4.5,4.5-4.5c2.5,0,4.5,2,4.5,4.5h4.1c0-2.5,2-4.5,4.5-4.5
			c2.5,0,4.5,2,4.5,4.5h4.1c0-2.5,2-4.5,4.5-4.5c2.5,0,4.5,2,4.5,4.5h4.1c0-2.5,2-4.5,4.5-4.5c2.5,0,4.5,2,4.5,4.5h4.1
			c0-2.5,2-4.5,4.5-4.5c2.5,0,4.5,2,4.5,4.5h4.1c0-2.5,2-4.5,4.5-4.5c2.5,0,4.5,2,4.5,4.5h4.1c0-2.5,2-4.5,4.5-4.5
			c2.5,0,4.5,2,4.5,4.5h4.1c0-2.5,2-4.5,4.5-4.5c2.5,0,4.5,2,4.5,4.5h4.1c0-2.5,2-4.5,4.5-4.5c2.5,0,4.5,2,4.5,4.5h4.1
			c0-2.5,2-4.5,4.5-4.5c2.5,0,4.5,2,4.5,4.5h4.1c0-2.5,2-4.5,4.5-4.5c2.5,0,4.5,2,4.5,4.5h4.1c0-2.5,2-4.5,4.5-4.5
			c2.5,0,4.5,2,4.5,4.5h4.1c0-2.5,2-4.5,4.5-4.5c2.5,0,4.5,2,4.5,4.5h3.8V81.7H142.8z"/>
		<path class="st3" d="M342,130.6H158c-2.1,0-3.7,1.7-3.7,3.7c0,2.1,1.7,3.7,3.7,3.7H342c2.1,0,3.7-1.7,3.7-3.7
			C345.7,132.3,344,130.6,342,130.6z"/>
		<path class="st3" d="M342,356.6H158c-2.1,0-3.7,1.7-3.7,3.7c0,2.1,1.7,3.7,3.7,3.7H342c2.1,0,3.7-1.7,3.7-3.7
			C345.7,358.2,344,356.6,342,356.6z"/>
		<path class="st5" d="M301.3,378.5H198.7c-1.1,0-2.1,0.9-2.1,2.1s0.9,2.1,2.1,2.1h102.6c1.1,0,2.1-0.9,2.1-2.1
			S302.4,378.5,301.3,378.5z"/>
		<g>
			<path class="st5" d="M279.1,388.3h-12.9c-1.1,0-2.1,0.9-2.1,2.1c0,1.1,0.9,2.1,2.1,2.1h12.9c1.1,0,2.1-0.9,2.1-2.1
				C281.1,389.2,280.2,388.3,279.1,388.3z"/>
			<path class="st5" d="M255.8,388.3h-34.9c-1.1,0-2.1,0.9-2.1,2.1c0,1.1,0.9,2.1,2.1,2.1h34.9c1.1,0,2.1-0.9,2.1-2.1
				C257.9,389.2,256.9,388.3,255.8,388.3z"/>
		</g>
		<g>
			<g>
				<path class="st5" d="M340.2,150.2h-3.7v-1.9h3.7V150.2z M332.8,150.2h-3.7v-1.9h3.7V150.2z M325.4,150.2h-3.7v-1.9h3.7V150.2z
					 M318.1,150.2h-3.7v-1.9h3.7V150.2z M310.7,150.2H307v-1.9h3.7V150.2z M303.4,150.2h-3.7v-1.9h3.7V150.2z M296,150.2h-3.7v-1.9
					h3.7V150.2z M288.6,150.2H285v-1.9h3.7V150.2z M281.3,150.2h-3.7v-1.9h3.7V150.2z M273.9,150.2h-3.7v-1.9h3.7V150.2z
					 M266.6,150.2h-3.7v-1.9h3.7V150.2z M259.2,150.2h-3.7v-1.9h3.7V150.2z M251.8,150.2h-3.7v-1.9h3.7V150.2z M244.5,150.2h-3.7
					v-1.9h3.7V150.2z M237.1,150.2h-3.7v-1.9h3.7V150.2z M229.8,150.2h-3.7v-1.9h3.7V150.2z M222.4,150.2h-3.7v-1.9h3.7V150.2z
					 M215,150.2h-3.7v-1.9h3.7V150.2z M207.7,150.2H204v-1.9h3.7V150.2z M200.3,150.2h-3.7v-1.9h3.7V150.2z M193,150.2h-3.7v-1.9
					h3.7V150.2z M185.6,150.2h-3.7v-1.9h3.7V150.2z M178.2,150.2h-3.7v-1.9h3.7V150.2z M170.9,150.2h-3.7v-1.9h3.7V150.2z
					 M163.5,150.2h-3.7v-1.9h3.7V150.2z"/>
			</g>
		</g>
		<g>
			<g>
				<path class="st5" d="M340.2,316h-3.7v-1.9h3.7V316z M332.8,316h-3.7v-1.9h3.7V316z M325.4,316h-3.7v-1.9h3.7V316z M318.1,316
					h-3.7v-1.9h3.7V316z M310.7,316H307v-1.9h3.7V316z M303.4,316h-3.7v-1.9h3.7V316z M296,316h-3.7v-1.9h3.7V316z M288.6,316H285
					v-1.9h3.7V316z M281.3,316h-3.7v-1.9h3.7V316z M273.9,316h-3.7v-1.9h3.7V316z M266.6,316h-3.7v-1.9h3.7V316z M259.2,316h-3.7
					v-1.9h3.7V316z M251.8,316h-3.7v-1.9h3.7V316z M244.5,316h-3.7v-1.9h3.7V316z M237.1,316h-3.7v-1.9h3.7V316z M229.8,316h-3.7
					v-1.9h3.7V316z M222.4,316h-3.7v-1.9h3.7V316z M215,316h-3.7v-1.9h3.7V316z M207.7,316H204v-1.9h3.7V316z M200.3,316h-3.7v-1.9
					h3.7V316z M193,316h-3.7v-1.9h3.7V316z M185.6,316h-3.7v-1.9h3.7V316z M178.2,316h-3.7v-1.9h3.7V316z M170.9,316h-3.7v-1.9h3.7
					V316z M163.5,316h-3.7v-1.9h3.7V316z"/>
			</g>
		</g>
		<g>
			<g>
				<path class="st5" d="M340.2,340.4h-3.7v-1.9h3.7V340.4z M332.8,340.4h-3.7v-1.9h3.7V340.4z M325.4,340.4h-3.7v-1.9h3.7V340.4z
					 M318.1,340.4h-3.7v-1.9h3.7V340.4z M310.7,340.4H307v-1.9h3.7V340.4z M303.4,340.4h-3.7v-1.9h3.7V340.4z M296,340.4h-3.7v-1.9
					h3.7V340.4z M288.6,340.4H285v-1.9h3.7V340.4z M281.3,340.4h-3.7v-1.9h3.7V340.4z M273.9,340.4h-3.7v-1.9h3.7V340.4z
					 M266.6,340.4h-3.7v-1.9h3.7V340.4z M259.2,340.4h-3.7v-1.9h3.7V340.4z M251.8,340.4h-3.7v-1.9h3.7V340.4z M244.5,340.4h-3.7
					v-1.9h3.7V340.4z M237.1,340.4h-3.7v-1.9h3.7V340.4z M229.8,340.4h-3.7v-1.9h3.7V340.4z M222.4,340.4h-3.7v-1.9h3.7V340.4z
					 M215,340.4h-3.7v-1.9h3.7V340.4z M207.7,340.4H204v-1.9h3.7V340.4z M200.3,340.4h-3.7v-1.9h3.7V340.4z M193,340.4h-3.7v-1.9
					h3.7V340.4z M185.6,340.4h-3.7v-1.9h3.7V340.4z M178.2,340.4h-3.7v-1.9h3.7V340.4z M170.9,340.4h-3.7v-1.9h3.7V340.4z
					 M163.5,340.4h-3.7v-1.9h3.7V340.4z"/>
			</g>
		</g>
		<g>
			<g>
				<path class="st5" d="M245.5,170.1h-21.7c-1.3,0-2.3-1-2.3-2.3c0-1.3,1-2.3,2.3-2.3h21.7c1.3,0,2.3,1,2.3,2.3
					C247.9,169.1,246.8,170.1,245.5,170.1z"/>
			</g>
			<g>
				<path class="st5" d="M341.8,170.1h-21.7c-1.3,0-2.3-1-2.3-2.3c0-1.3,1-2.3,2.3-2.3h21.7c1.3,0,2.3,1,2.3,2.3
					C344.1,169.1,343.1,170.1,341.8,170.1z"/>
			</g>
			<g>
				<path class="st5" d="M212.4,170.1H158c-1.3,0-2.3-1-2.3-2.3c0-1.3,1-2.3,2.3-2.3h54.5c1.3,0,2.3,1,2.3,2.3
					C214.8,169.1,213.7,170.1,212.4,170.1z"/>
			</g>
			<g>
				<path class="st5" d="M341.8,188.8h-21.7c-1.3,0-2.3-1-2.3-2.3c0-1.3,1-2.3,2.3-2.3h21.7c1.3,0,2.3,1,2.3,2.3
					C344.1,187.8,343.1,188.8,341.8,188.8z"/>
			</g>
			<g>
				<path class="st5" d="M232.7,188.8H158c-1.3,0-2.3-1-2.3-2.3c0-1.3,1-2.3,2.3-2.3h74.7c1.3,0,2.3,1,2.3,2.3
					C235,187.8,234,188.8,232.7,188.8z"/>
			</g>
			<g>
				<path class="st5" d="M341.8,207.4h-21.7c-1.3,0-2.3-1-2.3-2.3c0-1.3,1-2.3,2.3-2.3h21.7c1.3,0,2.3,1,2.3,2.3
					C344.1,206.4,343.1,207.4,341.8,207.4z"/>
			</g>
			<g>
				<path class="st5" d="M258,207.4h-63.6c-1.3,0-2.3-1-2.3-2.3c0-1.3,1-2.3,2.3-2.3H258c1.3,0,2.3,1,2.3,2.3
					C260.4,206.4,259.3,207.4,258,207.4z"/>
			</g>
			<g>
				<path class="st5" d="M183.5,207.4H158c-1.3,0-2.3-1-2.3-2.3c0-1.3,1-2.3,2.3-2.3h25.5c1.3,0,2.3,1,2.3,2.3
					C185.8,206.4,184.8,207.4,183.5,207.4z"/>
			</g>
			<g>
				<path class="st5" d="M341.8,226.1h-21.7c-1.3,0-2.3-1-2.3-2.3c0-1.3,1-2.3,2.3-2.3h21.7c1.3,0,2.3,1,2.3,2.3
					C344.1,225.1,343.1,226.1,341.8,226.1z"/>
			</g>
			<g>
				<path class="st5" d="M242.6,226.1H158c-1.3,0-2.3-1-2.3-2.3c0-1.3,1-2.3,2.3-2.3h84.7c1.3,0,2.3,1,2.3,2.3
					C245,225.1,243.9,226.1,242.6,226.1z"/>
			</g>
			<g>
				<path class="st5" d="M341.8,244.7h-21.7c-1.3,0-2.3-1-2.3-2.3s1-2.3,2.3-2.3h21.7c1.3,0,2.3,1,2.3,2.3S343.1,244.7,341.8,244.7z
					"/>
			</g>
			<g>
				<path class="st5" d="M198.5,244.7H158c-1.3,0-2.3-1-2.3-2.3s1-2.3,2.3-2.3h40.5c1.3,0,2.3,1,2.3,2.3S199.8,244.7,198.5,244.7z"
					/>
			</g>
			<g>
				<path class="st5" d="M341.8,263.4h-21.7c-1.3,0-2.3-1-2.3-2.3c0-1.3,1-2.3,2.3-2.3h21.7c1.3,0,2.3,1,2.3,2.3
					C344.1,262.4,343.1,263.4,341.8,263.4z"/>
			</g>
			<g>
				<path class="st5" d="M220.6,263.4H158c-1.3,0-2.3-1-2.3-2.3c0-1.3,1-2.3,2.3-2.3h62.6c1.3,0,2.3,1,2.3,2.3
					C222.9,262.4,221.8,263.4,220.6,263.4z"/>
			</g>
			<g>
				<path class="st5" d="M341.8,282.1h-21.7c-1.3,0-2.3-1-2.3-2.3c0-1.3,1-2.3,2.3-2.3h21.7c1.3,0,2.3,1,2.3,2.3
					C344.1,281,343.1,282.1,341.8,282.1z"/>
			</g>
			<g>
				<path class="st5" d="M212.4,282.1h-32.1c-1.3,0-2.3-1-2.3-2.3c0-1.3,1-2.3,2.3-2.3h32.1c1.3,0,2.3,1,2.3,2.3
					C214.8,281,213.7,282.1,212.4,282.1z"/>
			</g>
			<g>
				<path class="st5" d="M168.7,282.1H158c-1.3,0-2.3-1-2.3-2.3c0-1.3,1-2.3,2.3-2.3h10.7c1.3,0,2.3,1,2.3,2.3
					C171,281,170,282.1,168.7,282.1z"/>
			</g>
			<g>
				<path class="st5" d="M341.8,300.7h-21.7c-1.3,0-2.3-1-2.3-2.3c0-1.3,1-2.3,2.3-2.3h21.7c1.3,0,2.3,1,2.3,2.3
					C344.1,299.7,343.1,300.7,341.8,300.7z"/>
			</g>
			<g>
				<path class="st5" d="M281.3,300.7h-36.8c-1.3,0-2.3-1-2.3-2.3c0-1.3,1-2.3,2.3-2.3h36.8c1.3,0,2.3,1,2.3,2.3
					C283.6,299.7,282.6,300.7,281.3,300.7z"/>
			</g>
			<g>
				<path class="st5" d="M227.9,300.7H158c-1.3,0-2.3-1-2.3-2.3c0-1.3,1-2.3,2.3-2.3h69.9c1.3,0,2.3,1,2.3,2.3
					C230.3,299.7,229.2,300.7,227.9,300.7z"/>
			</g>
			<g>
				<g>
					<path class="st3" d="M341.8,329.8H319c-1.3,0-2.3-1-2.3-2.3s1-2.3,2.3-2.3h22.8c1.3,0,2.3,1,2.3,2.3S343.1,329.8,341.8,329.8z"
						/>
				</g>
			</g>
			<g>
				<g>
					<path class="st3" d="M308.8,329.8h-11.6c-1.3,0-2.3-1-2.3-2.3s1-2.3,2.3-2.3h11.6c1.3,0,2.3,1,2.3,2.3S310.1,329.8,308.8,329.8
						z"/>
				</g>
			</g>
			<g>
				<g>
					<path class="st3" d="M227.9,329.8H158c-1.3,0-2.3-1-2.3-2.3s1-2.3,2.3-2.3h69.9c1.3,0,2.3,1,2.3,2.3S229.2,329.8,227.9,329.8z"
						/>
				</g>
			</g>
		</g>
	</g>
</g>
<path class="st3" d="M342,116.6H158c-2.1,0-3.7,1.7-3.7,3.7c0,2.1,1.7,3.7,3.7,3.7H342c2.1,0,3.7-1.7,3.7-3.7
	C345.7,118.3,344,116.6,342,116.6z"/>
<path class="st3" d="M342,101.6H158c-2.1,0-3.7,1.7-3.7,3.7c0,2.1,1.7,3.7,3.7,3.7H342c2.1,0,3.7-1.7,3.7-3.7
	C345.7,103.3,344,101.6,342,101.6z"/>
</svg>
