<?xml version="1.0" encoding="utf-8"?>
<!-- Generator: Adobe Illustrator 19.0.0, SVG Export Plug-In . SVG Version: 6.00 Build 0)  -->
<svg version="1.1" id="OBJECTS" xmlns="http://www.w3.org/2000/svg" xmlns:xlink="http://www.w3.org/1999/xlink" x="0px" y="0px"
	 viewBox="0 0 284.7 359.4" style="enable-background:new 0 0 284.7 359.4;" xml:space="preserve" width="270">
<style type="text/css">
	.st0{fill:#EDEDED;}
	.st1{fill:#FC352E;}
	.st2{fill:#D31818;}
	.st3{fill:#4B4B4B;}
	.st4{fill:#F9F9F9;}
	.st5{fill:#898682;}
</style>
<g>
	<path class="st0" d="M49.2,13.4l8.3,346h3.8c-0.1-2.5,1.9-4.6,4.4-4.6c2.5,0,4.6,2.1,4.6,4.6h4.1c-0.1-2.5,1.9-4.6,4.4-4.6
		c2.5,0,4.6,2.1,4.6,4.6h4.1c-0.1-2.5,1.9-4.6,4.4-4.6s4.6,2.1,4.6,4.6h4.1c-0.1-2.5,1.9-4.6,4.4-4.6c2.5,0,4.6,2.1,4.6,4.6h4.1
		c-0.1-2.5,1.9-4.6,4.4-4.6c2.5,0,4.6,2.1,4.6,4.6h4.1c-0.1-2.5,1.9-4.6,4.4-4.6s4.6,2.1,4.6,4.6h4.1c-0.1-2.5,1.9-4.6,4.4-4.6
		c2.5,0,4.6,2.1,4.6,4.6h4.1c-0.1-2.5,1.9-4.6,4.4-4.6c2.5,0,4.6,2.1,4.6,4.6h4.1c-0.1-2.5,1.9-4.6,4.4-4.6c2.5,0,4.6,2.1,4.6,4.6
		h4.1c-0.1-2.5,1.9-4.6,4.4-4.6s4.6,2.1,4.6,4.6h4.1c-0.1-2.5,1.9-4.6,4.4-4.6s4.6,2.1,4.6,4.6h4.1c-0.1-2.5,1.9-4.6,4.4-4.6
		c2.5,0,4.6,2.1,4.6,4.6h4.1c-0.1-2.5,1.9-4.6,4.4-4.6s4.6,2.1,4.6,4.6h4.1c-0.1-2.5,1.9-4.6,4.4-4.6c2.5,0,4.6,2.1,4.6,4.6h4.1
		c-0.1-2.5,1.9-4.6,4.4-4.6c2.5,0,4.6,2.1,4.6,4.6h4.1c-0.1-2.5,1.9-4.6,4.4-4.6c2.5,0,4.6,2.1,4.6,4.6h3.8
		c0,0-34.3-155.6-8.1-334.6L49.2,13.4z"/>
	<g>
		<path class="st1" d="M272.2,0H12.5C5.6,0,0,5.6,0,12.5v0C0,19.4,5.6,25,12.5,25h259.7c6.9,0,12.5-5.6,12.5-12.5v0
			C284.7,5.6,279.1,0,272.2,0z"/>
		<polygon class="st2" points="249.6,10.6 241.7,25 263.9,25 		"/>
		<polygon class="st2" points="35.2,10.6 43.1,25 20.8,25 		"/>
	</g>
	<path class="st3" d="M255.2,10.4H29.5c-1.5,0-2.7,1.2-2.7,2.7c0,1.5,1.2,2.7,2.7,2.7h225.7c1.5,0,2.7-1.2,2.7-2.7
		C257.9,11.6,256.7,10.4,255.2,10.4z"/>
	<g>
		<path class="st4" d="M35.2,13.4v340.2H39c0-2.5,2-4.5,4.5-4.5c2.5,0,4.5,2,4.5,4.5h4.1c0-2.5,2-4.5,4.5-4.5c2.5,0,4.5,2,4.5,4.5
			h4.1c0-2.5,2-4.5,4.5-4.5c2.5,0,4.5,2,4.5,4.5h4.1c0-2.5,2-4.5,4.5-4.5c2.5,0,4.5,2,4.5,4.5h4.1c0-2.5,2-4.5,4.5-4.5
			c2.5,0,4.5,2,4.5,4.5h4.1c0-2.5,2-4.5,4.5-4.5c2.5,0,4.5,2,4.5,4.5h4.1c0-2.5,2-4.5,4.5-4.5c2.5,0,4.5,2,4.5,4.5h4.1
			c0-2.5,2-4.5,4.5-4.5c2.5,0,4.5,2,4.5,4.5h4.1c0-2.5,2-4.5,4.5-4.5c2.5,0,4.5,2,4.5,4.5h4.1c0-2.5,2-4.5,4.5-4.5
			c2.5,0,4.5,2,4.5,4.5h4.1c0-2.5,2-4.5,4.5-4.5c2.5,0,4.5,2,4.5,4.5h4.1c0-2.5,2-4.5,4.5-4.5c2.5,0,4.5,2,4.5,4.5h4.1
			c0-2.5,2-4.5,4.5-4.5c2.5,0,4.5,2,4.5,4.5h4.1c0-2.5,2-4.5,4.5-4.5c2.5,0,4.5,2,4.5,4.5h4.1c0-2.5,2-4.5,4.5-4.5
			c2.5,0,4.5,2,4.5,4.5h4.1c0-2.5,2-4.5,4.5-4.5c2.5,0,4.5,2,4.5,4.5h3.8V13.4H35.2z"/>
		<path class="st3" d="M234.3,62.2H50.4c-2.1,0-3.7,1.7-3.7,3.7c0,2.1,1.7,3.7,3.7,3.7h183.9c2.1,0,3.7-1.7,3.7-3.7
			C238.1,63.9,236.4,62.2,234.3,62.2z"/>
		<path class="st3" d="M234.3,288.2H50.4c-2.1,0-3.7,1.7-3.7,3.7c0,2.1,1.7,3.7,3.7,3.7h183.9c2.1,0,3.7-1.7,3.7-3.7
			C238.1,289.9,236.4,288.2,234.3,288.2z"/>
		<path class="st5" d="M193.6,310.2H91.1c-1.1,0-2.1,0.9-2.1,2.1c0,1.1,0.9,2.1,2.1,2.1h102.6c1.1,0,2.1-0.9,2.1-2.1
			C195.7,311.1,194.8,310.2,193.6,310.2z"/>
		<g>
			<path class="st5" d="M171.4,319.9h-12.9c-1.1,0-2.1,0.9-2.1,2.1c0,1.1,0.9,2.1,2.1,2.1h12.9c1.1,0,2.1-0.9,2.1-2.1
				C173.5,320.9,172.6,319.9,171.4,319.9z"/>
			<path class="st5" d="M148.2,319.9h-34.9c-1.1,0-2.1,0.9-2.1,2.1c0,1.1,0.9,2.1,2.1,2.1h34.9c1.1,0,2.1-0.9,2.1-2.1
				C150.2,320.9,149.3,319.9,148.2,319.9z"/>
		</g>
		<g>
			<g>
				<path class="st5" d="M232.5,81.8h-3.7V80h3.7V81.8z M225.2,81.8h-3.7V80h3.7V81.8z M217.8,81.8h-3.7V80h3.7V81.8z M210.4,81.8
					h-3.7V80h3.7V81.8z M203.1,81.8h-3.7V80h3.7V81.8z M195.7,81.8H192V80h3.7V81.8z M188.4,81.8h-3.7V80h3.7V81.8z M181,81.8h-3.7
					V80h3.7V81.8z M173.6,81.8H170V80h3.7V81.8z M166.3,81.8h-3.7V80h3.7V81.8z M158.9,81.8h-3.7V80h3.7V81.8z M151.6,81.8h-3.7V80
					h3.7V81.8z M144.2,81.8h-3.7V80h3.7V81.8z M136.8,81.8h-3.7V80h3.7V81.8z M129.5,81.8h-3.7V80h3.7V81.8z M122.1,81.8h-3.7V80
					h3.7V81.8z M114.8,81.8h-3.7V80h3.7V81.8z M107.4,81.8h-3.7V80h3.7V81.8z M100,81.8h-3.7V80h3.7V81.8z M92.7,81.8H89V80h3.7
					V81.8z M85.3,81.8h-3.7V80h3.7V81.8z M78,81.8h-3.7V80H78V81.8z M70.6,81.8h-3.7V80h3.7V81.8z M63.2,81.8h-3.7V80h3.7V81.8z
					 M55.9,81.8h-3.7V80h3.7V81.8z"/>
			</g>
		</g>
		<g>
			<g>
				<path class="st5" d="M232.5,247.7h-3.7v-1.9h3.7V247.7z M225.2,247.7h-3.7v-1.9h3.7V247.7z M217.8,247.7h-3.7v-1.9h3.7V247.7z
					 M210.4,247.7h-3.7v-1.9h3.7V247.7z M203.1,247.7h-3.7v-1.9h3.7V247.7z M195.7,247.7H192v-1.9h3.7V247.7z M188.4,247.7h-3.7
					v-1.9h3.7V247.7z M181,247.7h-3.7v-1.9h3.7V247.7z M173.6,247.7H170v-1.9h3.7V247.7z M166.3,247.7h-3.7v-1.9h3.7V247.7z
					 M158.9,247.7h-3.7v-1.9h3.7V247.7z M151.6,247.7h-3.7v-1.9h3.7V247.7z M144.2,247.7h-3.7v-1.9h3.7V247.7z M136.8,247.7h-3.7
					v-1.9h3.7V247.7z M129.5,247.7h-3.7v-1.9h3.7V247.7z M122.1,247.7h-3.7v-1.9h3.7V247.7z M114.8,247.7h-3.7v-1.9h3.7V247.7z
					 M107.4,247.7h-3.7v-1.9h3.7V247.7z M100,247.7h-3.7v-1.9h3.7V247.7z M92.7,247.7H89v-1.9h3.7V247.7z M85.3,247.7h-3.7v-1.9h3.7
					V247.7z M78,247.7h-3.7v-1.9H78V247.7z M70.6,247.7h-3.7v-1.9h3.7V247.7z M63.2,247.7h-3.7v-1.9h3.7V247.7z M55.9,247.7h-3.7
					v-1.9h3.7V247.7z"/>
			</g>
		</g>
		<g>
			<g>
				<path class="st5" d="M232.5,272.1h-3.7v-1.9h3.7V272.1z M225.2,272.1h-3.7v-1.9h3.7V272.1z M217.8,272.1h-3.7v-1.9h3.7V272.1z
					 M210.4,272.1h-3.7v-1.9h3.7V272.1z M203.1,272.1h-3.7v-1.9h3.7V272.1z M195.7,272.1H192v-1.9h3.7V272.1z M188.4,272.1h-3.7
					v-1.9h3.7V272.1z M181,272.1h-3.7v-1.9h3.7V272.1z M173.6,272.1H170v-1.9h3.7V272.1z M166.3,272.1h-3.7v-1.9h3.7V272.1z
					 M158.9,272.1h-3.7v-1.9h3.7V272.1z M151.6,272.1h-3.7v-1.9h3.7V272.1z M144.2,272.1h-3.7v-1.9h3.7V272.1z M136.8,272.1h-3.7
					v-1.9h3.7V272.1z M129.5,272.1h-3.7v-1.9h3.7V272.1z M122.1,272.1h-3.7v-1.9h3.7V272.1z M114.8,272.1h-3.7v-1.9h3.7V272.1z
					 M107.4,272.1h-3.7v-1.9h3.7V272.1z M100,272.1h-3.7v-1.9h3.7V272.1z M92.7,272.1H89v-1.9h3.7V272.1z M85.3,272.1h-3.7v-1.9h3.7
					V272.1z M78,272.1h-3.7v-1.9H78V272.1z M70.6,272.1h-3.7v-1.9h3.7V272.1z M63.2,272.1h-3.7v-1.9h3.7V272.1z M55.9,272.1h-3.7
					v-1.9h3.7V272.1z"/>
			</g>
		</g>
		<g>
			<g>
				<path class="st5" d="M137.9,101.8h-21.7c-1.3,0-2.3-1-2.3-2.3c0-1.3,1-2.3,2.3-2.3h21.7c1.3,0,2.3,1,2.3,2.3
					C140.2,100.8,139.2,101.8,137.9,101.8z"/>
			</g>
			<g>
				<path class="st5" d="M234.2,101.8h-21.7c-1.3,0-2.3-1-2.3-2.3c0-1.3,1-2.3,2.3-2.3h21.7c1.3,0,2.3,1,2.3,2.3
					C236.5,100.8,235.5,101.8,234.2,101.8z"/>
			</g>
			<g>
				<path class="st5" d="M104.8,101.8H50.3c-1.3,0-2.3-1-2.3-2.3c0-1.3,1-2.3,2.3-2.3h54.5c1.3,0,2.3,1,2.3,2.3
					C107.1,100.8,106.1,101.8,104.8,101.8z"/>
			</g>
			<g>
				<path class="st5" d="M234.2,120.4h-21.7c-1.3,0-2.3-1-2.3-2.3c0-1.3,1-2.3,2.3-2.3h21.7c1.3,0,2.3,1,2.3,2.3
					C236.5,119.4,235.5,120.4,234.2,120.4z"/>
			</g>
			<g>
				<path class="st5" d="M125,120.4H50.3c-1.3,0-2.3-1-2.3-2.3c0-1.3,1-2.3,2.3-2.3H125c1.3,0,2.3,1,2.3,2.3
					C127.4,119.4,126.3,120.4,125,120.4z"/>
			</g>
			<g>
				<path class="st5" d="M234.2,139.1h-21.7c-1.3,0-2.3-1-2.3-2.3c0-1.3,1-2.3,2.3-2.3h21.7c1.3,0,2.3,1,2.3,2.3
					C236.5,138.1,235.5,139.1,234.2,139.1z"/>
			</g>
			<g>
				<path class="st5" d="M150.4,139.1H86.8c-1.3,0-2.3-1-2.3-2.3c0-1.3,1-2.3,2.3-2.3h63.6c1.3,0,2.3,1,2.3,2.3
					C152.7,138.1,151.7,139.1,150.4,139.1z"/>
			</g>
			<g>
				<path class="st5" d="M75.9,139.1H50.3c-1.3,0-2.3-1-2.3-2.3c0-1.3,1-2.3,2.3-2.3h25.5c1.3,0,2.3,1,2.3,2.3
					C78.2,138.1,77.2,139.1,75.9,139.1z"/>
			</g>
			<g>
				<path class="st5" d="M234.2,157.8h-21.7c-1.3,0-2.3-1-2.3-2.3c0-1.3,1-2.3,2.3-2.3h21.7c1.3,0,2.3,1,2.3,2.3
					C236.5,156.7,235.5,157.8,234.2,157.8z"/>
			</g>
			<g>
				<path class="st5" d="M135,157.8H50.3c-1.3,0-2.3-1-2.3-2.3c0-1.3,1-2.3,2.3-2.3H135c1.3,0,2.3,1,2.3,2.3
					C137.3,156.7,136.3,157.8,135,157.8z"/>
			</g>
			<g>
				<path class="st5" d="M234.2,176.4h-21.7c-1.3,0-2.3-1-2.3-2.3c0-1.3,1-2.3,2.3-2.3h21.7c1.3,0,2.3,1,2.3,2.3
					C236.5,175.4,235.5,176.4,234.2,176.4z"/>
			</g>
			<g>
				<path class="st5" d="M90.8,176.4H50.3c-1.3,0-2.3-1-2.3-2.3c0-1.3,1-2.3,2.3-2.3h40.5c1.3,0,2.3,1,2.3,2.3
					C93.2,175.4,92.1,176.4,90.8,176.4z"/>
			</g>
			<g>
				<path class="st5" d="M234.2,195.1h-21.7c-1.3,0-2.3-1-2.3-2.3s1-2.3,2.3-2.3h21.7c1.3,0,2.3,1,2.3,2.3S235.5,195.1,234.2,195.1z
					"/>
			</g>
			<g>
				<path class="st5" d="M112.9,195.1H50.3c-1.3,0-2.3-1-2.3-2.3s1-2.3,2.3-2.3h62.6c1.3,0,2.3,1,2.3,2.3S114.2,195.1,112.9,195.1z"
					/>
			</g>
			<g>
				<path class="st5" d="M234.2,213.7h-21.7c-1.3,0-2.3-1-2.3-2.3c0-1.3,1-2.3,2.3-2.3h21.7c1.3,0,2.3,1,2.3,2.3
					C236.5,212.7,235.5,213.7,234.2,213.7z"/>
			</g>
			<g>
				<path class="st5" d="M104.8,213.7H72.7c-1.3,0-2.3-1-2.3-2.3c0-1.3,1-2.3,2.3-2.3h32.1c1.3,0,2.3,1,2.3,2.3
					C107.1,212.7,106.1,213.7,104.8,213.7z"/>
			</g>
			<g>
				<path class="st5" d="M61.1,213.7H50.3c-1.3,0-2.3-1-2.3-2.3c0-1.3,1-2.3,2.3-2.3h10.7c1.3,0,2.3,1,2.3,2.3
					C63.4,212.7,62.4,213.7,61.1,213.7z"/>
			</g>
			<g>
				<path class="st5" d="M234.2,232.4h-21.7c-1.3,0-2.3-1-2.3-2.3c0-1.3,1-2.3,2.3-2.3h21.7c1.3,0,2.3,1,2.3,2.3
					C236.5,231.3,235.5,232.4,234.2,232.4z"/>
			</g>
			<g>
				<path class="st5" d="M173.6,232.4h-36.8c-1.3,0-2.3-1-2.3-2.3c0-1.3,1-2.3,2.3-2.3h36.8c1.3,0,2.3,1,2.3,2.3
					C176,231.3,174.9,232.4,173.6,232.4z"/>
			</g>
			<g>
				<path class="st5" d="M120.3,232.4H50.3c-1.3,0-2.3-1-2.3-2.3c0-1.3,1-2.3,2.3-2.3h69.9c1.3,0,2.3,1,2.3,2.3
					C122.6,231.3,121.6,232.4,120.3,232.4z"/>
			</g>
			<g>
				<g>
					<path class="st3" d="M234.2,261.5h-22.8c-1.3,0-2.3-1-2.3-2.3c0-1.3,1-2.3,2.3-2.3h22.8c1.3,0,2.3,1,2.3,2.3
						C236.5,260.5,235.5,261.5,234.2,261.5z"/>
				</g>
			</g>
			<g>
				<g>
					<path class="st3" d="M201.2,261.5h-11.6c-1.3,0-2.3-1-2.3-2.3c0-1.3,1-2.3,2.3-2.3h11.6c1.3,0,2.3,1,2.3,2.3
						C203.5,260.5,202.4,261.5,201.2,261.5z"/>
				</g>
			</g>
			<g>
				<g>
					<path class="st3" d="M120.3,261.5H50.3c-1.3,0-2.3-1-2.3-2.3c0-1.3,1-2.3,2.3-2.3h69.9c1.3,0,2.3,1,2.3,2.3
						C122.6,260.5,121.6,261.5,120.3,261.5z"/>
				</g>
			</g>
		</g>
	</g>
</g>
<path class="st3" d="M234.3,48.2H50.4c-2.1,0-3.7,1.7-3.7,3.7c0,2.1,1.7,3.7,3.7,3.7h183.9c2.1,0,3.7-1.7,3.7-3.7
	C238.1,49.9,236.4,48.2,234.3,48.2z"/>
<path class="st3" d="M234.3,33.2H50.4c-2.1,0-3.7,1.7-3.7,3.7c0,2.1,1.7,3.7,3.7,3.7h183.9c2.1,0,3.7-1.7,3.7-3.7
	C238.1,34.9,236.4,33.2,234.3,33.2z"/>
</svg>
