<?xml version="1.0" encoding="utf-8"?>
<!-- Generator: Adobe Illustrator 19.0.0, SVG Export Plug-In . SVG Version: 6.00 Build 0)  -->
<svg version="1.1" id="Слой_1" xmlns="http://www.w3.org/2000/svg" xmlns:xlink="http://www.w3.org/1999/xlink" x="0px" y="0px"
	 viewBox="0 0 496 496" style="enable-background:new 0 0 496 496;" xml:space="preserve" width="60">
<style type="text/css">
	.st0{fill:#FC352E;}
	.st1{fill:#DEDFE0;}
</style>
<path class="st0" d="M248,64C146.5,64,64,146.5,64,248s82.5,184,184,184s184-82.5,184-184S349.5,64,248,64L248,64z M248,392
	c-79.5,0-144-64.5-144-144s64.5-144,144-144s144,64.5,144,144S327.5,392,248,392L248,392z M248,392"/>
<path class="st1" d="M248,0C111.2,0,0,111.3,0,248s111.2,248,248,248s248-111.3,248-248S384.8,0,248,0L248,0z M479.8,256
	c-0.9,25.7-5.9,50.4-14.5,73.3l-29.4-12.2l-6.1,14.8l29.4,12.2c-10.5,22.9-24.6,43.9-41.6,62.1l-22.4-22.4l-11.3,11.3l22.4,22.4
	c-18.2,17-39.2,31.1-62.1,41.6l-12.2-29.4l-14.8,6.1l12.2,29.4c-23,8.6-47.6,13.7-73.3,14.5V448h-16v31.8
	c-25.7-0.9-50.4-5.9-73.3-14.5l12.2-29.4l-14.8-6.1l-12.2,29.4c-22.9-10.5-43.9-24.6-62.1-41.6l22.4-22.4l-11.3-11.3l-22.4,22.4
	c-17-18.2-31.1-39.2-41.6-62.1l29.4-12.2l-6.1-14.8l-29.4,12.2c-8.6-23-13.7-47.6-14.5-73.3H48v-16H16.2
	c0.9-25.7,5.9-50.4,14.5-73.3l29.4,12.2l6.1-14.8l-29.4-12.2C47.4,129,61.5,108,78.5,89.8l22.4,22.4l11.3-11.3L89.8,78.5
	c18.2-17,39.2-31.1,62.1-41.6l12.2,29.4l14.8-6.1l-12.2-29.4c23-8.6,47.6-13.7,73.3-14.5V48h16V16.2c25.7,0.9,50.4,5.9,73.3,14.5
	l-12.2,29.4l14.8,6.1l12.2-29.4C367,47.4,388,61.5,406.2,78.5l-22.4,22.4l11.3,11.3l22.4-22.4c17,18.2,31.1,39.2,41.6,62.1
	l-29.4,12.2l6.1,14.8l29.4-12.2c8.6,23,13.7,47.6,14.5,73.3H448v16H479.8z M479.8,256"/>
<path class="st0" d="M248,96c-83.8,0-152,68.2-152,152s68.2,152,152,152s152-68.2,152-152S331.8,96,248,96L248,96z M360.9,172.3
	l-85,37.3l9.2-92.4C316.4,126.2,343.2,145.9,360.9,172.3L360.9,172.3z M248,272c-13.2,0-24-10.8-24-24c0-13.2,10.8-24,24-24
	c13.2,0,24,10.8,24,24C272,261.2,261.2,272,248,272L248,272z M210.9,117.3l9.2,92.4l-85-37.3C152.8,145.9,179.6,126.2,210.9,117.3
	L210.9,117.3z M112.3,242.9l90.6,19.7l-61.7,69.2C123,308.8,112,279.7,112,248C112,246.3,112.2,244.6,112.3,242.9L112.3,242.9z
	 M201.2,375.5l46.8-80.1l46.8,80.1c-14.6,5.4-30.3,8.5-46.8,8.5C231.5,384,215.8,380.9,201.2,375.5L201.2,375.5z M354.8,331.9
	l-61.7-69.2l90.6-19.7c0.1,1.7,0.3,3.4,0.3,5.1C384,279.7,373,308.8,354.8,331.9L354.8,331.9z M354.8,331.9"/>
</svg>
