<svg xmlns="http://www.w3.org/2000/svg" xmlns:xlink="http://www.w3.org/1999/xlink" preserveAspectRatio="xMidYMid" width="35" height="30" viewBox="0 0 35 30">
  <defs>
    <style>
      .cls-1 {
        fill: #fff;
        fill-rule: evenodd;
      }
    </style>
  </defs>
  <path d="M28.718,21.460 L28.698,21.460 C28.581,21.670 28.364,21.818 28.106,21.818 L12.283,21.818 C9.997,21.813 8.030,20.209 7.578,17.980 L4.237,1.363 L0.686,1.363 C0.307,1.363 0.000,1.058 0.000,0.681 C0.000,0.305 0.307,-0.001 0.686,-0.001 L4.799,-0.001 C5.124,-0.001 5.405,0.227 5.470,0.545 L8.921,17.713 C9.224,19.200 10.472,20.284 11.966,20.426 L17.526,12.025 L11.786,3.716 L18.973,3.716 L24.941,11.996 L19.327,20.454 L22.006,20.454 L27.585,12.025 L21.845,3.716 L29.035,3.716 L35.000,11.996 L28.718,21.460 ZM11.654,23.181 C13.547,23.181 15.081,24.708 15.081,26.591 C15.081,28.473 13.547,29.999 11.654,29.999 C9.761,29.999 8.226,28.473 8.226,26.591 C8.226,24.708 9.761,23.181 11.654,23.181 ZM25.364,23.181 C27.257,23.181 28.792,24.708 28.792,26.591 C28.792,28.473 27.257,29.999 25.364,29.999 C23.471,29.999 21.937,28.473 21.937,26.591 C21.937,24.708 23.471,23.181 25.364,23.181 Z" class="cls-1"/>
</svg>
