<svg xmlns="http://www.w3.org/2000/svg" xmlns:xlink="http://www.w3.org/1999/xlink" preserveAspectRatio="xMidYMid" width="14" height="11" viewBox="0 0 14 11">
  <defs>
    <style>
      .cls-1 {
        fill: #898682;
        fill-rule: evenodd;
      }
    </style>
  </defs>
  <path d="M13.300,6.187 L0.700,6.187 C0.313,6.187 -0.000,5.879 -0.000,5.499 C-0.000,5.120 0.313,4.812 0.700,4.812 L13.300,4.812 C13.687,4.812 14.000,5.120 14.000,5.499 C14.000,5.879 13.687,6.187 13.300,6.187 ZM13.300,1.375 L0.700,1.375 C0.313,1.375 -0.000,1.067 -0.000,0.687 C-0.000,0.307 0.313,-0.000 0.700,-0.000 L13.300,-0.000 C13.687,-0.000 14.000,0.307 14.000,0.687 C14.000,1.067 13.687,1.375 13.300,1.375 ZM0.700,9.625 L13.300,9.625 C13.687,9.625 14.000,9.932 14.000,10.312 C14.000,10.692 13.687,10.999 13.300,10.999 L0.700,10.999 C0.313,10.999 -0.000,10.692 -0.000,10.312 C-0.000,9.932 0.313,9.625 0.700,9.625 Z" class="cls-1"/>
</svg>
