<svg xmlns="http://www.w3.org/2000/svg" xmlns:xlink="http://www.w3.org/1999/xlink" preserveAspectRatio="xMidYMid" width="100" height="100" viewBox="0 0 100 100">
  <defs>
    <style>
      .cls-1 {
        fill: #898682;
        fill-rule: evenodd;
      }
    </style>
  </defs>
  <path d="M99.475,11.945 L95.942,15.447 C95.610,15.776 95.161,15.961 94.692,15.960 C93.978,15.960 93.334,15.533 93.060,14.879 C92.786,14.225 92.938,13.471 93.443,12.971 L96.977,9.469 C97.308,9.141 97.758,8.956 98.226,8.956 C98.694,8.956 99.144,9.141 99.475,9.469 C100.166,10.153 100.166,11.261 99.475,11.945 ZM94.846,31.324 L90.121,26.142 L92.743,23.794 L97.468,28.977 L94.846,31.324 ZM87.625,7.408 C86.112,7.408 84.749,6.506 84.170,5.122 C83.592,3.737 83.912,2.143 84.981,1.084 C86.050,0.025 87.658,-0.292 89.056,0.281 C90.452,0.854 91.363,2.205 91.363,3.704 C91.361,5.749 89.688,7.407 87.625,7.408 ZM77.023,43.973 C74.959,43.970 73.287,42.313 73.285,40.268 C73.285,38.769 74.196,37.418 75.592,36.845 C76.990,36.272 78.598,36.588 79.667,37.647 C80.736,38.708 81.056,40.301 80.478,41.685 C79.899,43.070 78.536,43.973 77.023,43.973 ZM72.214,20.993 L75.152,29.953 L67.459,24.416 C66.840,23.970 66.003,23.970 65.384,24.416 L57.692,29.953 L60.630,20.993 C60.866,20.272 60.607,19.482 59.988,19.036 L52.295,13.499 L61.803,13.499 C62.569,13.499 63.247,13.011 63.484,12.289 L66.422,3.329 L69.360,12.289 C69.595,13.011 70.274,13.499 71.039,13.499 L80.547,13.499 L72.856,19.036 C72.237,19.482 71.978,20.272 72.214,20.993 ZM52.804,4.942 L51.037,3.191 C50.347,2.507 50.347,1.399 51.037,0.715 C51.727,0.031 52.845,0.031 53.536,0.715 L55.302,2.466 C55.993,3.150 55.993,4.258 55.302,4.942 C54.612,5.626 53.494,5.626 52.804,4.942 ZM54.328,28.880 C54.146,29.426 54.103,30.007 54.199,30.574 L9.035,67.770 L-0.000,56.998 L36.478,26.955 C38.440,28.618 41.323,28.638 43.308,27.004 C45.292,25.369 45.800,22.556 44.509,20.343 L49.801,15.983 C49.929,16.107 50.066,16.222 50.211,16.327 L56.871,21.122 L54.328,28.880 ZM40.013,24.711 C39.395,24.744 38.803,24.452 38.456,23.944 C38.404,23.773 38.327,23.612 38.226,23.464 C38.065,22.934 38.167,22.360 38.501,21.916 C38.834,21.473 39.360,21.211 39.918,21.212 C40.538,21.212 41.113,21.534 41.433,22.060 C41.752,22.587 41.770,23.240 41.480,23.784 C41.189,24.326 40.632,24.678 40.013,24.711 ZM28.112,8.858 L33.533,4.393 L35.793,7.086 L30.371,11.550 L28.112,8.858 ZM17.466,25.952 L13.932,22.450 C13.600,22.121 13.414,21.676 13.414,21.212 C13.414,20.748 13.600,20.302 13.932,19.974 C14.263,19.646 14.713,19.461 15.181,19.461 C15.649,19.461 16.099,19.646 16.430,19.974 L19.964,23.476 C20.654,24.160 20.654,25.267 19.964,25.952 C19.274,26.636 18.156,26.636 17.466,25.952 ZM50.519,47.474 L50.519,64.982 L29.316,64.982 L29.316,55.620 L39.207,47.474 L50.519,47.474 ZM50.519,78.989 L29.316,78.989 L29.316,68.484 L50.519,68.484 L50.519,78.989 ZM50.519,99.999 L29.316,99.999 L29.316,82.491 L50.519,82.491 L50.519,99.999 ZM58.105,39.958 L56.338,38.207 C56.007,37.879 55.820,37.433 55.820,36.969 C55.820,36.505 56.007,36.060 56.338,35.732 C56.669,35.403 57.119,35.218 57.587,35.218 C58.055,35.218 58.505,35.403 58.836,35.732 L60.603,37.482 C61.293,38.166 61.293,39.274 60.603,39.958 C59.913,40.642 58.795,40.642 58.105,39.958 ZM64.655,99.999 L54.053,99.999 L54.053,47.474 L64.655,47.474 L64.655,99.999 ZM89.392,64.982 L68.189,64.982 L68.189,47.474 L89.392,47.474 L89.392,64.982 ZM89.392,78.989 L68.189,78.989 L68.189,68.484 L89.392,68.484 L89.392,78.989 ZM89.392,99.999 L68.189,99.999 L68.189,82.491 L89.392,82.491 L89.392,99.999 Z" class="cls-1"/>
</svg>
