<svg xmlns="http://www.w3.org/2000/svg" xmlns:xlink="http://www.w3.org/1999/xlink" preserveAspectRatio="xMidYMid" width="190" height="190" viewBox="0 0 190 190">
  <defs>
    <style>
      .cls-1 {
        fill: url(#radial-gradient-1);
        opacity: 0.6;
      }

      .cls-2 {
        fill: #898682;
        fill-rule: evenodd;
      }
    </style>

    <radialGradient id="radial-gradient-1" gradientUnits="userSpaceOnUse" cx="95" cy="95" r="95">
      <stop offset="0" stop-color="#4b4b4b"/>
      <stop offset="1" stop-color="#4b4b4b" stop-opacity="0"/>
    </radialGradient>
  </defs>
  <g>
    <circle cx="95" cy="95" r="95" class="cls-1"/>
    <path d="M139.475,55.945 L135.942,59.447 C135.610,59.776 135.161,59.961 134.692,59.960 C133.978,59.960 133.334,59.533 133.060,58.879 C132.786,58.225 132.938,57.471 133.443,56.971 L136.977,53.469 C137.308,53.141 137.758,52.956 138.226,52.956 C138.694,52.956 139.144,53.141 139.475,53.469 C140.166,54.153 140.166,55.261 139.475,55.945 ZM134.846,75.324 L130.121,70.142 L132.743,67.794 L137.468,72.977 L134.846,75.324 ZM127.625,51.408 C126.112,51.408 124.749,50.506 124.170,49.122 C123.592,47.737 123.912,46.143 124.981,45.084 C126.050,44.025 127.658,43.708 129.056,44.281 C130.452,44.854 131.363,46.205 131.363,47.704 C131.361,49.749 129.688,51.407 127.625,51.408 ZM117.023,87.973 C114.959,87.970 113.287,86.313 113.285,84.268 C113.285,82.769 114.196,81.418 115.592,80.845 C116.990,80.272 118.598,80.588 119.667,81.647 C120.736,82.708 121.056,84.301 120.478,85.685 C119.899,87.070 118.536,87.973 117.023,87.973 ZM112.214,64.993 L115.152,73.953 L107.459,68.416 C106.840,67.970 106.003,67.970 105.384,68.416 L97.692,73.953 L100.630,64.993 C100.866,64.272 100.607,63.482 99.988,63.036 L92.295,57.499 L101.803,57.499 C102.569,57.499 103.247,57.011 103.484,56.289 L106.422,47.329 L109.360,56.289 C109.595,57.011 110.274,57.499 111.039,57.499 L120.547,57.499 L112.856,63.036 C112.237,63.482 111.978,64.272 112.214,64.993 ZM92.804,48.942 L91.037,47.191 C90.347,46.507 90.347,45.399 91.037,44.715 C91.727,44.031 92.845,44.031 93.536,44.715 L95.302,46.466 C95.993,47.150 95.993,48.258 95.302,48.942 C94.612,49.626 93.494,49.626 92.804,48.942 ZM94.328,72.880 C94.146,73.426 94.103,74.007 94.199,74.574 L49.035,111.770 L40.000,100.998 L76.478,70.955 C78.440,72.618 81.323,72.638 83.308,71.004 C85.292,69.369 85.800,66.556 84.509,64.343 L89.801,59.983 C89.929,60.107 90.066,60.222 90.211,60.327 L96.871,65.122 L94.328,72.880 ZM80.013,68.711 C79.395,68.744 78.803,68.452 78.456,67.944 C78.404,67.773 78.327,67.612 78.226,67.464 C78.065,66.934 78.167,66.360 78.501,65.916 C78.834,65.473 79.360,65.211 79.918,65.212 C80.538,65.212 81.113,65.534 81.433,66.060 C81.752,66.587 81.770,67.240 81.480,67.784 C81.189,68.326 80.632,68.678 80.013,68.711 ZM68.112,52.858 L73.533,48.393 L75.793,51.086 L70.371,55.550 L68.112,52.858 ZM57.466,69.952 L53.932,66.450 C53.600,66.121 53.414,65.676 53.414,65.212 C53.414,64.748 53.600,64.302 53.932,63.974 C54.263,63.646 54.713,63.461 55.181,63.461 C55.649,63.461 56.099,63.646 56.430,63.974 L59.964,67.476 C60.654,68.160 60.654,69.267 59.964,69.952 C59.274,70.636 58.156,70.636 57.466,69.952 ZM90.519,91.474 L90.519,108.982 L69.316,108.982 L69.316,99.620 L79.207,91.474 L90.519,91.474 ZM90.519,122.989 L69.316,122.989 L69.316,112.484 L90.519,112.484 L90.519,122.989 ZM90.519,143.999 L69.316,143.999 L69.316,126.491 L90.519,126.491 L90.519,143.999 ZM98.105,83.958 L96.338,82.207 C96.007,81.879 95.820,81.433 95.820,80.969 C95.820,80.505 96.007,80.060 96.338,79.732 C96.669,79.403 97.119,79.218 97.587,79.218 C98.055,79.218 98.505,79.403 98.836,79.732 L100.603,81.482 C101.293,82.166 101.293,83.274 100.603,83.958 C99.913,84.642 98.795,84.642 98.105,83.958 ZM104.655,143.999 L94.053,143.999 L94.053,91.474 L104.655,91.474 L104.655,143.999 ZM129.392,108.982 L108.189,108.982 L108.189,91.474 L129.392,91.474 L129.392,108.982 ZM129.392,122.989 L108.189,122.989 L108.189,112.484 L129.392,112.484 L129.392,122.989 ZM129.392,143.999 L108.189,143.999 L108.189,126.491 L129.392,126.491 L129.392,143.999 Z" class="cls-2"/>
  </g>
</svg>
