<svg xmlns="http://www.w3.org/2000/svg" xmlns:xlink="http://www.w3.org/1999/xlink" preserveAspectRatio="xMidYMid" width="20" height="20" viewBox="0 0 20 20">
  <defs>
    <style>
      .cls-1 {
        fill: #192d6b;
      }

      .cls-2 {
        fill: #fff;
        fill-rule: evenodd;
      }
    </style>
  </defs>
  <g>
    <circle cx="10" cy="10" r="10" class="cls-1"/>
    <path d="M9.278,12.114 L10.412,12.114 L10.412,11.582 C10.412,10.938 10.889,10.672 11.533,10.335 C12.570,9.789 13.410,9.243 13.410,7.870 C13.410,6.119 12.037,5.041 10.076,5.041 C8.213,5.041 6.798,6.021 6.616,8.150 L7.793,8.150 C7.961,6.623 8.858,6.119 10.034,6.119 C11.463,6.119 12.233,6.848 12.233,7.898 C12.233,8.767 11.729,9.103 10.889,9.537 C9.894,10.055 9.278,10.392 9.278,11.386 L9.278,12.114 ZM9.866,15.154 C10.342,15.154 10.693,14.832 10.693,14.370 C10.693,13.907 10.342,13.585 9.866,13.585 C9.390,13.585 9.040,13.907 9.040,14.370 C9.040,14.832 9.390,15.154 9.866,15.154 Z" class="cls-2"/>
  </g>
</svg>
