<svg xmlns="http://www.w3.org/2000/svg" xmlns:xlink="http://www.w3.org/1999/xlink" preserveAspectRatio="xMidYMid" width="20" height="20" viewBox="0 0 20 20">
  <defs>
    <style>
      .cls-1 {
        fill: #d4d4d4;
        fill-rule: evenodd;
      }
    </style>
  </defs>
  <path d="M11.456,10.013 L19.675,1.829 C20.069,1.439 20.069,0.807 19.675,0.417 C19.282,0.027 18.644,0.027 18.251,0.417 L10.038,8.593 L1.749,0.296 C1.356,-0.099 0.718,-0.099 0.325,0.296 C-0.068,0.691 -0.068,1.331 0.325,1.726 L8.607,10.018 L0.295,18.292 C-0.098,18.683 -0.098,19.315 0.295,19.704 C0.688,20.095 1.326,20.095 1.720,19.704 L10.025,11.437 L18.280,19.702 C18.673,20.096 19.312,20.096 19.705,19.702 C20.098,19.306 20.098,18.666 19.705,18.271 L11.456,10.013 Z" class="cls-1"/>
</svg>
