<svg xmlns="http://www.w3.org/2000/svg" xmlns:xlink="http://www.w3.org/1999/xlink" preserveAspectRatio="xMidYMid" width="30" height="29.969" viewBox="0 0 30 29.969">
  <defs>
    <style>
      .cls-1 {
        fill: #192d6b;
        fill-rule: evenodd;
      }
    </style>
  </defs>
  <path d="M29.779,1.241 L19.936,11.069 L25.757,11.069 C26.172,11.069 26.508,11.404 26.508,11.818 C26.508,12.232 26.172,12.568 25.757,12.568 L18.130,12.568 C17.715,12.568 17.379,12.232 17.379,11.818 L17.379,4.202 C17.379,3.788 17.715,3.453 18.130,3.453 C18.545,3.453 18.880,3.788 18.880,4.202 L18.880,10.015 L28.723,0.187 C29.016,-0.105 29.486,-0.105 29.779,0.187 C30.071,0.480 30.071,0.949 29.779,1.241 ZM20.107,18.356 C20.741,17.722 21.480,17.387 22.255,17.387 C23.030,17.387 23.768,17.728 24.384,18.368 L28.003,21.981 C29.296,23.279 29.303,24.978 28.015,26.319 C27.741,26.605 27.448,26.885 27.167,27.159 C26.752,27.562 26.355,27.940 26.008,28.360 L25.983,28.384 C25.001,29.450 23.792,29.968 22.291,29.968 C22.157,29.968 22.017,29.962 21.877,29.950 C19.643,29.804 17.635,28.969 16.134,28.256 C12.192,26.356 8.739,23.656 5.871,20.232 C3.509,17.399 1.917,14.749 0.861,11.891 C0.171,10.039 -0.091,8.510 0.025,7.072 C0.129,5.920 0.592,4.921 1.410,4.105 L3.668,1.857 C4.309,1.241 5.047,0.918 5.816,0.918 C6.585,0.918 7.317,1.241 7.933,1.857 C8.342,2.234 8.757,2.655 9.154,3.063 C9.355,3.270 9.562,3.477 9.770,3.684 L11.564,5.476 C12.217,6.134 12.565,6.883 12.565,7.651 C12.565,8.418 12.217,9.174 11.564,9.826 C11.375,10.015 11.192,10.197 11.009,10.386 C10.502,10.904 9.971,11.434 9.410,11.946 C9.813,12.878 10.386,13.792 11.247,14.877 C12.949,16.966 14.731,18.593 16.696,19.836 C16.897,19.964 17.123,20.074 17.361,20.196 C17.556,20.293 17.758,20.390 17.953,20.506 L20.107,18.356 ZM17.349,21.884 C17.147,21.755 16.922,21.646 16.683,21.524 C16.415,21.396 16.147,21.256 15.884,21.091 C13.785,19.763 11.887,18.033 10.075,15.809 C9.074,14.548 8.428,13.487 7.964,12.372 C7.958,12.354 7.951,12.342 7.945,12.324 C7.823,11.958 7.750,11.477 8.251,10.977 L8.281,10.947 C8.854,10.429 9.385,9.899 9.941,9.332 C10.124,9.143 10.313,8.954 10.502,8.766 C10.874,8.394 11.063,8.016 11.063,7.651 C11.063,7.285 10.874,6.908 10.502,6.536 L8.708,4.745 C8.495,4.537 8.287,4.324 8.079,4.111 C7.677,3.697 7.293,3.307 6.890,2.929 C6.542,2.582 6.176,2.411 5.810,2.411 C5.438,2.411 5.053,2.588 4.705,2.923 L2.466,5.159 C1.892,5.726 1.581,6.396 1.514,7.194 C1.416,8.418 1.648,9.710 2.264,11.367 C3.259,14.060 4.772,16.577 7.018,19.276 C9.752,22.535 13.041,25.106 16.781,26.910 C18.154,27.568 19.991,28.335 21.968,28.463 C22.072,28.470 22.182,28.475 22.285,28.475 C23.353,28.475 24.177,28.128 24.866,27.385 C25.263,26.910 25.703,26.489 26.124,26.081 C26.404,25.807 26.667,25.551 26.923,25.283 C27.655,24.521 27.661,23.747 26.941,23.029 L23.311,19.404 C23.072,19.154 22.706,18.874 22.249,18.874 C21.883,18.874 21.504,19.056 21.156,19.404 L18.905,21.652 C18.801,21.755 18.490,22.066 18.002,22.066 C17.806,22.066 17.617,22.017 17.416,21.920 C17.391,21.907 17.373,21.896 17.349,21.884 Z" class="cls-1"/>
</svg>
