<svg xmlns="http://www.w3.org/2000/svg" xmlns:xlink="http://www.w3.org/1999/xlink" preserveAspectRatio="xMidYMid" width="30" height="29.97" viewBox="0 0 30 29.97">
  <defs>
    <style>
      .cls-1 {
        fill: #fff;
        fill-rule: evenodd;
      }
    </style>
  </defs>
  <path d="M29.779,1.242 L19.936,11.070 L25.757,11.070 C26.172,11.070 26.508,11.405 26.508,11.820 C26.508,12.234 26.172,12.569 25.757,12.569 L18.130,12.569 C17.715,12.569 17.379,12.234 17.379,11.820 L17.379,4.204 C17.379,3.789 17.715,3.454 18.130,3.454 C18.545,3.454 18.880,3.789 18.880,4.204 L18.880,10.016 L28.723,0.188 C29.016,-0.104 29.486,-0.104 29.779,0.188 C30.072,0.481 30.072,0.950 29.779,1.242 ZM20.107,18.357 C20.741,17.723 21.480,17.388 22.255,17.388 C23.030,17.388 23.768,17.729 24.384,18.369 L28.003,21.982 C29.297,23.280 29.303,24.979 28.015,26.320 C27.741,26.607 27.448,26.887 27.167,27.161 C26.752,27.563 26.355,27.941 26.008,28.361 L25.983,28.386 C25.001,29.452 23.792,29.970 22.291,29.970 C22.157,29.970 22.017,29.963 21.877,29.951 C19.643,29.805 17.636,28.970 16.134,28.258 C12.193,26.357 8.739,23.657 5.871,20.233 C3.509,17.400 1.917,14.750 0.861,11.892 C0.171,10.040 -0.091,8.511 0.025,7.073 C0.129,5.922 0.592,4.923 1.410,4.106 L3.668,1.858 C4.309,1.242 5.047,0.920 5.816,0.920 C6.585,0.920 7.317,1.242 7.933,1.858 C8.342,2.236 8.757,2.656 9.154,3.064 C9.355,3.271 9.563,3.478 9.770,3.686 L11.564,5.477 C12.217,6.135 12.565,6.884 12.565,7.652 C12.565,8.420 12.217,9.175 11.564,9.827 C11.375,10.016 11.192,10.199 11.009,10.388 C10.502,10.906 9.971,11.436 9.410,11.948 C9.813,12.879 10.386,13.793 11.247,14.878 C12.949,16.968 14.731,18.594 16.696,19.837 C16.897,19.965 17.123,20.075 17.361,20.197 C17.556,20.294 17.758,20.392 17.953,20.508 L20.107,18.357 ZM17.349,21.885 C17.147,21.756 16.922,21.647 16.684,21.525 C16.415,21.397 16.147,21.257 15.884,21.092 C13.785,19.764 11.887,18.034 10.075,15.810 C9.074,14.549 8.428,13.489 7.964,12.374 C7.958,12.356 7.951,12.343 7.946,12.325 C7.823,11.960 7.750,11.478 8.251,10.979 L8.281,10.948 C8.855,10.430 9.386,9.900 9.941,9.333 C10.124,9.145 10.313,8.956 10.502,8.767 C10.874,8.395 11.064,8.017 11.064,7.652 C11.064,7.286 10.874,6.909 10.502,6.537 L8.708,4.746 C8.495,4.539 8.287,4.325 8.080,4.112 C7.677,3.698 7.293,3.308 6.890,2.930 C6.542,2.583 6.176,2.412 5.810,2.412 C5.438,2.412 5.053,2.589 4.705,2.924 L2.466,5.160 C1.892,5.727 1.581,6.397 1.514,7.195 C1.416,8.420 1.648,9.711 2.264,11.369 C3.259,14.062 4.772,16.578 7.018,19.277 C9.752,22.537 13.041,25.107 16.781,26.911 C18.154,27.569 19.991,28.337 21.968,28.465 C22.072,28.471 22.182,28.477 22.285,28.477 C23.353,28.477 24.177,28.130 24.867,27.386 C25.263,26.911 25.703,26.490 26.124,26.083 C26.404,25.808 26.667,25.552 26.923,25.284 C27.655,24.523 27.661,23.749 26.941,23.030 L23.311,19.405 C23.073,19.155 22.706,18.875 22.249,18.875 C21.883,18.875 21.504,19.058 21.156,19.405 L18.905,21.653 C18.801,21.756 18.490,22.067 18.002,22.067 C17.807,22.067 17.617,22.019 17.416,21.921 C17.391,21.909 17.373,21.897 17.349,21.885 Z" class="cls-1"/>
</svg>
