<svg xmlns="http://www.w3.org/2000/svg" xmlns:xlink="http://www.w3.org/1999/xlink" preserveAspectRatio="xMidYMid" width="30" height="30" viewBox="0 0 30 30">
  <defs>
    <style>
      .cls-1 {
        fill: #fff;
        fill-rule: evenodd;
      }
    </style>
  </defs>
  <path d="M29.225,9.448 C28.796,9.448 28.449,9.102 28.449,8.674 L28.449,2.673 L18.278,12.819 C18.127,12.971 17.931,13.046 17.730,13.046 C17.528,13.046 17.332,12.971 17.181,12.819 C16.878,12.524 16.878,12.033 17.181,11.731 L27.357,1.585 L21.338,1.585 C20.909,1.585 20.562,1.239 20.562,0.811 C20.562,0.383 20.909,0.037 21.338,0.037 L29.225,0.037 C29.654,0.037 30.001,0.383 30.001,0.811 L30.001,8.674 C30.001,9.102 29.654,9.448 29.225,9.448 ZM11.383,9.781 C10.859,10.310 10.310,10.863 9.729,11.385 C10.146,12.348 10.739,13.291 11.629,14.411 C13.389,16.569 15.231,18.248 17.263,19.532 C17.471,19.663 17.704,19.777 17.951,19.903 C18.152,20.003 18.361,20.104 18.562,20.223 L20.783,17.997 C21.439,17.342 22.203,16.996 23.004,16.996 C23.805,16.996 24.569,17.349 25.206,18.009 L28.947,21.740 C30.291,23.080 30.291,24.834 28.960,26.218 C28.676,26.521 28.373,26.810 28.083,27.093 C27.654,27.508 27.244,27.898 26.884,28.332 C26.878,28.345 26.865,28.357 26.859,28.364 C25.843,29.464 24.594,29.999 23.042,29.999 C22.903,29.999 22.764,29.993 22.619,29.987 C20.310,29.836 18.234,28.974 16.682,28.238 C12.606,26.275 9.035,23.488 6.070,19.953 C3.628,17.022 1.982,14.285 0.890,11.335 C0.177,9.429 -0.094,7.844 0.026,6.359 C0.133,5.170 0.612,4.139 1.458,3.296 L3.799,0.968 C4.461,0.332 5.225,-0.001 6.020,-0.001 C6.814,-0.001 7.572,0.332 8.209,0.968 C8.632,1.365 9.054,1.798 9.471,2.220 C9.679,2.434 9.887,2.648 10.102,2.862 L11.957,4.711 C12.632,5.390 12.991,6.164 12.991,6.957 C12.991,7.749 12.632,8.529 11.957,9.203 C11.761,9.397 11.572,9.593 11.383,9.781 ZM10.846,5.812 L8.991,3.962 C8.777,3.742 8.562,3.522 8.348,3.308 C7.931,2.880 7.534,2.478 7.117,2.088 C6.758,1.729 6.379,1.553 6.001,1.553 C5.616,1.553 5.218,1.735 4.859,2.082 L2.543,4.390 C1.950,4.975 1.628,5.667 1.559,6.491 C1.458,7.737 1.704,9.108 2.335,10.800 C3.364,13.581 4.928,16.179 7.250,18.965 C10.076,22.325 13.471,24.979 17.345,26.848 C18.764,27.527 20.663,28.320 22.707,28.452 C22.815,28.458 22.928,28.464 23.035,28.464 C24.139,28.464 24.991,28.106 25.704,27.338 C26.114,26.848 26.569,26.414 27.004,25.992 C27.301,25.709 27.572,25.445 27.837,25.168 C28.594,24.381 28.600,23.583 27.856,22.840 L24.102,19.097 C23.856,18.840 23.477,18.551 23.004,18.551 C22.625,18.551 22.234,18.739 21.875,19.097 L19.547,21.419 C19.439,21.526 19.117,21.847 18.613,21.847 C18.411,21.847 18.215,21.796 18.007,21.689 C17.982,21.677 17.963,21.664 17.938,21.652 C17.730,21.519 17.496,21.406 17.250,21.280 C16.979,21.148 16.695,21.004 16.423,20.834 C14.253,19.463 12.291,17.676 10.417,15.380 C9.383,14.071 8.714,12.983 8.234,11.832 C8.228,11.813 8.221,11.800 8.215,11.782 C8.089,11.404 8.013,10.907 8.531,10.391 L8.562,10.360 C9.162,9.831 9.704,9.278 10.266,8.699 C10.461,8.504 10.651,8.309 10.846,8.114 C11.231,7.730 11.427,7.340 11.427,6.963 C11.427,6.586 11.231,6.196 10.846,5.812 Z" class="cls-1"/>
</svg>
