<svg xmlns="http://www.w3.org/2000/svg" xmlns:xlink="http://www.w3.org/1999/xlink" preserveAspectRatio="xMidYMid" width="245" height="178" viewBox="0 0 245 178">
  <defs>
    <style>
      .cls-1 {
        fill: #fff;
        fill-rule: evenodd;
      }
    </style>
  </defs>
  <path d="M129.172,108.904 C128.420,108.904 127.811,108.293 127.811,107.541 C127.811,106.788 128.420,106.178 129.172,106.178 C129.926,106.178 130.534,106.788 130.534,107.541 C130.534,108.293 129.926,108.904 129.172,108.904 ZM30.469,125.410 L29.978,126.500 C29.418,126.245 28.632,126.013 27.817,125.829 L27.948,125.247 L28.080,124.664 C28.943,124.860 29.785,125.102 30.469,125.410 ZM27.323,125.725 L27.580,124.558 C27.684,124.582 27.816,124.603 27.970,124.637 L27.707,125.803 C27.602,125.779 27.473,125.758 27.323,125.725 ZM27.065,124.456 L26.847,125.631 L26.785,125.619 L26.894,125.032 L27.004,124.445 L27.065,124.456 ZM26.026,125.496 L25.810,125.466 L25.970,124.282 L26.186,124.311 L26.026,125.496 ZM24.139,125.313 C24.137,125.313 24.135,125.313 24.134,125.313 L24.134,124.716 L24.134,124.118 C24.457,124.119 24.886,124.149 25.390,124.206 L25.257,125.393 C24.786,125.340 24.385,125.313 24.139,125.313 ZM19.344,121.399 C19.344,122.153 18.735,122.762 17.984,122.762 C17.231,122.762 16.621,122.153 16.621,121.399 C16.621,120.646 17.231,120.036 17.984,120.036 C18.735,120.036 19.344,120.646 19.344,121.399 ZM16.167,128.213 C16.167,128.966 15.559,129.575 14.807,129.575 C14.054,129.575 13.445,128.966 13.445,128.213 C13.445,127.459 14.054,126.850 14.807,126.850 C15.559,126.850 16.167,127.459 16.167,128.213 ZM48.632,63.938 C48.632,64.690 48.022,65.300 47.271,65.300 C46.518,65.300 45.909,64.690 45.909,63.938 C45.909,63.185 46.518,62.574 47.271,62.574 C48.022,62.574 48.632,63.185 48.632,63.938 ZM244.215,75.492 C243.031,75.885 242.101,76.040 241.361,76.287 C240.619,76.538 240.056,76.839 239.392,77.607 C239.393,77.606 239.393,77.606 239.394,77.605 L239.391,77.608 C239.392,77.607 239.392,77.607 239.392,77.607 C239.149,77.882 238.873,78.552 238.594,79.267 C238.484,79.538 238.368,79.815 238.243,80.089 C238.387,80.362 238.476,80.669 238.476,80.999 C238.476,82.087 237.596,82.968 236.510,82.968 C235.734,82.968 235.069,82.514 234.749,81.860 C234.320,81.730 233.897,81.544 233.478,81.318 C232.668,80.877 231.864,80.288 231.046,79.646 C229.413,78.361 227.715,76.862 225.961,75.895 C225.374,75.570 224.784,75.306 224.191,75.124 C223.986,77.568 221.963,79.493 219.468,79.493 C219.225,79.493 218.991,79.456 218.758,79.421 C217.830,79.771 216.942,80.134 216.428,80.674 C216.060,81.062 215.831,81.508 215.813,82.255 L215.819,82.265 L216.004,82.496 C216.188,82.696 216.477,82.955 216.806,83.239 C217.466,83.813 218.285,84.481 218.876,85.197 C219.263,85.677 219.594,86.186 219.605,86.826 C219.611,87.225 219.431,87.643 219.118,87.941 C219.065,87.992 218.990,88.029 218.931,88.076 C218.959,88.185 218.998,88.291 218.998,88.409 C218.998,89.163 218.388,89.772 217.636,89.772 C217.086,89.772 216.617,89.442 216.403,88.971 C215.439,89.129 214.244,89.233 212.682,89.265 C211.198,89.289 209.733,89.864 208.254,90.735 C208.264,90.813 208.278,90.890 208.278,90.970 C208.278,92.057 207.398,92.938 206.312,92.938 C205.981,92.938 205.674,92.848 205.401,92.704 C203.427,94.205 201.407,95.909 199.207,97.185 L199.206,97.185 L199.206,97.185 C199.181,97.200 199.155,97.215 199.130,97.229 L199.090,97.252 L199.089,97.252 C198.837,97.396 198.581,97.534 198.323,97.664 L198.383,97.696 L198.064,97.825 C198.033,98.551 197.446,99.131 196.714,99.131 C196.312,99.131 195.961,98.950 195.711,98.673 L195.074,98.847 L195.074,98.823 C194.465,98.947 193.837,99.021 193.189,99.021 C192.805,99.019 192.449,98.911 192.082,98.769 C191.770,98.646 191.447,98.488 191.112,98.323 L191.107,98.324 L191.017,98.279 L190.937,98.240 C189.700,97.624 188.248,96.911 186.683,96.911 C186.679,96.911 186.674,96.911 186.670,96.911 C186.388,96.912 186.097,96.944 185.802,96.994 C185.575,97.430 185.134,97.738 184.609,97.738 C184.412,97.738 184.228,97.693 184.059,97.618 C183.283,98.047 182.466,98.698 181.597,99.688 L181.546,99.746 C180.426,101.043 179.247,102.886 178.044,105.463 C177.805,105.979 177.736,106.387 177.735,106.760 C177.729,107.302 177.905,107.786 178.018,108.361 L178.047,108.375 L178.075,108.709 L178.197,109.773 L177.980,109.669 C177.867,109.968 177.688,110.229 177.497,110.455 C177.176,110.834 176.798,111.164 176.443,111.516 C175.818,112.142 175.319,112.786 175.194,113.716 C175.455,113.964 175.621,114.310 175.621,114.699 C175.621,115.452 175.013,116.061 174.261,116.061 C174.169,116.061 174.088,116.026 174.001,116.009 C173.977,116.028 173.955,116.050 173.930,116.068 C173.336,116.526 172.679,116.923 172.255,117.348 L172.241,117.361 C171.891,117.719 171.720,118.026 171.717,118.421 L171.740,118.671 L171.838,119.223 L171.295,119.356 C171.241,119.369 171.192,119.391 171.140,119.406 C171.145,119.464 171.157,119.520 171.157,119.580 C171.157,120.667 170.277,121.548 169.192,121.548 C168.953,121.548 168.728,121.499 168.516,121.422 C168.272,121.750 168.041,122.103 167.821,122.474 C167.330,123.299 166.896,124.197 166.460,125.065 C166.611,125.284 166.720,125.536 166.720,125.823 C166.720,126.575 166.111,127.184 165.358,127.184 C165.335,127.184 165.315,127.171 165.291,127.170 L164.933,127.708 L164.426,127.308 C163.654,126.681 163.153,125.616 162.699,124.296 C162.254,122.976 161.901,121.397 161.621,119.781 C161.146,117.025 160.892,114.190 160.826,112.405 C159.983,112.182 159.359,111.423 159.359,110.510 C159.359,109.422 160.240,108.542 161.327,108.542 C161.396,108.542 161.462,108.555 161.530,108.563 C161.731,108.164 161.953,107.785 162.213,107.445 C162.911,106.530 163.775,105.811 164.626,105.229 L164.620,105.218 L165.082,104.928 C165.088,104.924 165.093,104.921 165.098,104.918 L165.631,104.580 L165.636,104.590 C165.671,104.569 165.704,104.551 165.739,104.531 C165.745,103.783 166.350,103.180 167.098,103.180 C167.242,103.180 167.375,103.220 167.506,103.262 C168.256,102.564 168.945,101.700 169.599,100.752 L169.637,100.697 C170.415,99.565 171.158,98.346 171.939,97.227 L171.937,97.229 C172.784,95.982 173.898,95.523 174.931,95.244 C175.978,94.956 176.979,94.780 178.026,94.103 C178.966,93.498 179.656,92.952 180.162,92.467 C179.556,91.984 179.060,91.370 178.747,90.650 C177.399,92.210 176.287,93.326 175.369,94.095 C174.156,95.098 173.295,95.556 172.488,95.573 C172.476,95.574 172.464,95.574 172.452,95.574 C171.973,95.574 171.520,95.312 171.297,94.950 C171.062,94.583 170.998,94.177 170.995,93.775 C170.996,93.279 171.105,92.773 171.281,92.317 C171.308,92.247 171.337,92.179 171.367,92.112 C170.892,92.065 170.498,92.048 170.153,92.048 C170.144,92.048 170.134,92.048 170.125,92.048 C169.063,92.048 168.426,92.228 167.340,92.232 C166.257,92.232 165.308,92.354 164.469,92.578 L164.401,92.596 C162.932,93.001 161.809,93.720 160.889,94.749 C160.237,95.481 159.692,96.378 159.231,97.431 C159.280,97.603 159.315,97.780 159.315,97.968 C159.315,98.615 158.998,99.184 158.517,99.543 L158.494,99.634 L158.454,99.609 C158.352,99.956 158.257,100.314 158.166,100.683 L158.055,101.138 L154.540,101.138 C154.661,101.393 154.734,101.675 154.734,101.977 C154.734,103.063 153.853,103.944 152.768,103.944 C151.682,103.944 150.801,103.063 150.801,101.977 C150.801,101.548 150.942,101.154 151.174,100.831 C150.652,100.663 150.145,100.450 149.621,100.251 C148.538,99.835 147.365,99.444 145.729,99.443 C145.726,99.443 145.723,99.443 145.720,99.443 C145.380,99.443 144.901,99.459 144.357,99.484 C144.291,100.512 143.446,101.327 142.404,101.327 C141.448,101.327 140.653,100.646 140.475,99.741 C138.923,99.867 137.246,100.025 135.654,100.205 C135.619,100.209 135.585,100.213 135.550,100.217 C135.498,100.223 135.448,100.229 135.397,100.235 C136.528,100.648 137.339,101.724 137.339,102.999 C137.339,104.628 136.020,105.950 134.391,105.950 C132.761,105.950 131.441,104.628 131.441,102.999 C131.441,101.996 131.943,101.114 132.706,100.580 C131.492,100.756 130.459,100.939 129.788,101.116 C128.130,101.576 126.400,102.870 124.781,104.403 C124.678,104.500 124.579,104.603 124.477,104.702 C124.478,104.716 124.486,104.728 124.486,104.742 C124.486,105.495 123.876,106.104 123.125,106.104 C123.113,106.104 123.103,106.097 123.092,106.097 C122.102,107.130 121.161,108.162 120.301,109.022 C119.580,109.744 118.517,110.528 117.462,111.371 C116.409,112.208 115.370,113.102 114.751,113.932 C114.346,114.469 114.137,114.959 114.128,115.350 L114.163,115.462 C114.200,115.566 114.261,115.713 114.345,115.882 C114.512,116.221 114.768,116.651 115.103,117.062 C115.700,117.794 116.518,118.406 117.522,118.545 C117.868,117.985 118.483,117.608 119.190,117.608 C119.543,117.608 119.869,117.709 120.156,117.872 C120.364,117.745 120.574,117.615 120.798,117.447 C121.104,117.214 121.477,117.104 121.833,117.104 C121.838,117.104 121.842,117.104 121.846,117.105 C122.512,117.111 123.124,117.414 123.712,117.834 C123.734,117.849 123.754,117.871 123.775,117.887 C123.679,117.595 123.614,117.289 123.614,116.964 C123.614,115.335 124.935,114.013 126.563,114.013 C128.057,114.013 129.278,115.129 129.472,116.570 L129.548,116.570 L130.136,116.570 L130.733,116.570 L130.733,117.167 C130.734,117.865 130.863,118.438 131.038,118.985 L131.059,119.049 C131.261,119.677 131.529,120.259 131.724,120.890 L131.726,120.899 L131.728,120.902 C131.820,121.228 131.850,121.536 131.850,121.816 C131.846,122.375 131.747,122.814 131.751,123.186 C131.752,123.283 131.766,123.376 131.779,123.469 C132.272,123.997 132.580,124.701 132.580,125.481 C132.580,126.100 132.388,126.674 132.062,127.148 C132.093,127.257 132.124,127.366 132.168,127.478 C132.180,127.509 132.192,127.540 132.205,127.571 L132.225,127.555 L132.508,128.281 C132.511,128.288 132.514,128.295 132.517,128.302 L132.527,128.327 L132.561,128.417 L132.568,128.437 C132.569,128.441 132.571,128.445 132.572,128.449 L132.678,128.733 L132.669,128.741 C133.322,130.635 134.355,132.280 134.871,134.334 L133.803,134.821 C133.625,134.566 133.412,134.341 133.191,134.192 C132.968,134.042 132.751,133.965 132.511,133.964 C132.412,133.965 132.346,133.990 132.262,134.001 C132.005,134.435 131.590,134.757 131.094,134.893 C131.052,134.975 131.006,135.043 130.969,135.136 C130.725,135.753 130.617,136.592 130.581,137.439 L130.582,137.439 L130.567,138.107 L130.567,138.111 L130.565,138.371 C130.857,138.621 131.053,138.980 131.053,139.396 C131.053,139.498 131.016,139.588 130.995,139.684 C131.115,139.877 131.248,140.068 131.405,140.265 C131.900,140.886 132.556,141.501 132.967,142.360 L133.253,142.966 L132.619,143.181 L132.330,143.279 L132.300,143.286 L132.105,143.308 C131.854,143.305 131.667,143.212 131.522,143.115 C131.377,143.015 131.263,142.900 131.163,142.780 C131.074,142.670 130.996,142.558 130.930,142.442 L130.478,142.442 L130.376,142.483 C130.327,142.520 130.248,142.614 130.165,142.751 C129.989,143.025 129.826,143.445 129.490,143.827 C129.273,144.078 128.900,144.316 128.459,144.316 C128.453,144.316 128.448,144.316 128.442,144.316 C128.439,144.316 128.436,144.316 128.433,144.316 C128.286,144.316 128.134,144.252 128.043,144.176 L127.864,143.961 C127.800,143.837 127.784,143.752 127.768,143.669 C127.740,143.507 127.736,143.351 127.735,143.173 C127.735,142.823 127.764,142.407 127.791,142.038 C127.819,141.677 127.846,141.340 127.845,141.262 C127.846,140.100 128.025,139.226 128.119,138.411 L128.147,138.140 C128.148,138.134 128.148,138.129 128.149,138.124 L128.168,137.920 C128.181,137.761 128.188,137.604 128.188,137.443 C128.183,136.929 128.097,136.723 127.974,136.414 C127.849,136.113 127.667,135.680 127.672,135.069 C127.670,134.365 127.800,133.868 127.913,133.489 C128.025,133.105 128.104,132.861 128.105,132.440 L128.105,130.987 L128.105,127.995 C127.331,127.523 126.800,126.709 126.710,125.759 C126.358,126.872 125.866,127.820 125.562,128.373 C124.990,129.397 124.905,130.192 124.901,131.104 C124.901,131.546 124.925,132.012 124.926,132.519 C124.926,132.885 124.912,133.273 124.865,133.686 L125.162,133.437 L124.449,135.477 C124.448,135.479 124.447,135.480 124.447,135.482 L124.395,135.633 L124.392,135.635 C124.087,136.460 123.662,137.300 123.184,138.093 L123.237,138.088 L122.530,139.105 C122.522,139.115 122.515,139.126 122.508,139.137 L122.348,139.366 L122.345,139.366 C121.823,140.094 121.286,140.735 120.800,141.223 L120.797,141.227 C120.752,141.271 120.702,141.325 120.648,141.385 L120.648,141.387 L120.433,141.627 L120.431,141.630 C120.308,141.766 120.183,141.911 120.056,142.065 C118.939,143.416 117.668,145.391 116.311,147.381 C115.398,148.715 114.445,150.055 113.448,151.239 C113.623,151.468 113.746,151.742 113.746,152.053 C113.746,152.806 113.137,153.415 112.384,153.415 C112.091,153.415 111.835,153.302 111.613,153.145 C111.544,153.206 111.476,153.274 111.406,153.332 C110.233,154.322 108.968,155.003 107.595,155.006 C107.395,155.006 107.197,155.001 106.996,154.993 L106.841,154.987 L106.836,154.983 L106.820,154.982 L106.820,154.982 C106.819,154.982 106.818,154.982 106.818,154.982 C104.763,154.874 102.583,154.387 101.811,154.204 C100.960,154.910 100.390,155.551 99.901,156.268 C99.372,157.046 98.936,157.930 98.385,159.078 L98.388,159.073 L98.382,159.084 C98.318,159.210 98.240,159.319 98.156,159.423 C97.999,160.353 97.197,161.063 96.223,161.063 C96.205,161.063 96.189,161.058 96.172,161.058 C96.027,161.170 95.897,161.274 95.814,161.356 C95.206,161.973 94.418,162.574 93.435,162.754 C93.467,163.140 93.596,163.435 93.796,163.735 C93.902,163.892 94.034,164.046 94.176,164.200 C94.710,163.664 95.449,163.332 96.265,163.332 C97.894,163.332 99.213,164.653 99.213,166.284 C99.213,167.474 98.506,168.493 97.492,168.960 C97.645,169.412 97.785,169.875 97.871,170.385 C98.525,170.569 99.014,171.145 99.014,171.859 C99.014,172.540 98.573,173.102 97.966,173.315 C97.901,173.881 97.777,174.377 97.554,174.801 C97.213,175.462 96.607,175.907 95.897,176.100 C95.761,176.143 95.633,176.166 95.483,176.193 C95.394,176.209 95.291,176.225 95.193,176.241 C95.202,176.309 95.233,176.370 95.233,176.441 C95.233,177.302 94.536,177.999 93.677,177.999 C93.159,177.999 92.722,177.730 92.439,177.340 C92.396,177.354 92.331,177.371 92.301,177.385 C92.156,177.448 92.081,177.497 91.840,177.735 L91.665,177.910 L89.741,177.910 C89.598,177.953 89.456,177.999 89.300,177.999 C88.440,177.999 87.743,177.302 87.743,176.441 C87.743,175.580 88.440,174.883 89.300,174.883 C89.440,174.883 89.566,174.928 89.695,174.963 C89.743,174.763 89.807,174.573 89.884,174.389 C90.012,174.093 90.161,173.811 90.268,173.596 C90.321,173.493 90.363,173.400 90.383,173.351 C90.378,173.313 90.345,173.239 90.328,173.185 C89.550,173.099 88.936,172.463 88.936,171.661 C88.936,171.408 89.010,171.179 89.117,170.968 L89.117,169.920 L89.714,169.920 C89.716,169.920 89.719,169.920 89.722,169.920 C89.913,169.920 90.134,169.838 90.277,169.722 C90.428,169.601 90.476,169.480 90.473,169.415 C90.472,169.288 90.437,169.177 90.357,169.053 C90.278,168.931 90.148,168.803 89.981,168.692 C89.651,168.470 89.176,168.329 88.795,168.329 C88.791,168.329 88.787,168.329 88.782,168.329 C88.782,168.329 88.781,168.329 88.780,168.329 C88.546,168.329 88.390,168.442 88.071,168.612 C87.962,168.663 87.819,168.734 87.595,168.737 C87.592,168.737 87.589,168.737 87.587,168.737 C87.265,168.737 86.984,168.584 86.804,168.408 C86.618,168.228 86.500,168.026 86.408,167.826 C86.230,167.419 86.157,167.024 86.152,166.699 C86.141,166.179 86.372,165.746 86.606,165.507 C86.840,165.264 87.012,165.140 87.049,165.072 L87.089,164.920 C87.087,164.636 87.053,164.484 87.014,164.326 C86.976,164.172 86.903,163.978 86.900,163.691 C86.900,163.643 86.902,163.595 86.907,163.546 C86.576,163.456 86.299,163.319 86.073,163.189 C85.706,162.975 85.453,162.813 85.219,162.755 L85.174,162.746 L84.971,162.721 C84.967,162.721 84.962,162.721 84.958,162.721 C83.798,162.721 82.731,163.279 81.617,163.916 C80.502,164.541 79.348,165.258 77.941,165.267 L77.344,165.267 L77.344,164.669 C77.342,163.931 77.649,163.348 77.963,162.908 C78.281,162.464 78.605,162.115 78.778,161.798 C78.892,161.590 78.950,161.412 78.953,161.196 L78.951,161.188 L78.918,161.102 L78.741,160.815 C78.583,160.602 78.352,160.382 78.166,160.271 C78.052,160.199 77.960,160.177 77.944,160.177 C77.942,160.177 77.942,160.177 77.941,160.177 C77.776,160.181 77.685,160.226 77.570,160.318 C77.459,160.410 77.352,160.558 77.263,160.708 C77.204,160.806 77.159,160.896 77.092,161.000 L77.092,161.001 C76.766,161.517 76.282,161.987 75.749,162.443 C75.216,162.895 74.633,163.324 74.119,163.697 L73.710,163.993 L73.350,163.639 C67.489,157.861 60.650,151.142 57.596,148.144 C56.579,147.145 55.983,146.560 55.983,146.560 L49.419,140.149 C49.494,140.317 49.539,140.501 49.539,140.698 C49.539,141.451 48.930,142.061 48.178,142.061 C47.426,142.061 46.816,141.451 46.816,140.698 C46.816,139.945 47.426,139.335 48.178,139.335 C48.361,139.335 48.534,139.374 48.693,139.439 L43.827,134.686 L43.826,134.686 L39.021,129.994 L39.021,129.994 L38.666,129.647 L37.797,128.799 L37.799,128.799 L35.640,126.687 L21.219,130.009 L21.218,130.010 L21.210,130.012 C20.873,130.446 20.460,130.843 19.939,131.140 C19.348,131.478 18.627,131.675 17.782,131.675 C17.779,131.675 17.776,131.675 17.773,131.675 C16.953,131.674 16.157,131.539 15.389,131.352 L15.388,131.352 L15.291,131.328 C15.276,131.324 15.262,131.320 15.248,131.316 C15.245,131.316 15.242,131.315 15.239,131.314 L15.238,131.319 C13.831,130.961 12.501,130.398 11.327,129.937 C10.171,129.477 9.152,129.133 8.472,129.133 C8.464,129.133 8.457,129.134 8.449,129.134 C8.447,129.134 8.444,129.134 8.441,129.134 C8.189,129.134 7.861,129.248 7.513,129.458 C7.161,129.668 6.799,129.962 6.470,130.251 L5.683,129.352 C5.683,129.352 5.684,129.352 5.684,129.352 L5.684,129.352 C5.753,129.291 5.824,129.230 5.898,129.167 C6.198,128.913 6.534,128.651 6.901,128.431 C7.358,128.160 7.871,127.939 8.449,127.937 C9.479,127.944 10.569,128.358 11.767,128.823 C12.917,129.276 14.154,129.793 15.403,130.122 L20.500,128.949 L20.500,128.949 C20.501,128.948 20.502,128.947 20.502,128.946 C20.503,128.945 20.503,128.945 20.503,128.945 C20.832,128.433 21.101,127.832 21.348,127.226 C21.352,127.215 21.357,127.205 21.361,127.194 L22.467,127.645 C22.366,127.891 22.261,128.143 22.145,128.397 C22.116,128.461 22.086,128.526 22.056,128.590 L34.616,125.696 L33.168,124.299 C32.792,124.474 32.377,124.578 31.934,124.578 C30.306,124.578 28.986,123.257 28.986,121.627 C28.986,121.222 29.068,120.837 29.215,120.485 L22.780,114.277 C22.292,114.637 21.694,114.857 21.041,114.857 C19.412,114.857 18.091,113.534 18.091,111.905 C18.091,111.290 18.280,110.719 18.602,110.246 L11.573,103.464 C11.138,103.718 10.638,103.874 10.098,103.874 C8.469,103.874 7.148,102.553 7.148,100.923 C7.148,100.420 7.285,99.955 7.507,99.541 L1.679,93.918 L-0.003,93.747 L0.951,93.215 L0.287,92.575 L1.819,92.731 L2.382,92.417 L7.429,89.605 C7.363,89.360 7.316,89.107 7.316,88.840 C7.316,87.211 8.637,85.889 10.266,85.889 C11.115,85.889 11.874,86.254 12.412,86.828 L18.540,83.413 C18.523,83.287 18.501,83.162 18.501,83.031 C18.501,81.402 19.821,80.078 21.450,80.078 C22.158,80.078 22.799,80.339 23.308,80.756 L28.886,77.647 C28.989,76.996 29.527,76.490 30.207,76.490 C30.401,76.490 30.585,76.534 30.752,76.608 L34.900,74.296 C34.855,74.160 34.814,74.022 34.814,73.871 C34.814,73.117 35.424,72.506 36.176,72.506 C36.597,72.506 36.958,72.709 37.208,73.010 L40.722,71.052 C40.572,70.833 40.464,70.583 40.464,70.297 C40.464,69.543 41.072,68.933 41.827,68.933 C42.381,68.933 42.854,69.268 43.066,69.746 L60.201,60.196 C60.340,59.777 60.722,59.470 61.188,59.470 C61.270,59.470 61.343,59.499 61.420,59.517 L67.503,56.127 L64.730,54.956 C64.542,55.132 64.294,55.244 64.016,55.244 C63.443,55.244 62.979,54.782 62.968,54.212 L57.579,51.938 C57.623,52.072 57.664,52.209 57.664,52.358 C57.664,53.111 57.055,53.721 56.303,53.721 C55.551,53.721 54.941,53.111 54.941,52.358 C54.941,51.823 55.258,51.370 55.707,51.147 L50.299,48.864 C50.244,48.848 50.194,48.828 50.146,48.800 L45.806,46.968 C45.573,47.550 45.010,47.964 44.346,47.964 C43.474,47.964 42.766,47.256 42.766,46.383 C42.766,46.155 42.819,45.941 42.907,45.744 L40.308,44.647 C40.308,44.653 40.311,44.658 40.311,44.663 C40.311,45.066 39.986,45.391 39.583,45.391 C39.180,45.391 38.854,45.066 38.854,44.663 C38.854,44.452 38.946,44.266 39.089,44.133 L33.743,41.876 C33.743,41.894 33.753,41.909 33.753,41.928 C33.753,42.801 33.047,43.508 32.174,43.508 C31.302,43.508 30.596,42.801 30.596,41.928 C30.596,41.465 30.803,41.058 31.120,40.769 L22.197,37.002 C21.952,37.239 21.621,37.389 21.253,37.389 C20.500,37.389 19.890,36.779 19.890,36.028 L8.117,31.059 L8.117,31.059 L6.401,30.335 L8.218,29.925 L8.343,29.897 C8.382,29.889 8.421,29.880 8.460,29.871 C8.460,29.871 8.460,29.871 8.461,29.871 C10.129,29.496 11.681,29.214 13.006,28.980 C13.101,28.478 13.522,28.090 14.053,28.090 C14.447,28.090 14.778,28.313 14.969,28.628 C15.627,28.505 16.164,28.393 16.497,28.291 L17.495,27.988 L17.250,29.003 C17.219,29.130 17.208,29.236 17.208,29.318 C17.208,29.447 17.232,29.516 17.261,29.567 L17.416,29.713 C17.580,29.816 17.936,29.902 18.414,29.902 C18.423,29.902 18.432,29.902 18.441,29.902 C18.446,29.902 18.451,29.902 18.456,29.902 C19.463,29.902 20.936,29.576 22.405,29.111 C23.886,28.646 25.379,28.045 26.480,27.526 C27.210,27.184 27.782,26.863 28.004,26.692 L28.004,26.692 C29.069,25.867 30.091,24.594 31.429,23.493 C31.941,23.072 32.509,22.679 33.145,22.353 C33.266,22.118 33.505,21.952 33.788,21.952 C33.856,21.952 33.917,21.973 33.980,21.991 C34.811,21.679 35.744,21.482 36.817,21.482 C36.824,21.482 36.832,21.482 36.840,21.482 C36.846,21.482 36.851,21.482 36.857,21.482 C38.288,21.482 39.494,21.828 40.481,22.392 C40.685,22.301 40.909,22.247 41.147,22.247 C42.047,22.247 42.777,22.977 42.777,23.878 C42.777,24.073 42.737,24.258 42.674,24.431 C43.054,24.976 43.361,25.557 43.599,26.147 L50.797,26.147 L52.904,26.147 L52.694,26.277 C54.757,26.792 56.364,27.327 57.596,27.889 C58.915,28.494 59.814,29.123 60.363,29.851 C60.726,30.334 60.921,30.879 60.918,31.423 C60.918,31.895 60.755,32.337 60.529,32.759 C60.530,32.782 60.542,32.801 60.542,32.825 C60.542,33.484 60.067,34.006 59.447,34.133 C59.308,34.266 59.179,34.401 59.025,34.532 C58.286,35.159 57.385,35.763 56.397,36.349 C56.517,36.336 56.637,36.329 56.755,36.328 C57.231,36.330 57.667,36.363 58.073,36.491 C58.473,36.613 58.869,36.869 59.091,37.283 C59.163,37.416 59.215,37.559 59.249,37.707 L62.217,36.327 L59.099,39.069 L58.418,39.667 L58.254,39.498 C57.819,39.681 57.330,39.816 56.763,39.816 C56.761,39.816 56.758,39.816 56.755,39.816 C56.626,39.816 56.496,39.811 56.366,39.802 C56.424,39.826 56.483,39.850 56.544,39.873 C57.723,40.340 59.208,40.766 60.791,41.152 C60.780,41.070 60.766,40.989 60.766,40.904 C60.766,39.817 61.647,38.936 62.733,38.936 C63.818,38.936 64.698,39.817 64.698,40.904 C64.698,41.285 64.585,41.639 64.397,41.940 C66.184,42.293 67.934,42.598 69.413,42.857 C69.598,41.962 70.390,41.289 71.339,41.289 C72.424,41.289 73.305,42.170 73.305,43.258 C73.305,43.352 73.290,43.442 73.277,43.532 L80.613,43.532 C80.462,43.254 80.369,42.939 80.369,42.600 C80.369,41.513 81.249,40.633 82.335,40.633 C82.538,40.633 82.729,40.672 82.912,40.729 C83.492,40.311 84.221,40.123 85.016,40.123 C85.024,40.123 85.033,40.123 85.042,40.123 C85.229,40.123 85.420,40.132 85.613,40.149 C87.198,40.281 88.579,40.436 89.791,40.610 L89.786,40.597 L90.734,40.756 C90.771,40.762 90.808,40.768 90.844,40.774 L91.172,40.829 L91.172,40.830 C92.061,40.986 92.831,41.155 93.513,41.333 C93.733,41.180 93.986,41.070 94.274,41.070 C94.873,41.070 95.366,41.464 95.548,42.003 C96.585,42.443 97.265,42.926 97.671,43.498 C97.947,43.886 98.076,44.321 98.073,44.725 C98.068,45.412 97.754,45.966 97.450,46.397 C97.178,46.776 96.880,47.093 96.760,47.245 C96.780,48.031 96.981,49.084 97.383,50.072 C97.807,51.123 98.455,52.095 99.287,52.675 C99.844,53.062 100.475,53.291 101.240,53.293 C101.376,53.290 101.490,53.243 101.666,53.058 C101.834,52.877 102.010,52.567 102.157,52.202 C102.455,51.470 102.644,50.545 102.776,49.942 L102.887,49.444 L103.395,49.475 C104.240,49.525 104.906,49.736 105.451,50.002 L105.592,50.070 L105.595,50.074 C105.746,50.152 105.897,50.234 106.046,50.325 L106.051,50.328 L106.051,50.328 C106.051,50.328 106.051,50.328 106.051,50.328 L106.155,50.391 L106.158,50.397 C106.634,50.705 107.016,51.008 107.403,51.219 C107.821,51.446 108.234,51.593 108.867,51.596 L116.095,51.596 C115.912,51.364 115.786,51.084 115.786,50.766 C115.786,50.013 116.396,49.402 117.148,49.402 C117.901,49.402 118.510,50.013 118.510,50.766 C118.510,51.084 118.384,51.364 118.201,51.596 L121.910,51.596 C121.996,51.100 122.101,50.598 122.237,50.101 C121.437,49.850 120.853,49.112 120.853,48.230 C120.853,47.142 121.733,46.261 122.820,46.261 C123.320,46.261 123.772,46.454 124.119,46.763 C124.693,46.228 125.400,45.769 126.291,45.445 C127.399,45.037 128.767,44.814 130.471,44.814 C132.564,44.814 134.547,44.946 136.449,45.172 L136.449,45.170 L136.899,45.227 L137.680,45.326 L137.677,45.332 C139.878,45.644 141.961,46.093 143.971,46.618 C144.332,46.205 144.856,45.938 145.448,45.938 C146.430,45.938 147.237,46.662 147.383,47.605 C147.595,47.672 147.812,47.733 148.022,47.802 C149.401,48.222 150.183,49.074 150.743,49.901 C151.313,50.736 151.729,51.533 152.472,52.162 L152.475,52.164 C153.005,52.641 154.070,52.865 155.383,52.865 C155.407,52.865 155.431,52.865 155.456,52.864 C155.460,52.864 155.465,52.864 155.469,52.864 C156.525,52.864 157.711,52.746 158.881,52.634 C159.175,51.919 159.877,51.414 160.698,51.414 C161.408,51.414 162.024,51.795 162.370,52.361 L162.736,52.335 L162.560,52.449 C164.117,52.487 165.471,52.649 166.652,52.976 L166.655,52.943 L167.395,53.212 L167.821,53.366 L167.820,53.378 C168.871,53.822 169.754,54.449 170.452,55.281 C171.161,56.122 171.676,57.159 172.033,58.395 L172.763,58.411 C172.757,58.359 172.732,58.314 172.732,58.261 C172.732,57.507 173.342,56.897 174.094,56.897 C174.845,56.897 175.453,57.507 175.453,58.261 C175.453,58.334 175.423,58.397 175.412,58.467 L190.607,58.792 C190.411,58.536 190.245,58.259 190.103,57.974 L189.675,57.111 L193.906,57.111 L194.011,57.537 L194.025,57.555 L194.205,57.745 C194.368,57.913 194.635,58.256 194.630,58.728 C194.626,59.144 194.436,59.482 194.187,59.732 C193.990,59.924 193.742,60.079 193.446,60.141 C194.038,60.619 194.658,61.148 195.222,61.581 L195.307,61.647 C195.552,61.834 195.784,62.000 195.989,62.129 L196.095,62.197 C196.292,62.315 196.464,62.388 196.568,62.421 L196.586,62.277 L196.587,62.220 C196.587,62.023 196.557,61.740 196.486,61.374 L196.337,60.725 C196.336,60.725 196.336,60.725 196.336,60.725 L196.336,60.724 L196.278,60.498 C196.204,60.222 196.114,59.921 196.006,59.584 L196.006,59.584 C195.958,59.438 195.933,59.285 195.933,59.134 C195.928,58.699 196.160,58.307 196.460,58.058 C196.761,57.801 197.130,57.631 197.558,57.495 C198.368,57.243 199.409,57.125 200.604,57.112 L200.606,57.111 L200.802,57.111 L201.261,57.111 C201.802,56.455 202.610,56.027 203.526,56.027 C204.610,56.027 205.548,56.620 206.060,57.493 C210.361,58.102 214.401,59.404 218.094,60.977 C218.332,60.582 218.747,60.303 219.242,60.303 C219.992,60.303 220.602,60.914 220.602,61.667 C220.602,61.809 220.562,61.939 220.521,62.068 C222.671,63.091 224.692,64.179 226.530,65.251 L226.528,65.250 C228.859,66.601 232.544,67.877 236.028,69.313 C236.407,69.471 236.783,69.631 237.156,69.793 C237.380,69.633 237.638,69.520 237.934,69.520 C238.644,69.520 239.209,70.071 239.270,70.768 C241.459,71.845 243.360,73.053 244.505,74.568 L245.000,75.231 L244.215,75.492 ZM165.211,106.277 C164.459,106.800 163.730,107.424 163.163,108.169 C162.957,108.442 162.780,108.734 162.621,109.039 C163.029,109.399 163.292,109.921 163.292,110.510 C163.292,111.353 162.761,112.066 162.017,112.346 C162.115,115.058 162.699,120.578 163.830,123.914 C163.967,124.331 164.117,124.709 164.271,125.043 C164.518,124.698 164.902,124.459 165.358,124.459 C165.381,124.459 165.401,124.471 165.424,124.472 C165.644,124.032 165.869,123.576 166.107,123.116 C166.537,122.286 167.014,121.456 167.577,120.700 C167.356,120.382 167.225,119.997 167.225,119.580 C167.225,118.493 168.106,117.612 169.192,117.612 C169.725,117.612 170.207,117.826 170.561,118.172 C170.618,117.654 170.819,117.203 171.105,116.841 L165.211,106.277 ZM167.098,105.905 C166.783,105.905 166.506,105.780 166.275,105.600 C166.256,105.612 166.238,105.622 166.219,105.633 L172.000,115.995 C172.266,115.790 172.536,115.605 172.786,115.427 C172.873,115.366 172.939,115.310 173.020,115.250 C172.945,115.081 172.899,114.896 172.899,114.699 C172.899,114.032 173.387,113.502 174.020,113.385 C174.172,112.525 174.570,111.831 175.021,111.294 C175.595,110.610 176.234,110.108 176.584,109.685 C176.770,109.462 176.862,109.293 176.893,109.147 L168.357,105.045 C168.157,105.548 167.672,105.905 167.098,105.905 ZM168.628,103.850 L170.039,104.528 L176.643,107.701 C176.587,107.420 176.544,107.107 176.541,106.760 C176.540,106.226 176.653,105.619 176.962,104.957 C176.995,104.888 177.027,104.828 177.060,104.759 C176.859,104.828 176.647,104.874 176.422,104.874 C175.337,104.874 174.457,103.993 174.457,102.906 C174.457,101.819 175.337,100.938 176.422,100.938 C177.317,100.938 178.063,101.540 178.301,102.359 C178.779,101.522 179.255,100.777 179.729,100.124 L170.474,101.586 C169.908,102.394 169.305,103.170 168.628,103.850 ZM135.821,98.985 C137.426,98.807 139.091,98.653 140.625,98.530 C140.938,97.859 141.614,97.391 142.404,97.391 C143.099,97.391 143.707,97.755 144.056,98.301 C144.734,98.267 145.310,98.248 145.729,98.248 C145.732,98.248 145.736,98.248 145.740,98.248 C147.566,98.248 148.932,98.704 150.049,99.135 C151.167,99.570 152.026,99.943 152.907,99.943 C152.912,99.943 152.919,99.943 152.924,99.943 L157.122,99.943 C157.125,99.933 157.128,99.924 157.131,99.914 C156.149,99.804 155.382,98.981 155.382,97.968 C155.382,97.881 155.397,97.799 155.407,97.716 C153.077,96.268 150.400,94.602 147.595,92.856 C147.400,92.921 147.195,92.965 146.977,92.965 C145.983,92.965 145.170,92.223 145.039,91.263 C141.911,89.315 138.741,87.336 135.807,85.502 C135.640,85.576 135.456,85.620 135.262,85.620 C134.529,85.620 133.944,85.040 133.912,84.316 C131.031,82.513 128.470,80.904 126.596,79.718 C126.409,79.917 126.203,80.095 125.984,80.259 L135.821,98.985 ZM117.239,119.727 C116.354,119.579 115.597,119.171 115.005,118.667 C114.260,118.034 113.736,117.271 113.399,116.652 C113.174,116.233 113.036,115.898 112.970,115.640 C112.953,115.566 112.936,115.503 112.934,115.388 C112.938,114.595 113.301,113.879 113.796,113.215 C114.296,112.549 114.950,111.921 115.650,111.317 C117.044,110.118 118.639,109.003 119.456,108.178 C120.229,107.406 121.095,106.462 122.018,105.491 C121.870,105.274 121.763,105.026 121.763,104.742 C121.763,103.989 122.373,103.379 123.125,103.379 C123.404,103.379 123.649,103.484 123.865,103.628 C123.898,103.597 123.929,103.564 123.962,103.533 C125.646,101.950 127.474,100.530 129.466,99.966 L129.475,99.963 C130.610,99.665 132.460,99.384 134.549,99.132 L124.953,80.864 C124.393,81.097 123.779,81.228 123.134,81.228 C122.888,81.228 122.651,81.192 122.414,81.155 L107.605,112.821 L122.413,81.155 L107.599,112.835 L107.605,112.821 L104.080,120.358 C104.611,120.484 105.053,120.825 105.320,121.286 L117.280,120.025 C117.257,119.928 117.247,119.829 117.239,119.727 ZM118.443,75.740 L114.284,74.143 C113.749,74.688 113.006,75.028 112.183,75.028 C110.597,75.028 109.316,73.775 109.246,72.207 L105.881,70.914 C105.345,71.469 104.597,71.816 103.765,71.816 C102.173,71.816 100.886,70.552 100.827,68.973 L96.052,67.139 C95.812,67.526 95.403,67.798 94.915,67.798 C94.162,67.798 93.552,67.189 93.552,66.436 C93.552,66.351 93.586,66.277 93.600,66.197 L80.854,61.300 C80.612,61.522 80.295,61.665 79.941,61.665 C79.235,61.665 78.675,61.123 78.606,60.436 L70.488,57.318 L74.844,63.481 C74.888,63.475 74.927,63.454 74.973,63.454 C75.555,63.454 76.026,63.926 76.026,64.508 C76.026,64.680 75.975,64.835 75.903,64.978 L79.925,70.669 C79.999,70.652 80.068,70.624 80.147,70.624 C80.728,70.624 81.199,71.095 81.199,71.678 C81.199,71.883 81.125,72.063 81.024,72.224 L82.965,74.970 L84.371,76.958 C84.486,76.927 84.600,76.887 84.725,76.887 C85.476,76.887 86.085,77.496 86.085,78.250 C86.085,78.539 85.975,78.791 85.822,79.012 L97.460,95.475 C97.652,95.436 97.850,95.415 98.053,95.415 C98.925,95.415 99.700,95.801 100.240,96.403 L103.526,93.584 C103.228,93.152 103.051,92.630 103.051,92.066 C103.051,90.586 104.249,89.388 105.727,89.388 C106.438,89.388 107.080,89.670 107.559,90.123 L119.677,79.724 C118.872,78.870 118.371,77.726 118.371,76.460 C118.371,76.213 118.407,75.977 118.443,75.740 ZM63.904,70.431 C63.596,70.431 63.305,70.371 63.026,70.283 L59.748,77.467 C59.748,77.468 59.748,77.469 59.748,77.470 C59.748,78.059 59.484,78.582 59.074,78.942 L56.644,84.270 C56.884,84.515 57.034,84.851 57.034,85.223 C57.034,85.974 56.426,86.583 55.675,86.583 C55.646,86.583 55.623,86.569 55.595,86.567 L51.785,94.917 C52.432,95.458 52.852,96.262 52.852,97.172 C52.852,97.329 52.830,97.481 52.806,97.632 L62.533,97.672 C62.754,96.826 63.515,96.200 64.429,96.200 C65.348,96.200 66.112,96.834 66.328,97.687 L71.818,97.710 L77.655,97.734 L77.655,97.734 L71.818,97.710 L77.655,97.734 C77.907,96.936 78.643,96.355 79.522,96.355 C80.406,96.355 81.146,96.944 81.393,97.749 L95.162,97.805 C95.307,97.049 95.742,96.400 96.346,95.968 L91.975,89.784 C91.827,89.863 91.667,89.919 91.488,89.919 C90.907,89.919 90.436,89.447 90.436,88.866 C90.436,88.559 90.572,88.288 90.781,88.095 L89.511,86.298 L84.777,79.601 C84.759,79.602 84.744,79.612 84.725,79.612 C83.972,79.612 83.363,79.002 83.363,78.250 C83.363,78.070 83.402,77.901 83.464,77.744 L79.883,72.678 C79.433,72.559 79.094,72.166 79.094,71.678 C79.094,71.646 79.110,71.619 79.112,71.588 L74.832,65.533 C74.321,65.461 73.921,65.039 73.921,64.508 C73.921,64.435 73.949,64.371 73.963,64.303 L70.383,59.238 C70.138,59.598 69.746,59.849 69.278,59.849 C68.769,59.849 68.342,59.558 68.109,59.145 L65.448,64.975 C66.288,65.495 66.853,66.417 66.853,67.479 C66.853,69.109 65.533,70.431 63.904,70.431 ZM58.157,132.616 C58.157,132.616 58.156,132.616 58.156,132.616 C58.156,132.616 58.157,132.616 58.157,132.616 L58.164,132.618 L58.163,132.618 L67.112,135.508 C67.488,134.976 68.105,134.627 68.806,134.627 C69.953,134.627 70.883,135.558 70.883,136.707 C70.883,136.713 70.881,136.719 70.881,136.725 L87.522,142.098 L87.550,141.902 L87.847,142.083 L88.050,141.794 C88.234,141.255 88.565,140.791 89.001,140.443 L94.368,132.812 L94.367,132.811 L94.381,132.791 C93.707,132.459 93.094,132.039 92.686,131.397 C92.686,131.396 92.685,131.395 92.685,131.395 C91.787,129.968 91.191,128.449 90.597,127.041 C90.050,125.738 89.503,124.534 88.768,123.571 L84.474,123.819 C84.259,125.419 82.904,126.659 81.246,126.659 C79.718,126.659 78.445,125.605 78.085,124.189 L76.826,124.261 C76.546,124.677 76.291,125.112 76.059,125.561 L74.999,125.012 C75.115,124.788 75.237,124.565 75.364,124.346 L69.579,124.680 L69.363,124.869 L69.233,124.700 L39.045,126.443 L40.303,126.850 L56.189,131.980 C58.372,131.298 60.755,130.484 63.249,130.272 C63.371,130.262 63.493,130.253 63.615,130.246 L63.685,131.439 C61.830,131.547 59.969,132.056 58.157,132.616 ZM90.146,123.458 C90.771,124.424 91.240,125.494 91.697,126.577 C91.470,126.038 91.239,125.502 90.988,124.981 C91.239,125.502 91.470,126.037 91.697,126.575 C92.297,128.002 92.875,129.456 93.697,130.758 L93.699,130.762 C93.709,130.779 93.727,130.795 93.738,130.811 C93.727,130.795 93.708,130.780 93.699,130.764 C93.921,131.136 94.390,131.467 95.003,131.762 C95.027,131.774 95.055,131.785 95.080,131.797 L95.689,130.930 C95.348,130.448 95.142,129.863 95.142,129.227 C95.142,127.598 96.462,126.276 98.091,126.276 C98.365,126.276 98.624,126.325 98.876,126.395 L101.372,122.844 L90.167,123.491 C90.401,123.855 90.598,124.245 90.797,124.634 C90.593,124.233 90.389,123.833 90.146,123.458 ZM99.946,126.951 C100.608,127.492 101.039,128.305 101.039,129.227 C101.039,130.858 99.719,132.179 98.091,132.179 C97.534,132.179 97.019,132.015 96.575,131.747 L96.218,132.256 C96.752,132.447 97.315,132.633 97.858,132.841 C98.645,133.146 99.397,133.488 99.964,134.051 C100.345,134.436 100.657,134.933 100.994,135.450 L99.991,136.099 C99.939,136.018 99.888,135.937 99.837,135.860 C99.567,135.446 99.320,135.093 99.123,134.904 L99.118,134.898 C98.782,134.552 98.165,134.236 97.430,133.957 C96.832,133.727 96.162,133.514 95.506,133.269 L90.915,139.798 C92.103,139.832 93.116,140.563 93.551,141.602 L114.991,138.967 L115.580,138.894 C115.697,138.868 115.817,138.854 115.941,138.850 L118.099,138.584 L106.995,127.456 L103.767,124.221 C103.720,124.224 103.675,124.235 103.626,124.235 C103.090,124.235 102.605,124.019 102.250,123.671 L99.946,126.951 ZM89.287,122.308 L89.287,122.308 L89.274,122.309 L89.287,122.308 ZM78.029,122.837 C77.992,122.872 77.949,122.901 77.912,122.937 L78.020,122.931 C78.024,122.900 78.024,122.868 78.029,122.837 ZM69.731,117.306 C71.360,117.306 72.680,118.629 72.680,120.259 C72.680,120.310 72.667,120.357 72.665,120.407 L79.399,114.539 C79.049,114.293 78.806,113.906 78.806,113.446 C78.806,112.693 79.416,112.083 80.168,112.083 C80.693,112.083 81.136,112.391 81.363,112.828 L95.799,100.248 C95.502,99.892 95.280,99.471 95.177,99.001 L81.379,98.944 C81.118,99.725 80.390,100.291 79.522,100.291 C78.648,100.291 77.916,99.718 77.660,98.929 L66.255,98.882 C65.970,99.615 65.262,100.136 64.429,100.136 C63.589,100.136 62.878,99.607 62.596,98.867 L52.347,98.825 C52.121,99.159 51.825,99.439 51.484,99.656 L66.849,119.640 C67.134,118.307 68.315,117.306 69.731,117.306 ZM95.162,97.806 C95.162,97.806 95.162,97.806 95.162,97.806 L81.431,97.749 L81.393,97.749 L81.393,97.749 L81.431,97.749 L95.162,97.806 ZM108.251,91.216 C108.341,91.484 108.402,91.767 108.402,92.066 C108.402,93.544 107.204,94.743 105.727,94.743 C105.291,94.743 104.885,94.629 104.521,94.444 L100.886,97.589 C100.955,97.838 101.003,98.096 101.003,98.367 C101.003,99.997 99.682,101.318 98.053,101.318 C97.631,101.318 97.231,101.226 96.868,101.066 L71.162,123.309 L76.238,123.029 C76.238,123.029 76.238,123.029 76.238,123.029 C76.891,122.179 77.704,121.412 78.750,120.850 C79.880,120.243 81.272,119.883 82.983,119.879 C82.987,119.879 82.990,119.879 82.994,119.879 C83.002,119.879 83.010,119.879 83.018,119.879 C83.020,119.879 83.023,119.879 83.026,119.879 L83.026,120.640 C83.704,121.082 84.201,121.770 84.406,122.578 L87.644,122.399 C87.604,122.367 87.563,122.337 87.522,122.307 L88.224,121.340 C88.625,121.632 88.968,121.966 89.273,122.309 L89.288,122.308 L89.310,122.307 L89.409,122.302 L101.777,121.621 C101.935,121.166 102.254,120.791 102.668,120.558 L121.246,80.835 C121.031,80.742 120.830,80.624 120.633,80.502 L108.251,91.216 ZM102.669,120.558 C102.669,120.558 102.669,120.558 102.669,120.558 L121.246,80.835 C121.246,80.835 121.246,80.835 121.246,80.835 L102.669,120.558 ZM123.013,118.802 C122.552,118.464 122.121,118.299 121.861,118.299 C121.856,118.299 121.851,118.299 121.846,118.299 C121.702,118.302 121.612,118.332 121.516,118.402 C121.332,118.541 121.154,118.643 120.974,118.760 C121.088,119.009 121.156,119.284 121.156,119.576 C121.156,119.590 121.152,119.603 121.152,119.617 L123.662,119.352 C123.445,119.143 123.226,118.956 123.013,118.802 ZM131.103,128.025 C130.669,128.277 130.170,128.433 129.632,128.433 C129.518,128.433 129.410,128.412 129.299,128.399 L129.299,129.992 L131.247,128.369 C131.202,128.266 131.152,128.145 131.103,128.025 ZM130.577,131.034 C131.584,131.034 132.404,131.793 132.520,132.770 C132.727,132.771 132.926,132.799 133.114,132.851 C132.679,131.801 132.144,130.746 131.695,129.552 L129.576,131.317 C129.870,131.141 130.210,131.034 130.577,131.034 ZM129.433,141.737 C129.647,141.487 130.020,141.247 130.460,141.247 C130.466,141.247 130.472,141.248 130.478,141.248 L130.669,141.248 C130.605,141.172 130.541,141.095 130.476,141.016 C130.384,140.902 130.293,140.778 130.204,140.654 C130.046,140.718 129.874,140.757 129.692,140.757 C129.460,140.757 129.252,140.684 129.061,140.582 C129.047,140.799 129.038,141.024 129.038,141.262 C129.037,141.460 129.009,141.761 128.982,142.128 C128.974,142.235 128.966,142.346 128.959,142.457 C129.079,142.232 129.222,141.977 129.433,141.737 ZM129.080,135.963 C129.216,136.288 129.387,136.761 129.382,137.443 C129.382,137.477 129.382,137.511 129.381,137.545 L129.383,137.545 C129.405,136.872 129.465,136.174 129.613,135.515 C129.667,135.277 129.737,135.045 129.819,134.818 C129.477,134.674 129.187,134.435 128.975,134.136 C128.912,134.390 128.867,134.663 128.865,135.069 C128.871,135.474 128.947,135.629 129.080,135.963 ZM129.632,122.529 C129.970,122.529 130.289,122.597 130.591,122.702 C130.622,122.378 130.659,122.079 130.656,121.816 C130.656,121.619 130.636,121.432 130.579,121.228 L130.579,121.228 C130.455,120.824 130.267,120.382 130.083,119.878 L129.825,119.905 C129.807,119.952 129.801,119.991 129.800,120.050 L129.800,120.540 L129.320,120.635 C129.171,120.666 129.022,120.755 128.853,120.960 C128.688,121.161 128.528,121.468 128.401,121.837 C128.284,122.171 128.197,122.555 128.133,122.951 C128.574,122.689 129.082,122.529 129.632,122.529 ZM126.598,121.428 C126.766,121.792 126.903,122.152 126.995,122.507 C127.017,122.389 127.042,122.272 127.069,122.155 C127.242,121.425 127.499,120.738 127.928,120.205 C128.115,119.974 128.346,119.769 128.620,119.628 L128.769,119.339 L128.867,119.147 L128.906,119.072 L128.951,118.954 L128.951,118.684 C128.415,119.428 127.549,119.916 126.563,119.916 C126.218,119.916 125.892,119.845 125.585,119.737 L126.035,120.304 L125.975,120.310 C126.212,120.677 126.423,121.054 126.598,121.428 ZM121.449,138.246 L121.684,138.225 C121.841,137.993 121.993,137.754 122.141,137.510 L121.235,138.265 L121.449,138.246 ZM120.284,140.031 C120.430,139.871 120.580,139.696 120.733,139.509 L120.193,139.556 L120.153,139.560 C120.192,139.698 120.236,139.856 120.284,140.031 ZM119.759,137.939 L123.374,134.928 C123.441,134.724 123.498,134.526 123.538,134.344 L123.540,134.335 C123.696,133.682 123.732,133.099 123.732,132.519 C123.732,132.053 123.707,131.589 123.707,131.104 C123.703,130.111 123.826,129.010 124.521,127.788 C125.002,126.939 125.936,125.074 125.927,123.409 C125.930,123.048 125.786,122.507 125.516,121.934 C125.289,121.448 124.978,120.934 124.622,120.453 L120.660,120.870 C120.300,121.280 119.778,121.544 119.190,121.544 C118.750,121.544 118.347,121.394 118.019,121.149 L115.401,121.424 L105.571,122.461 C105.522,122.956 105.296,123.396 104.949,123.714 L119.423,138.219 L119.759,137.939 ZM107.200,153.805 C107.333,153.809 107.464,153.811 107.595,153.812 C107.598,153.812 107.602,153.812 107.605,153.812 C108.555,153.812 109.579,153.314 110.637,152.419 C110.766,152.310 110.895,152.180 111.024,152.061 C111.024,152.058 111.022,152.056 111.022,152.053 C111.022,151.317 111.608,150.726 112.336,150.700 C112.828,150.131 113.317,149.515 113.798,148.865 C115.789,146.185 117.639,143.052 119.326,141.079 L118.946,139.684 L117.712,139.836 C117.878,140.124 117.980,140.454 117.980,140.811 C117.980,141.898 117.100,142.779 116.015,142.779 C114.928,142.779 114.048,141.898 114.048,140.811 C114.048,140.624 114.082,140.447 114.131,140.276 L93.776,142.778 C93.765,143.659 93.364,144.437 92.743,144.971 C93.250,145.277 93.780,145.598 94.351,145.946 C97.862,148.079 102.509,150.924 107.200,153.805 ZM90.835,175.629 L91.362,175.728 L91.236,176.326 C91.203,176.477 91.152,176.606 91.095,176.716 L91.177,176.716 C91.384,176.528 91.595,176.382 91.840,176.282 C91.949,176.237 92.059,176.201 92.175,176.167 C92.308,175.442 92.914,174.883 93.677,174.883 C93.984,174.883 94.254,174.995 94.496,175.149 C94.674,175.117 94.854,175.086 95.009,175.060 C95.273,175.020 95.507,174.974 95.540,174.960 L95.551,174.956 L95.568,174.951 C96.048,174.806 96.291,174.615 96.500,174.240 C96.625,174.008 96.717,173.671 96.774,173.242 C96.276,172.995 95.930,172.499 95.910,171.910 L95.148,172.025 L91.745,172.539 C91.667,172.651 91.584,172.753 91.479,172.841 C91.533,173.006 91.579,173.186 91.581,173.406 C91.578,173.538 91.554,173.610 91.533,173.681 L91.460,173.870 C91.407,173.991 91.344,174.115 91.277,174.248 C91.143,174.511 90.993,174.806 90.906,175.045 C90.846,175.201 90.822,175.334 90.825,175.362 C90.824,175.471 90.827,175.569 90.835,175.629 ZM86.661,162.149 C86.989,162.331 87.251,162.450 87.686,162.453 L88.647,162.453 L88.220,163.316 C88.101,163.559 88.095,163.648 88.094,163.691 C88.091,163.734 88.112,163.816 88.169,164.026 C88.223,164.231 88.283,164.529 88.282,164.920 C88.284,165.161 88.228,165.392 88.132,165.579 C88.037,165.768 87.915,165.907 87.809,166.011 C87.589,166.219 87.456,166.325 87.409,166.415 C87.376,166.475 87.349,166.535 87.346,166.699 C87.344,166.782 87.378,167.021 87.448,167.213 C87.490,167.345 87.556,167.453 87.599,167.510 C87.645,167.484 87.708,167.449 87.781,167.409 C88.000,167.290 88.343,167.134 88.778,167.134 C88.779,167.134 88.781,167.134 88.782,167.134 C88.919,167.135 89.055,167.164 89.192,167.181 C89.169,167.082 89.131,166.988 89.131,166.882 C89.131,166.128 89.741,165.518 90.493,165.518 C91.245,165.518 91.853,166.128 91.853,166.882 C91.853,167.422 91.534,167.879 91.079,168.099 C91.173,168.197 91.279,168.281 91.355,168.398 C91.545,168.683 91.668,169.035 91.667,169.415 C91.665,169.789 91.517,170.109 91.308,170.366 C91.642,170.577 91.879,170.900 91.977,171.295 L96.591,170.599 C96.621,170.578 96.650,170.557 96.681,170.539 C96.599,170.066 96.474,169.639 96.329,169.228 C96.307,169.229 96.287,169.235 96.265,169.235 C94.636,169.235 93.315,167.914 93.315,166.284 C93.315,165.914 93.391,165.563 93.515,165.237 C93.273,164.991 93.027,164.728 92.808,164.407 C92.479,163.927 92.231,163.313 92.234,162.580 C92.234,162.438 92.243,162.290 92.261,162.138 L92.326,161.613 L92.854,161.613 C92.858,161.613 92.863,161.613 92.867,161.613 C93.610,161.613 94.309,161.168 94.918,160.558 C94.515,160.198 94.256,159.679 94.256,159.096 C94.256,158.008 95.136,157.127 96.223,157.127 C96.806,157.127 97.323,157.386 97.683,157.789 C98.083,156.977 98.459,156.267 98.915,155.596 C99.504,154.727 100.228,153.937 101.267,153.106 L101.454,152.924 L101.739,152.961 L101.792,152.971 L101.802,152.973 L101.814,152.975 L101.840,152.982 L101.931,153.004 C102.010,153.024 102.125,153.051 102.269,153.085 C102.559,153.151 102.970,153.241 103.455,153.336 C103.692,153.382 103.945,153.428 104.211,153.474 L91.377,145.638 C91.200,145.671 91.018,145.693 90.831,145.693 C89.822,145.693 88.934,145.185 88.402,144.412 L86.621,157.058 L86.588,157.292 C87.234,157.834 87.654,158.637 87.654,159.548 C87.654,160.560 87.143,161.453 86.366,161.984 C86.461,162.041 86.576,162.102 86.661,162.149 ZM41.128,130.365 C41.138,130.375 41.149,130.385 41.159,130.395 C41.169,130.405 41.179,130.414 41.189,130.424 C41.230,130.465 41.271,130.505 41.313,130.546 C41.354,130.586 41.395,130.627 41.437,130.668 C41.571,130.799 41.706,130.932 41.844,131.067 C41.849,131.072 41.853,131.076 41.858,131.081 C41.954,131.175 42.052,131.271 42.150,131.368 C42.159,131.376 42.167,131.384 42.175,131.392 C42.947,132.150 43.778,132.965 44.660,133.831 L55.155,144.082 C54.770,143.583 54.532,142.966 54.532,142.287 C54.532,140.657 55.852,139.336 57.480,139.336 C59.109,139.336 60.430,140.657 60.430,142.287 C60.430,143.917 59.109,145.239 57.480,145.239 C56.843,145.239 56.256,145.031 55.774,144.686 L56.818,145.706 C56.818,145.706 66.080,154.796 73.826,162.431 C74.216,162.144 74.616,161.838 74.977,161.532 C75.465,161.119 75.877,160.696 76.079,160.368 L76.084,160.360 L76.087,160.355 C76.102,160.335 76.162,160.225 76.238,160.095 C76.317,159.963 76.420,159.803 76.560,159.642 C76.828,159.324 77.301,158.983 77.929,158.983 C77.933,158.983 77.937,158.983 77.941,158.983 C78.440,158.995 78.804,159.235 79.129,159.498 C79.451,159.769 79.722,160.094 79.913,160.429 C80.036,160.657 80.140,160.877 80.147,161.184 C80.148,161.883 79.828,162.423 79.521,162.837 C79.208,163.257 78.897,163.602 78.723,163.945 C78.719,163.953 78.714,163.962 78.710,163.970 C79.436,163.781 80.197,163.354 81.028,162.876 C81.628,162.538 82.273,162.189 82.974,161.926 C82.239,161.390 81.756,160.528 81.756,159.548 C81.756,157.917 83.076,156.595 84.706,156.595 C84.970,156.595 85.221,156.641 85.465,156.706 L87.315,143.573 L86.752,143.642 L87.056,143.210 C86.213,142.944 84.721,142.475 82.768,141.859 C83.241,142.218 83.551,142.781 83.551,143.423 C83.551,144.509 82.671,145.390 81.586,145.390 C80.499,145.390 79.619,144.509 79.619,143.423 C79.619,142.360 80.459,141.503 81.510,141.462 C78.500,140.512 74.649,139.295 70.450,137.964 C70.071,138.461 69.478,138.786 68.806,138.786 C67.684,138.786 66.777,137.896 66.735,136.785 C63.153,135.647 59.445,134.466 55.885,133.326 C54.276,133.815 52.725,134.222 51.248,134.225 C51.241,134.225 51.235,134.225 51.228,134.225 C50.714,134.225 50.240,134.178 49.783,134.113 C49.546,134.512 49.130,134.793 48.632,134.793 C47.880,134.793 47.270,134.184 47.270,133.430 C47.270,133.423 47.274,133.417 47.274,133.411 C46.367,133.025 45.563,132.553 44.806,132.088 C43.563,131.328 42.427,130.610 41.004,130.243 C41.045,130.283 41.086,130.324 41.128,130.365 ZM39.531,128.799 C39.534,128.803 39.538,128.806 39.542,128.810 C39.677,128.818 39.801,128.839 39.931,128.852 C41.311,128.993 42.455,129.410 43.472,129.932 C44.136,130.272 44.749,130.652 45.348,131.019 C45.375,131.035 45.405,131.051 45.431,131.067 C46.220,131.548 46.989,132.000 47.838,132.352 C48.064,132.185 48.329,132.067 48.632,132.067 C49.203,132.067 49.687,132.420 49.889,132.919 C50.315,132.982 50.759,133.026 51.248,133.027 C51.252,133.027 51.256,133.027 51.260,133.027 C51.343,133.027 51.437,133.009 51.521,133.006 C51.437,133.009 51.342,133.030 51.259,133.030 C52.028,133.030 52.886,132.876 53.791,132.657 C47.286,130.569 41.516,128.694 38.295,127.592 C38.664,127.952 39.077,128.356 39.531,128.799 ZM68.289,123.473 L61.491,114.631 L50.305,100.083 C50.173,100.101 50.041,100.123 49.904,100.123 C49.721,100.123 49.544,100.101 49.371,100.069 L45.822,107.222 C45.824,107.252 45.831,107.281 45.831,107.312 C45.831,107.988 45.490,108.585 44.970,108.939 L36.817,125.372 L68.289,123.473 ZM8.273,98.620 C8.776,98.220 9.405,97.971 10.098,97.971 C11.727,97.971 13.046,99.292 13.046,100.923 C13.046,101.577 12.826,102.176 12.466,102.666 L19.464,109.418 C19.921,109.127 20.459,108.953 21.041,108.953 C22.668,108.953 23.989,110.275 23.989,111.905 C23.989,112.447 23.832,112.949 23.577,113.386 L29.907,119.492 C30.436,118.989 31.147,118.675 31.934,118.675 C33.563,118.675 34.883,119.997 34.883,121.627 C34.883,122.376 34.595,123.052 34.136,123.572 L35.651,125.035 L43.487,109.241 C42.583,109.064 41.899,108.269 41.899,107.312 C41.899,106.224 42.780,105.343 43.866,105.343 C44.369,105.343 44.823,105.538 45.170,105.849 L48.260,99.622 C47.869,99.359 47.556,98.997 47.329,98.582 L28.024,96.610 C27.791,97.027 27.363,97.321 26.852,97.321 C26.242,97.321 25.745,96.912 25.571,96.360 L24.273,96.227 C23.896,97.422 22.793,98.294 21.474,98.294 C19.948,98.294 18.708,97.130 18.556,95.643 L15.555,95.336 C15.315,95.720 14.908,95.989 14.422,95.989 C13.834,95.989 13.345,95.613 13.154,95.091 L10.635,94.834 L3.603,94.115 L8.273,98.620 ZM62.222,60.438 C62.225,60.468 62.240,60.494 62.240,60.524 C62.240,61.105 61.769,61.577 61.188,61.577 C60.954,61.577 60.749,61.486 60.574,61.356 L59.358,62.034 L42.716,71.308 C42.578,71.430 42.416,71.518 42.236,71.576 L37.463,74.236 C37.300,74.806 36.798,75.231 36.176,75.231 C36.046,75.231 35.928,75.191 35.809,75.157 L31.507,77.555 C31.530,77.654 31.567,77.747 31.567,77.853 C31.567,78.605 30.959,79.214 30.207,79.214 C29.831,79.214 29.491,79.062 29.244,78.816 L24.068,81.700 C24.272,82.102 24.398,82.550 24.398,83.031 C24.398,84.662 23.078,85.984 21.450,85.984 C20.382,85.984 19.455,85.410 18.938,84.559 L13.032,87.851 C13.143,88.161 13.214,88.491 13.214,88.840 C13.214,90.471 11.894,91.792 10.266,91.792 C9.332,91.792 8.510,91.349 7.969,90.672 L3.893,92.943 L3.893,92.943 L13.297,93.904 C13.539,93.528 13.941,93.263 14.422,93.263 C15.004,93.263 15.492,93.633 15.686,94.148 L18.677,94.454 C19.056,93.262 20.157,92.392 21.474,92.392 C22.999,92.392 24.237,93.554 24.392,95.038 L25.766,95.178 C26.013,94.834 26.397,94.596 26.852,94.596 C27.410,94.596 27.887,94.934 28.097,95.416 L32.606,95.877 C32.566,95.765 32.535,95.648 32.535,95.522 C32.535,94.939 33.006,94.467 33.588,94.467 C34.168,94.467 34.639,94.939 34.639,95.522 C34.639,95.726 34.566,95.906 34.465,96.067 L39.062,96.537 C39.140,96.218 39.414,95.977 39.756,95.977 C40.150,95.977 40.465,96.291 40.478,96.681 L45.352,97.179 L46.973,97.345 C46.969,97.286 46.955,97.231 46.955,97.172 C46.955,95.542 48.275,94.220 49.904,94.220 C50.192,94.220 50.465,94.275 50.728,94.352 C51.704,92.209 53.046,89.263 54.555,85.953 C54.415,85.739 54.313,85.498 54.313,85.223 C54.313,84.533 54.830,83.989 55.492,83.896 C56.156,82.440 56.841,80.937 57.536,79.413 C56.568,79.290 55.817,78.472 55.817,77.470 C55.817,76.382 56.697,75.502 57.783,75.502 C58.286,75.502 58.740,75.697 59.088,76.008 C60.067,73.861 61.041,71.724 61.969,69.690 C61.353,69.149 60.956,68.364 60.956,67.479 C60.956,65.849 62.276,64.528 63.904,64.528 C64.042,64.528 64.173,64.550 64.306,64.568 C65.692,61.532 66.842,59.014 67.550,57.469 L62.222,60.438 ZM42.765,27.342 L42.625,26.945 C42.428,26.390 42.173,25.846 41.853,25.342 C41.638,25.446 41.401,25.509 41.147,25.509 C40.247,25.509 39.518,24.779 39.518,23.878 C39.518,23.676 39.560,23.485 39.626,23.307 C38.868,22.924 37.967,22.680 36.840,22.677 C35.880,22.680 35.070,22.848 34.351,23.124 C34.218,23.294 34.020,23.411 33.788,23.411 C33.766,23.411 33.748,23.400 33.727,23.398 C33.170,23.681 32.665,24.029 32.185,24.419 C31.693,24.819 31.238,25.266 30.788,25.716 C30.793,25.716 30.798,25.713 30.803,25.713 C31.219,25.713 31.555,26.050 31.555,26.467 C31.555,26.883 31.219,27.219 30.803,27.219 C30.387,27.219 30.050,26.883 30.050,26.467 C30.050,26.456 30.056,26.448 30.056,26.438 C29.628,26.861 29.196,27.276 28.730,27.641 L28.722,27.647 C28.352,27.923 27.762,28.242 26.988,28.607 C26.830,28.681 26.640,28.760 26.469,28.837 C26.651,28.974 26.777,29.183 26.777,29.429 C26.777,29.845 26.441,30.182 26.026,30.182 C25.610,30.182 25.273,29.845 25.273,29.429 C25.273,29.396 25.287,29.368 25.291,29.336 C24.962,29.469 24.635,29.602 24.287,29.730 C22.290,30.460 20.089,31.090 18.441,31.096 C17.984,31.095 17.563,31.048 17.179,30.913 C16.799,30.781 16.438,30.538 16.223,30.158 C16.132,29.998 16.071,29.820 16.040,29.636 C15.699,29.709 15.308,29.783 14.878,29.861 C14.678,30.102 14.389,30.265 14.053,30.265 C13.853,30.265 13.677,30.197 13.516,30.103 C12.583,30.268 11.529,30.455 10.399,30.681 C10.399,30.681 10.400,30.681 10.400,30.681 L13.334,31.908 C13.470,31.772 13.657,31.688 13.865,31.688 C14.280,31.688 14.617,32.025 14.617,32.440 C14.617,32.441 14.616,32.442 14.616,32.443 L17.033,33.453 C17.152,33.376 17.285,33.319 17.437,33.319 C17.800,33.319 18.088,33.582 18.159,33.924 L20.517,34.909 C20.732,34.767 20.975,34.664 21.253,34.664 C21.911,34.664 22.433,35.141 22.560,35.763 L24.608,36.619 C24.477,36.384 24.396,36.117 24.396,35.828 C24.396,34.928 25.125,34.198 26.025,34.198 C26.925,34.198 27.654,34.928 27.654,35.828 C27.654,36.577 27.148,37.201 26.461,37.393 L29.999,38.871 L34.649,36.003 C34.843,35.756 35.111,35.590 35.429,35.522 L40.237,32.556 C40.115,32.331 40.026,32.086 40.026,31.812 C40.026,30.939 40.733,30.232 41.605,30.232 C42.142,30.232 42.593,30.517 42.878,30.927 L47.180,28.274 C47.180,28.271 47.178,28.268 47.178,28.264 C47.178,27.906 47.323,27.586 47.548,27.342 L42.765,27.342 ZM56.733,38.621 C56.741,38.621 56.748,38.621 56.755,38.621 C57.246,38.619 57.638,38.484 58.080,38.261 L58.108,38.195 C58.107,38.015 58.075,37.915 58.042,37.854 L57.882,37.701 C57.715,37.600 57.328,37.523 56.803,37.523 C56.787,37.523 56.771,37.523 56.755,37.523 C56.753,37.523 56.752,37.523 56.750,37.523 C56.509,37.523 56.235,37.573 56.014,37.661 C55.788,37.748 55.626,37.874 55.558,37.978 L55.490,38.195 L55.526,38.309 C55.551,38.343 55.613,38.398 55.726,38.449 C55.945,38.554 56.335,38.621 56.733,38.621 ZM69.567,44.098 C67.682,43.767 65.300,43.360 62.896,42.855 C62.841,42.859 62.789,42.871 62.733,42.871 C62.378,42.871 62.049,42.770 61.762,42.605 C60.383,42.296 59.033,41.959 57.825,41.583 C56.398,41.139 55.161,40.652 54.248,40.076 C53.946,39.884 53.675,39.682 53.448,39.458 C51.199,41.272 49.525,42.464 48.267,43.221 C46.916,44.023 46.066,44.358 45.353,44.371 C45.343,44.371 45.333,44.371 45.322,44.371 C44.939,44.371 44.549,44.213 44.328,43.920 C44.101,43.625 44.057,43.304 44.055,43.037 C44.065,42.373 44.332,41.813 44.341,41.776 L44.372,41.704 L44.421,41.643 C44.836,41.132 45.493,40.696 46.343,40.198 C46.981,39.830 47.746,39.438 48.553,39.035 C48.401,38.815 48.291,38.563 48.291,38.275 C48.291,37.522 48.900,36.912 49.653,36.912 C50.260,36.912 50.755,37.316 50.931,37.865 C51.553,37.560 52.183,37.250 52.808,36.934 C52.193,36.602 51.770,35.959 51.770,35.209 C51.770,34.122 52.650,33.240 53.736,33.240 C54.821,33.240 55.701,34.122 55.701,35.209 C55.701,35.264 55.690,35.315 55.685,35.369 C55.863,35.264 56.056,35.161 56.227,35.056 C56.963,34.604 57.613,34.144 58.155,33.694 C57.954,33.457 57.820,33.161 57.820,32.825 C57.820,32.071 58.430,31.462 59.182,31.462 C59.364,31.462 59.536,31.501 59.695,31.566 C59.700,31.520 59.725,31.466 59.725,31.423 C59.723,31.153 59.643,30.887 59.407,30.567 C59.170,30.249 58.769,29.893 58.162,29.528 C56.959,28.802 54.968,28.052 52.021,27.342 L50.966,27.342 L49.853,28.029 C49.867,28.109 49.900,28.181 49.900,28.264 C49.900,29.017 49.292,29.626 48.540,29.626 C48.232,29.626 47.963,29.506 47.736,29.335 L43.108,32.190 C42.935,32.875 42.343,33.391 41.605,33.391 C41.486,33.391 41.381,33.348 41.269,33.323 L36.809,36.074 C36.959,36.293 37.066,36.544 37.066,36.829 C37.066,37.582 36.458,38.191 35.706,38.191 C35.193,38.191 34.764,37.897 34.531,37.479 L31.348,39.443 L44.076,44.858 C44.167,44.841 44.250,44.803 44.346,44.803 C44.891,44.803 45.348,45.098 45.632,45.519 L50.271,47.493 C50.344,47.468 50.419,47.447 50.501,47.447 C50.793,47.447 51.041,47.622 51.157,47.870 L63.692,53.203 C63.795,53.168 63.901,53.137 64.016,53.137 C64.435,53.137 64.789,53.387 64.958,53.742 L68.418,55.213 L70.426,44.991 C70.051,44.793 69.749,44.482 69.567,44.098 ZM54.511,37.399 C54.254,37.535 53.994,37.670 53.733,37.804 L54.041,38.309 C54.110,38.425 54.227,38.560 54.390,38.702 C54.328,38.543 54.295,38.370 54.296,38.195 C54.295,37.905 54.377,37.628 54.511,37.399 ZM53.344,38.002 C50.679,39.351 47.944,40.578 46.407,41.555 C45.936,41.850 45.583,42.129 45.407,42.325 L45.341,42.519 C45.291,42.680 45.247,42.893 45.249,43.037 L45.259,43.151 L45.263,43.164 L45.353,43.176 C45.360,43.176 45.367,43.176 45.374,43.176 C45.663,43.176 46.425,42.944 47.652,42.197 C48.917,41.436 50.699,40.162 53.154,38.157 L53.344,38.002 ZM96.880,44.725 C96.877,44.555 96.838,44.394 96.695,44.185 C96.550,43.979 96.285,43.729 95.833,43.468 C95.696,43.388 95.521,43.308 95.350,43.228 C95.102,43.563 94.723,43.795 94.274,43.795 C93.522,43.795 92.912,43.186 92.912,42.433 C92.912,42.427 92.915,42.422 92.915,42.416 C92.542,42.324 92.151,42.233 91.712,42.146 L94.789,49.652 C95.280,49.688 95.737,49.838 96.132,50.085 C95.760,49.029 95.567,47.969 95.565,47.106 C95.580,46.826 95.668,46.741 95.721,46.644 L95.910,46.398 C96.044,46.240 96.200,46.066 96.349,45.875 C96.654,45.495 96.889,45.056 96.880,44.725 ZM95.798,55.260 C95.424,55.432 95.012,55.534 94.575,55.534 C92.945,55.534 91.625,54.212 91.625,52.581 C91.625,51.308 92.436,50.232 93.567,49.818 L90.320,41.899 C88.980,41.685 87.396,41.496 85.511,41.339 C85.346,41.325 85.190,41.317 85.042,41.317 C84.597,41.320 84.249,41.385 83.965,41.499 C84.177,41.814 84.301,42.192 84.301,42.600 C84.301,43.539 83.644,44.320 82.766,44.517 L82.766,44.728 L72.772,44.728 L72.695,44.707 C72.688,44.705 72.675,44.702 72.668,44.700 C72.379,44.967 72.011,45.144 71.602,45.199 L70.686,49.858 L70.474,50.938 L69.695,54.905 L70.264,54.588 L69.691,55.731 L79.018,59.314 C79.261,59.087 79.582,58.942 79.941,58.942 C80.649,58.942 81.211,59.489 81.276,60.181 L94.351,65.203 C94.524,65.123 94.712,65.073 94.915,65.073 C95.475,65.073 95.956,65.414 96.164,65.900 L100.908,67.721 L100.864,67.616 L100.864,67.616 L100.864,67.615 L100.832,67.538 L95.798,55.260 ZM104.792,51.014 C104.510,50.889 104.202,50.787 103.827,50.724 C103.743,51.099 103.638,51.538 103.500,51.980 C103.287,52.655 103.016,53.341 102.547,53.864 C102.241,54.207 101.787,54.488 101.248,54.488 C101.245,54.488 101.242,54.488 101.240,54.488 C101.237,54.488 101.234,54.488 101.231,54.488 C100.221,54.488 99.329,54.165 98.603,53.654 C98.189,53.363 97.837,53.007 97.519,52.623 C97.509,53.350 97.230,54.008 96.784,54.517 L101.778,66.697 C102.303,66.215 102.996,65.914 103.765,65.914 C105.394,65.914 106.713,67.235 106.713,68.865 C106.713,69.223 106.640,69.562 106.523,69.880 L109.442,71.001 C109.872,69.904 110.933,69.125 112.183,69.125 C113.811,69.125 115.131,70.446 115.131,72.076 C115.131,72.442 115.056,72.788 114.934,73.112 L118.757,74.581 C119.037,73.928 119.469,73.363 119.993,72.899 C116.620,68.060 110.935,59.889 104.792,51.014 ZM116.874,52.791 L108.867,52.791 C108.861,52.791 108.855,52.791 108.849,52.791 C108.415,52.791 108.027,52.728 107.679,52.626 L121.031,72.200 C121.253,72.090 121.484,72.002 121.724,71.927 L116.874,52.791 ZM130.471,46.008 C128.870,46.008 127.643,46.220 126.703,46.566 C125.839,46.885 125.222,47.316 124.742,47.821 C124.769,47.953 124.785,48.089 124.785,48.230 C124.785,49.079 124.245,49.796 123.492,50.072 C123.273,50.771 123.125,51.518 123.007,52.286 L122.928,52.791 L118.220,52.791 L122.926,71.711 C122.996,71.708 123.063,71.690 123.134,71.690 C123.837,71.690 124.498,71.851 125.098,72.125 L135.966,46.319 C134.211,46.123 132.389,46.009 130.471,46.008 ZM155.456,54.059 C154.012,54.051 152.664,53.886 151.697,53.070 C150.748,52.258 150.274,51.315 149.761,50.579 C149.239,49.836 148.746,49.287 147.666,48.943 L147.659,48.941 L147.656,48.940 C147.504,48.890 147.345,48.846 147.192,48.796 C146.867,49.434 146.212,49.875 145.448,49.875 C144.362,49.875 143.481,48.994 143.481,47.906 C143.481,47.846 143.493,47.789 143.499,47.730 C141.484,47.210 139.401,46.770 137.197,46.471 L133.130,56.131 C133.307,56.046 133.501,55.989 133.711,55.989 C134.462,55.989 135.070,56.598 135.070,57.352 C135.070,58.105 134.462,58.714 133.711,58.714 C133.110,58.714 132.616,58.319 132.436,57.779 L126.122,72.772 C126.564,73.132 126.937,73.562 127.227,74.056 L134.088,69.584 L140.477,65.419 C140.688,65.064 141.044,64.821 141.473,64.769 L148.636,60.100 C148.668,59.375 149.254,58.794 149.986,58.794 C150.163,58.794 150.330,58.833 150.485,58.895 L158.138,53.905 C157.237,53.988 156.322,54.059 155.456,54.059 ZM162.635,53.655 C162.502,54.612 161.690,55.351 160.698,55.351 C160.093,55.351 159.558,55.071 159.198,54.641 L151.276,59.805 C151.307,59.920 151.347,60.032 151.347,60.157 C151.347,60.910 150.738,61.520 149.986,61.520 C149.660,61.520 149.373,61.390 149.138,61.199 L142.747,65.366 C142.888,65.581 142.991,65.824 142.991,66.101 C142.991,66.854 142.382,67.464 141.631,67.464 C141.150,67.464 140.749,67.201 140.506,66.826 L127.701,75.174 C127.816,75.586 127.898,76.011 127.898,76.460 C127.898,77.271 127.677,78.024 127.319,78.693 L134.477,83.173 C134.701,83.010 134.963,82.894 135.262,82.894 C136.014,82.894 136.622,83.505 136.622,84.258 C136.622,84.339 136.590,84.409 136.576,84.487 L145.315,89.957 C145.662,89.401 146.274,89.028 146.977,89.028 C148.063,89.028 148.943,89.909 148.943,90.997 C148.943,91.381 148.829,91.735 148.639,92.038 L155.935,96.605 C156.293,96.233 156.793,96.000 157.349,96.000 C157.752,96.000 158.126,96.122 158.437,96.330 C158.877,95.444 159.386,94.642 159.999,93.953 C160.985,92.842 162.230,92.018 163.751,91.541 C164.058,87.499 164.426,82.657 164.800,77.702 C164.759,77.704 164.720,77.714 164.678,77.714 C163.592,77.714 162.712,76.833 162.712,75.747 C162.712,74.659 163.592,73.778 164.678,73.778 C164.821,73.778 164.959,73.795 165.093,73.823 C165.311,70.936 165.526,68.075 165.729,65.365 C164.646,65.362 163.769,64.484 163.769,63.398 C163.769,62.312 164.649,61.431 165.736,61.431 C165.834,61.431 165.928,61.446 166.022,61.460 C166.227,58.722 166.412,56.232 166.563,54.194 C165.493,53.869 164.183,53.700 162.635,53.655 ZM193.394,58.634 C193.350,58.571 193.245,58.480 193.110,58.322 C193.105,58.317 193.101,58.311 193.096,58.306 L191.757,58.306 C191.843,58.398 191.932,58.481 192.025,58.555 C192.365,58.823 192.730,58.972 193.181,58.974 L193.347,58.883 L193.437,58.728 L193.394,58.634 ZM191.561,60.229 C191.327,60.078 191.126,60.002 191.082,59.997 L191.072,59.998 L171.105,59.570 L170.994,59.128 C170.666,57.820 170.186,56.819 169.539,56.050 C169.047,55.467 168.455,55.008 167.726,54.648 C167.571,56.745 167.382,59.286 167.174,62.066 C167.499,62.417 167.702,62.883 167.702,63.398 C167.702,64.020 167.408,64.567 166.960,64.927 C166.730,67.993 166.484,71.261 166.235,74.556 C166.488,74.888 166.644,75.297 166.644,75.747 C166.644,76.304 166.410,76.805 166.038,77.163 C165.659,82.178 165.285,87.106 164.971,91.241 C165.703,91.106 166.491,91.037 167.340,91.037 C167.350,91.037 167.360,91.037 167.370,91.037 C168.275,91.037 168.937,90.856 170.153,90.853 C170.554,90.853 171.010,90.874 171.548,90.929 L179.762,80.476 C179.660,80.284 179.586,80.076 179.586,79.843 C179.586,79.090 180.195,78.480 180.948,78.480 C181.065,78.480 181.170,78.519 181.279,78.547 L184.447,74.515 C184.327,74.313 184.240,74.090 184.240,73.837 C184.240,73.083 184.849,72.474 185.602,72.474 C185.739,72.474 185.864,72.514 185.989,72.552 L190.214,67.176 C190.213,67.155 190.201,67.138 190.201,67.116 C190.201,66.462 190.672,65.941 191.288,65.809 L194.106,62.223 C193.180,61.482 192.218,60.636 191.561,60.229 ZM195.074,92.745 C194.837,92.500 194.688,92.169 194.688,91.801 C194.688,91.433 194.837,91.101 195.074,90.856 L195.074,82.137 C194.231,81.914 193.608,81.154 193.608,80.242 C193.608,79.329 194.231,78.568 195.074,78.346 L195.074,72.984 C194.460,72.852 193.990,72.331 193.990,71.678 C193.990,71.024 194.460,70.504 195.074,70.371 L195.074,62.956 C195.068,62.952 195.063,62.948 195.058,62.945 L192.531,66.160 C192.774,66.406 192.925,66.743 192.925,67.116 C192.925,67.871 192.315,68.479 191.564,68.479 C191.308,68.479 191.081,68.390 190.876,68.266 L186.868,73.367 C186.923,73.514 186.963,73.670 186.963,73.837 C186.963,74.590 186.354,75.199 185.602,75.199 C185.549,75.199 185.503,75.175 185.452,75.169 L182.199,79.308 C182.269,79.472 182.309,79.653 182.309,79.843 C182.309,80.596 181.700,81.205 180.948,81.205 C180.875,81.205 180.812,81.174 180.741,81.163 L172.930,91.104 L173.923,91.248 L172.789,92.110 C172.703,92.167 172.514,92.424 172.394,92.749 C172.267,93.073 172.188,93.462 172.189,93.775 C172.186,94.030 172.245,94.224 172.296,94.294 C172.354,94.359 172.331,94.365 172.488,94.378 C172.496,94.379 172.504,94.379 172.513,94.379 C172.793,94.379 173.529,94.092 174.604,93.179 C175.567,92.373 176.819,91.101 178.396,89.221 C178.380,89.064 178.348,88.911 178.348,88.749 C178.348,86.117 180.482,83.981 183.113,83.981 C185.744,83.981 187.877,86.117 187.877,88.749 C187.877,91.383 185.744,93.518 183.113,93.518 C182.433,93.518 181.790,93.371 181.205,93.114 C180.604,93.730 179.789,94.387 178.673,95.108 C177.406,95.924 176.207,96.127 175.251,96.396 C174.283,96.675 173.592,96.951 172.919,97.908 L172.917,97.911 C172.409,98.640 171.904,99.433 171.382,100.233 L180.842,98.738 C181.666,97.816 182.493,97.151 183.307,96.674 C183.284,96.575 183.247,96.481 183.247,96.375 C183.247,95.622 183.856,95.012 184.609,95.012 C185.143,95.012 185.595,95.328 185.817,95.778 C186.096,95.740 186.372,95.716 186.642,95.716 C186.652,95.716 186.661,95.716 186.670,95.716 C188.513,95.719 190.081,96.486 191.295,97.084 L193.911,96.671 L193.589,96.499 L195.074,96.379 L195.074,92.745 ZM196.267,63.578 L196.267,70.681 C196.538,70.930 196.714,71.280 196.714,71.678 C196.714,72.075 196.538,72.425 196.267,72.674 L196.267,78.405 C197.010,78.686 197.541,79.399 197.541,80.242 C197.541,81.084 197.010,81.796 196.267,82.077 L196.267,90.482 C196.910,90.590 197.410,91.125 197.410,91.801 C197.410,92.476 196.910,93.011 196.267,93.119 L196.267,96.282 L198.725,96.083 C200.715,94.914 202.630,93.318 204.559,91.844 C204.427,91.580 204.346,91.286 204.346,90.970 C204.346,89.884 205.226,89.003 206.312,89.003 C206.884,89.003 207.395,89.252 207.754,89.642 C209.305,88.740 210.918,88.108 212.659,88.070 C214.324,88.038 215.562,87.921 216.466,87.754 C216.699,87.339 217.126,87.046 217.636,87.046 C217.831,87.046 218.015,87.090 218.183,87.164 C218.216,87.138 218.260,87.111 218.282,87.088 C218.400,86.963 218.405,86.917 218.411,86.826 C218.414,86.731 218.365,86.554 218.227,86.331 C218.091,86.109 217.878,85.851 217.622,85.586 C217.109,85.055 216.432,84.500 215.859,83.999 C215.476,83.660 215.141,83.357 214.898,83.034 C214.767,82.844 214.630,82.645 214.619,82.310 C214.617,81.525 214.824,80.855 215.180,80.325 C215.533,79.794 216.015,79.410 216.523,79.112 C216.705,79.006 216.894,78.919 217.082,78.829 C215.666,78.003 214.703,76.484 214.703,74.724 C214.703,74.046 214.849,73.403 215.104,72.819 L208.001,68.919 C207.478,69.744 206.564,70.296 205.515,70.296 C203.886,70.296 202.566,68.975 202.566,67.344 C202.566,66.895 202.675,66.473 202.854,66.092 L197.543,63.176 C197.533,63.191 197.523,63.206 197.513,63.220 C197.327,63.489 196.981,63.636 196.700,63.636 C196.689,63.636 196.678,63.636 196.667,63.635 C196.526,63.632 196.394,63.611 196.267,63.578 ZM198.476,58.496 C197.852,58.614 197.406,58.811 197.238,58.964 C197.123,59.072 197.131,59.095 197.127,59.134 L197.142,59.215 L196.574,59.400 L197.142,59.217 C197.181,59.338 197.218,59.455 197.253,59.568 L198.716,58.496 L197.253,59.569 C197.253,59.569 197.253,59.569 197.253,59.569 L198.753,58.469 L198.716,58.496 L198.792,58.440 C198.683,58.457 198.577,58.476 198.476,58.496 ZM238.841,71.882 C238.599,72.101 238.286,72.243 237.934,72.243 C237.181,72.243 236.572,71.634 236.572,70.883 C236.572,70.868 236.580,70.856 236.580,70.841 C236.248,70.699 235.912,70.557 235.572,70.418 C232.127,68.993 228.435,67.728 225.931,66.285 L225.929,66.284 C223.997,65.155 221.878,64.012 219.615,62.954 C219.494,62.990 219.374,63.030 219.242,63.030 C218.699,63.030 218.239,62.706 218.020,62.246 C214.455,60.699 210.570,59.405 206.452,58.760 C206.458,58.833 206.474,58.904 206.474,58.979 C206.474,60.609 205.155,61.930 203.526,61.930 C201.897,61.930 200.577,60.609 200.577,58.979 C200.577,58.868 200.598,58.763 200.610,58.655 C199.384,59.535 198.353,60.277 197.590,60.825 C197.687,61.254 197.746,61.619 197.769,61.937 L203.584,65.130 C204.102,64.677 204.773,64.393 205.515,64.393 C207.144,64.393 208.463,65.715 208.463,67.344 C208.463,67.495 208.441,67.640 208.419,67.785 L215.730,71.799 C216.602,70.685 217.944,69.956 219.468,69.956 C221.809,69.956 223.745,71.648 224.146,73.875 C225.672,74.261 227.081,75.097 228.394,76.042 C230.188,77.339 231.836,78.860 233.323,79.831 C233.771,80.126 234.199,80.358 234.606,80.531 C234.816,79.672 235.586,79.032 236.510,79.032 C236.802,79.032 237.076,79.100 237.325,79.214 C237.474,78.858 237.619,78.479 237.771,78.115 C237.970,77.648 238.174,77.204 238.482,76.834 L238.484,76.831 C239.271,75.901 240.115,75.434 240.986,75.153 C241.617,74.946 242.256,74.814 242.974,74.619 C242.000,73.638 240.537,72.728 238.841,71.882 ZM230.813,74.611 C230.061,74.611 229.451,74.002 229.451,73.249 C229.451,72.495 230.061,71.885 230.813,71.885 C231.565,71.885 232.173,72.495 232.173,73.249 C232.173,74.002 231.565,74.611 230.813,74.611 ZM184.076,66.549 C182.447,66.549 181.127,65.227 181.127,63.598 C181.127,61.968 182.447,60.646 184.076,60.646 C185.703,60.646 187.024,61.968 187.024,63.598 C187.024,65.227 185.703,66.549 184.076,66.549 ZM173.868,70.751 C173.115,70.751 172.505,70.140 172.505,69.388 C172.505,68.635 173.115,68.025 173.868,68.025 C174.620,68.025 175.228,68.635 175.228,69.388 C175.228,70.140 174.620,70.751 173.868,70.751 ZM170.463,89.977 C169.378,89.977 168.497,89.097 168.497,88.009 C168.497,86.922 169.378,86.041 170.463,86.041 C171.549,86.041 172.429,86.922 172.429,88.009 C172.429,89.097 171.549,89.977 170.463,89.977 ZM133.710,67.456 C132.081,67.456 130.760,66.135 130.760,64.505 C130.760,62.874 132.081,61.552 133.710,61.552 C135.339,61.552 136.658,62.874 136.658,64.505 C136.658,66.135 135.339,67.456 133.710,67.456 ZM151.695,53.069 C151.695,53.070 151.696,53.070 151.697,53.070 C151.697,53.071 151.697,53.071 151.698,53.072 L151.695,53.069 ZM126.676,52.203 C127.763,52.203 128.642,53.084 128.642,54.172 C128.642,55.260 127.763,56.140 126.676,56.140 C125.591,56.140 124.710,55.260 124.710,54.172 C124.710,53.084 125.591,52.203 126.676,52.203 ZM121.913,60.757 C121.161,60.757 120.551,60.148 120.551,59.397 C120.551,58.643 121.161,58.033 121.913,58.033 C122.665,58.033 123.273,58.643 123.273,59.397 C123.273,60.148 122.665,60.757 121.913,60.757 ZM111.703,56.821 C110.618,56.821 109.736,55.940 109.736,54.854 C109.736,53.766 110.618,52.885 111.703,52.885 C112.789,52.885 113.669,53.766 113.669,54.854 C113.669,55.940 112.789,56.821 111.703,56.821 ZM84.706,57.579 C83.952,57.579 83.344,56.969 83.344,56.217 C83.344,55.464 83.952,54.854 84.706,54.854 C85.456,54.854 86.066,55.464 86.066,56.217 C86.066,56.969 85.456,57.579 84.706,57.579 ZM47.610,32.483 C48.363,32.483 48.972,33.093 48.972,33.846 C48.972,34.599 48.363,35.209 47.610,35.209 C46.858,35.209 46.249,34.599 46.249,33.846 C46.249,33.093 46.858,32.483 47.610,32.483 ZM53.736,68.252 C52.984,68.252 52.374,67.642 52.374,66.890 C52.374,66.137 52.984,65.527 53.736,65.527 C54.489,65.527 55.098,66.137 55.098,66.890 C55.098,67.642 54.489,68.252 53.736,68.252 ZM34.567,104.362 C35.318,104.362 35.927,104.971 35.927,105.725 C35.927,106.478 35.318,107.087 34.567,107.087 C33.814,107.087 33.204,106.478 33.204,105.725 C33.204,104.971 33.814,104.362 34.567,104.362 ZM37.061,112.309 C37.812,112.309 38.421,112.919 38.421,113.672 C38.421,114.426 37.812,115.035 37.061,115.035 C36.309,115.035 35.699,114.426 35.699,113.672 C35.699,112.919 36.309,112.309 37.061,112.309 ZM47.022,115.949 C47.022,116.702 46.412,117.312 45.661,117.312 C44.909,117.312 44.299,116.702 44.299,115.949 C44.299,115.196 44.909,114.586 45.661,114.586 C46.412,114.586 47.022,115.196 47.022,115.949 ZM51.809,111.173 C52.561,111.173 53.169,111.784 53.169,112.538 C53.169,113.291 52.561,113.900 51.809,113.900 C51.055,113.900 50.447,113.291 50.447,112.538 C50.447,111.784 51.055,111.173 51.809,111.173 ZM62.018,118.062 C63.103,118.062 63.983,118.943 63.983,120.031 C63.983,121.118 63.103,121.999 62.018,121.999 C60.932,121.999 60.051,121.118 60.051,120.031 C60.051,118.943 60.932,118.062 62.018,118.062 ZM74.836,154.778 C75.589,154.778 76.197,155.387 76.197,156.141 C76.197,156.892 75.589,157.502 74.836,157.502 C74.084,157.502 73.474,156.892 73.474,156.141 C73.474,155.387 74.084,154.778 74.836,154.778 ZM82.663,147.112 C83.415,147.112 84.025,147.722 84.025,148.476 C84.025,149.229 83.415,149.838 82.663,149.838 C81.911,149.838 81.301,149.229 81.301,148.476 C81.301,147.722 81.911,147.112 82.663,147.112 ZM94.915,149.100 C96.544,149.100 97.863,150.421 97.863,152.052 C97.863,153.682 96.544,155.003 94.915,155.003 C93.285,155.003 91.965,153.682 91.965,152.052 C91.965,150.421 93.285,149.100 94.915,149.100 ZM101.494,142.134 C102.579,142.134 103.459,143.016 103.459,144.104 C103.459,145.190 102.579,146.071 101.494,146.071 C100.408,146.071 99.527,145.190 99.527,144.104 C99.527,143.016 100.408,142.134 101.494,142.134 ZM102.125,147.747 L102.379,147.509 L102.380,147.510 L102.419,147.538 L102.421,147.539 C103.427,148.196 103.852,149.179 103.838,150.081 L103.837,150.159 L103.837,150.162 L102.643,150.146 L102.643,150.144 L102.644,150.096 C102.629,149.505 102.460,149.023 101.759,148.538 L101.761,148.534 L101.761,148.534 L101.758,148.538 L101.470,148.287 C101.390,148.192 101.311,148.057 101.282,147.893 C101.282,147.892 101.282,147.891 101.281,147.890 L101.281,147.888 C101.279,147.875 101.277,147.862 101.275,147.848 L101.275,147.848 C101.275,147.847 101.275,147.847 101.275,147.846 L102.125,147.747 ZM107.393,143.650 C109.022,143.650 110.342,144.972 110.342,146.602 C110.342,148.232 109.022,149.553 107.393,149.553 C105.763,149.553 104.443,148.232 104.443,146.602 C104.443,144.972 105.763,143.650 107.393,143.650 ZM106.486,106.859 C105.733,106.859 105.124,106.249 105.124,105.497 C105.124,104.744 105.733,104.134 106.486,104.134 C107.237,104.134 107.847,104.744 107.847,105.497 C107.847,106.249 107.237,106.859 106.486,106.859 ZM94.234,110.643 C93.149,110.643 92.267,109.763 92.267,108.676 C92.267,107.588 93.149,106.707 94.234,106.707 C95.320,106.707 96.200,107.588 96.200,108.676 C96.200,109.763 95.320,110.643 94.234,110.643 ZM85.159,115.943 C84.406,115.943 83.797,115.334 83.797,114.581 C83.797,113.829 84.406,113.218 85.159,113.218 C85.911,113.218 86.520,113.829 86.520,114.581 C86.520,115.334 85.911,115.943 85.159,115.943 ZM69.051,106.633 C69.802,106.633 70.411,107.242 70.411,107.996 C70.411,108.747 69.802,109.357 69.051,109.357 C68.299,109.357 67.689,108.747 67.689,107.996 C67.689,107.242 68.299,106.633 69.051,106.633 ZM106.694,137.161 C107.172,136.828 107.693,136.441 108.356,136.129 C109.052,135.801 109.903,135.570 110.976,135.570 C110.980,135.570 110.984,135.570 110.989,135.570 L111.585,135.570 L111.585,136.167 L111.585,136.170 L111.585,136.767 L110.989,136.767 C110.073,136.769 109.424,136.951 108.862,137.213 C108.344,137.455 107.897,137.777 107.417,138.113 C107.377,138.141 107.337,138.170 107.296,138.198 L107.296,138.198 L107.295,138.198 L106.616,137.215 C106.616,137.215 106.616,137.215 106.616,137.215 C106.642,137.197 106.668,137.179 106.694,137.161 ZM99.966,134.053 C99.965,134.052 99.964,134.052 99.964,134.051 C99.964,134.051 99.964,134.051 99.964,134.051 L99.966,134.053 ZM65.875,128.660 C66.627,128.660 67.235,129.270 67.235,130.024 C67.235,130.777 66.627,131.387 65.875,131.387 C65.122,131.387 64.512,130.777 64.512,130.024 C64.512,129.270 65.122,128.660 65.875,128.660 ZM71.319,128.207 C72.072,128.207 72.681,128.818 72.681,129.570 C72.681,130.323 72.072,130.932 71.319,130.932 C70.567,130.932 69.957,130.323 69.957,129.570 C69.957,128.818 70.567,128.207 71.319,128.207 ZM80.168,129.798 C81.797,129.798 83.117,131.119 83.117,132.749 C83.117,134.380 81.797,135.701 80.168,135.701 C78.538,135.701 77.219,134.380 77.219,132.749 C77.219,131.119 78.538,129.798 80.168,129.798 ZM57.232,128.893 C56.480,128.893 55.870,128.284 55.870,127.532 C55.870,126.778 56.480,126.167 57.232,126.167 C57.984,126.167 58.593,126.778 58.593,127.532 C58.593,128.284 57.984,128.893 57.232,128.893 ZM92.685,131.395 C92.685,131.395 92.686,131.396 92.686,131.397 C92.686,131.397 92.687,131.398 92.687,131.398 L92.685,131.395 ZM104.443,82.030 C103.357,82.030 102.477,81.149 102.477,80.061 C102.477,78.975 103.357,78.093 104.443,78.093 C105.528,78.093 106.409,78.975 106.409,80.061 C106.409,81.149 105.528,82.030 104.443,82.030 ZM85.045,70.977 C84.293,70.977 83.683,70.368 83.683,69.615 C83.683,68.861 84.293,68.252 85.045,68.252 C85.798,68.252 86.407,68.861 86.407,69.615 C86.407,70.368 85.798,70.977 85.045,70.977 ZM224.817,53.673 C224.554,53.839 224.251,53.955 223.900,54.063 C223.839,54.081 223.761,54.094 223.697,54.111 C223.165,54.635 222.437,54.959 221.632,54.959 C221.187,54.959 220.770,54.854 220.392,54.677 C218.924,54.837 217.589,54.908 217.168,54.909 C217.165,54.909 217.162,54.909 217.160,54.909 C216.743,54.909 216.367,54.726 216.119,54.459 C215.867,54.189 215.723,53.839 215.722,53.466 C215.727,52.943 215.966,52.500 216.275,52.116 C216.588,51.730 216.993,51.389 217.440,51.092 C218.019,50.714 218.656,50.419 219.282,50.243 C219.819,49.527 220.667,49.056 221.632,49.056 C223.041,49.056 224.215,50.048 224.507,51.370 C224.756,51.551 224.985,51.750 225.152,52.013 C225.289,52.230 225.384,52.497 225.383,52.784 C225.385,53.008 225.293,53.211 225.184,53.349 C225.074,53.490 224.949,53.588 224.817,53.673 ZM218.711,51.736 C218.700,51.741 218.689,51.745 218.679,51.751 C218.080,52.053 217.513,52.480 217.202,52.869 C216.989,53.128 216.911,53.353 216.916,53.466 L216.987,53.639 L217.168,53.714 C217.169,53.714 217.171,53.714 217.173,53.714 C217.421,53.714 218.202,53.677 219.153,53.597 C218.859,53.138 218.683,52.594 218.683,52.008 C218.683,51.915 218.702,51.827 218.711,51.736 ZM149.715,35.645 C149.690,35.661 149.660,35.670 149.634,35.685 C149.335,36.390 148.638,36.884 147.825,36.884 C147.333,36.884 146.889,36.697 146.544,36.397 C146.345,36.408 146.154,36.413 145.979,36.414 C144.854,36.409 143.376,36.167 142.063,35.668 C141.994,35.675 141.927,35.689 141.856,35.689 C141.025,35.689 140.317,35.170 140.030,34.440 C139.964,34.375 139.876,34.329 139.815,34.259 C139.510,33.906 139.284,33.471 139.217,32.986 L138.583,32.483 L138.583,32.483 L138.583,32.483 L138.575,32.477 L139.194,31.682 L139.294,31.524 L139.295,31.525 L139.338,31.544 L139.535,31.615 C139.708,31.670 139.951,31.732 140.239,31.797 C140.465,31.848 140.731,31.901 141.006,31.954 C141.264,31.829 141.550,31.754 141.856,31.754 C142.403,31.754 142.898,31.979 143.254,32.341 C144.878,32.594 146.579,32.820 147.716,32.960 C147.753,32.958 147.788,32.949 147.825,32.949 C148.023,32.949 148.211,32.987 148.391,33.042 C148.711,33.078 148.941,33.101 148.961,33.101 C149.381,33.103 149.755,33.291 150.001,33.559 C150.250,33.831 150.392,34.179 150.393,34.551 C150.395,34.801 150.304,35.040 150.175,35.220 C150.045,35.401 149.885,35.534 149.715,35.645 ZM143.813,33.634 C143.814,33.664 143.821,33.692 143.821,33.721 C143.821,34.147 143.683,34.538 143.454,34.860 C144.316,35.084 145.201,35.207 145.889,35.214 C145.874,35.116 145.859,35.018 145.859,34.916 C145.859,34.567 145.958,34.243 146.118,33.959 C145.397,33.862 144.613,33.754 143.813,33.634 ZM123.114,39.837 C123.032,39.681 122.993,39.525 122.969,39.377 C122.940,39.180 122.937,38.991 122.936,38.789 C122.928,38.297 123.163,37.846 123.502,37.593 C123.838,37.334 124.234,37.237 124.615,37.235 C125.023,37.238 125.432,37.347 125.782,37.595 C126.129,37.836 126.414,38.275 126.408,38.789 C126.409,39.003 126.356,39.197 126.282,39.379 C126.342,39.407 126.390,39.453 126.446,39.490 C126.848,39.373 127.278,39.295 127.750,39.295 C127.755,39.295 127.761,39.295 127.767,39.295 C128.708,39.295 129.579,39.536 130.307,39.963 C130.438,39.935 130.574,39.919 130.714,39.919 C131.799,39.919 132.679,40.800 132.679,41.887 C132.679,42.315 132.539,42.708 132.308,43.030 C132.316,43.107 132.338,43.178 132.342,43.256 L132.370,43.880 L129.203,43.880 L129.047,43.880 L128.912,43.804 C128.263,43.440 127.470,43.276 126.605,43.144 C125.857,43.026 125.061,42.933 124.278,42.697 L124.110,42.861 L123.217,42.072 C123.568,41.610 123.951,41.159 124.378,40.745 C124.373,40.698 124.350,40.657 124.350,40.608 C124.350,40.563 124.372,40.524 124.376,40.480 C124.146,40.470 123.933,40.445 123.729,40.370 C123.477,40.280 123.233,40.076 123.114,39.837 ZM126.787,41.963 C127.462,42.069 128.164,42.200 128.844,42.465 C128.787,42.281 128.748,42.089 128.748,41.887 C128.748,41.451 128.894,41.052 129.134,40.726 C128.723,40.576 128.264,40.490 127.767,40.490 C127.511,40.491 127.281,40.520 127.062,40.562 C127.063,40.578 127.071,40.592 127.071,40.608 C127.071,41.180 126.719,41.665 126.221,41.867 C126.414,41.896 126.590,41.932 126.787,41.963 ZM124.161,39.255 L124.169,39.258 C124.217,39.274 124.339,39.295 124.531,39.295 C124.535,39.295 124.540,39.295 124.545,39.295 C124.548,39.295 124.551,39.295 124.554,39.295 C124.711,39.295 124.909,39.228 125.033,39.127 C125.161,39.020 125.211,38.928 125.214,38.789 L125.085,38.566 C124.985,38.491 124.800,38.430 124.623,38.430 C124.620,38.430 124.617,38.430 124.615,38.430 C124.613,38.430 124.611,38.430 124.610,38.430 C124.443,38.430 124.300,38.482 124.234,38.537 C124.169,38.597 124.138,38.623 124.130,38.789 C124.127,39.030 124.145,39.198 124.161,39.255 ZM134.692,33.339 C134.379,33.768 134.108,34.144 134.057,34.313 L134.040,34.376 L134.040,34.973 L131.153,34.973 L130.959,35.037 C130.859,35.089 130.723,35.184 130.555,35.298 C130.225,35.521 129.727,35.824 129.050,35.824 C129.048,35.824 129.045,35.824 129.042,35.824 C128.591,35.821 128.276,35.590 128.067,35.416 C127.854,35.234 127.693,35.072 127.593,35.012 L127.510,34.973 C127.510,34.973 127.509,34.973 127.509,34.973 C127.358,34.973 127.228,35.035 126.967,35.189 C126.719,35.334 126.339,35.570 125.811,35.570 L125.784,35.575 L125.683,35.617 C125.591,35.660 125.461,35.738 125.303,35.828 C124.989,36.006 124.538,36.243 123.951,36.243 C123.944,36.243 123.936,36.243 123.929,36.243 C123.475,36.243 123.068,36.128 122.745,35.922 C122.619,35.842 122.507,35.754 122.405,35.660 C122.278,35.794 122.140,35.938 121.984,36.079 C121.657,36.377 121.181,36.677 120.572,36.677 C120.569,36.677 120.565,36.677 120.561,36.677 C119.297,36.676 118.108,36.172 117.219,35.378 C116.333,34.586 115.731,33.478 115.729,32.252 C115.730,31.215 116.216,30.330 116.891,29.661 C117.163,28.311 118.354,27.295 119.781,27.295 C121.014,27.295 122.068,28.054 122.508,29.130 C122.569,29.180 122.638,29.226 122.695,29.277 C123.284,29.811 123.708,30.359 124.167,30.658 C124.329,30.765 124.490,30.848 124.672,30.903 C124.706,30.624 124.765,30.356 124.852,30.102 C125.008,29.654 125.270,29.236 125.691,28.967 C125.968,28.790 126.305,28.695 126.654,28.695 C126.657,28.695 126.660,28.695 126.662,28.695 C127.151,28.698 127.762,28.820 128.497,28.998 C129.226,29.178 130.058,29.419 130.895,29.675 C132.566,30.187 134.269,30.761 135.125,31.004 L135.697,31.167 L135.537,31.740 C135.356,32.381 135.002,32.902 134.692,33.339 ZM131.875,31.234 C130.896,30.923 129.858,30.600 128.933,30.347 C129.038,30.588 129.098,30.853 129.098,31.132 C129.098,32.218 128.218,33.099 127.132,33.099 C126.431,33.099 125.820,32.729 125.472,32.177 L125.229,32.177 C125.221,32.177 125.213,32.177 125.204,32.177 C124.168,32.177 123.424,31.669 122.893,31.155 C122.807,31.073 122.729,30.992 122.649,30.911 C122.347,32.221 121.182,33.199 119.781,33.199 C118.582,33.199 117.554,32.480 117.093,31.451 C116.992,31.707 116.922,31.973 116.923,32.252 C116.921,33.072 117.334,33.878 118.015,34.488 C118.691,35.095 119.617,35.482 120.555,35.482 C120.557,35.482 120.559,35.482 120.561,35.482 C120.792,35.479 120.947,35.398 121.189,35.187 C121.424,34.981 121.681,34.658 122.029,34.351 L122.487,33.952 L122.878,34.418 C123.084,34.666 123.240,34.824 123.380,34.910 C123.519,34.993 123.655,35.044 123.951,35.048 C123.957,35.048 123.964,35.048 123.971,35.048 C124.349,35.048 124.668,34.796 125.168,34.538 C125.339,34.457 125.549,34.377 125.811,34.375 L125.813,34.375 C125.973,34.375 126.104,34.312 126.363,34.158 C126.609,34.016 126.985,33.779 127.510,33.778 C127.961,33.782 128.273,34.014 128.481,34.187 C128.692,34.369 128.852,34.530 128.953,34.590 L129.042,34.629 C129.291,34.627 129.467,34.559 129.677,34.440 C129.885,34.322 130.101,34.143 130.401,33.980 C130.601,33.874 130.856,33.778 131.153,33.778 L132.353,33.778 C131.662,33.712 131.116,33.150 131.116,32.442 C131.116,31.908 131.430,31.458 131.875,31.234 ZM132.602,33.778 L132.985,33.778 C133.001,33.743 133.020,33.710 133.038,33.676 C132.904,33.737 132.756,33.764 132.602,33.778 ZM133.658,31.803 C133.762,31.996 133.837,32.206 133.837,32.442 C133.837,32.447 133.834,32.451 133.834,32.456 C133.947,32.291 134.070,32.127 134.160,31.962 C134.011,31.916 133.823,31.855 133.658,31.803 ZM116.920,41.455 C116.920,42.208 116.312,42.817 115.561,42.817 C114.808,42.817 114.199,42.208 114.199,41.455 C114.199,40.702 114.808,40.092 115.561,40.092 C116.312,40.092 116.920,40.702 116.920,41.455 ZM113.926,31.650 L113.483,31.577 L113.474,31.588 L113.922,31.668 C113.888,31.852 113.848,32.070 113.765,32.301 C113.681,32.529 113.552,32.786 113.299,32.992 C113.299,32.992 113.299,32.992 113.299,32.992 L113.322,33.082 L113.124,33.136 L113.178,33.349 L112.569,33.287 L112.554,33.291 L112.460,33.280 L112.316,33.298 C112.153,33.367 111.973,33.406 111.785,33.406 C111.033,33.406 110.423,32.797 110.423,32.044 C110.423,31.302 111.015,30.707 111.750,30.688 L112.288,29.843 L112.316,29.953 L112.485,29.722 L112.532,29.911 L112.932,30.309 L113.441,30.815 L114.066,30.815 L113.950,31.511 L113.926,31.650 ZM108.186,43.610 C106.557,43.610 105.237,42.289 105.237,40.659 C105.237,39.029 106.557,37.708 108.186,37.708 C109.815,37.708 111.134,39.029 111.134,40.659 C111.134,42.289 109.815,43.610 108.186,43.610 ZM103.309,48.722 C102.557,48.722 101.947,48.112 101.947,47.360 C101.947,46.606 102.557,45.997 103.309,45.997 C104.061,45.997 104.670,46.606 104.670,47.360 C104.670,48.112 104.061,48.722 103.309,48.722 ZM45.254,19.914 C44.995,20.248 44.581,20.552 44.046,20.553 C44.040,20.553 44.035,20.553 44.029,20.553 C43.413,20.553 42.906,20.358 42.548,20.084 C42.185,19.810 41.970,19.479 41.830,19.239 L41.404,18.508 L42.235,18.351 C42.852,18.234 43.316,18.202 43.679,18.202 C44.045,18.203 44.302,18.233 44.466,18.233 C44.470,18.233 44.474,18.233 44.477,18.233 C44.640,18.229 44.712,18.221 44.898,18.142 L45.880,17.700 L45.734,18.768 C45.676,19.174 45.518,19.573 45.254,19.914 ZM15.978,23.892 L16.136,23.775 L18.296,23.775 L18.197,24.459 C18.099,25.117 17.905,25.675 17.496,26.087 C17.092,26.496 16.526,26.664 15.936,26.664 C15.928,26.664 15.919,26.664 15.910,26.664 C15.490,26.663 15.150,26.454 14.923,26.209 C14.692,25.960 14.544,25.662 14.475,25.341 L14.381,24.890 L14.794,24.685 C15.234,24.466 15.620,24.159 15.978,23.892 ZM15.910,25.469 C16.328,25.464 16.513,25.377 16.653,25.242 C16.714,25.182 16.776,25.094 16.833,24.970 L16.531,24.970 C16.343,25.111 16.123,25.278 15.869,25.442 L15.910,25.469 ZM5.135,30.477 C6.006,30.477 6.712,31.184 6.712,32.056 C6.712,32.929 6.006,33.636 5.135,33.636 C4.262,33.636 3.555,32.929 3.555,32.056 C3.555,31.184 4.262,30.477 5.135,30.477 ZM39.257,18.452 C39.246,18.452 39.237,18.449 39.226,18.449 C38.895,18.682 38.533,18.876 38.132,19.018 C37.062,19.391 35.810,19.524 34.798,19.526 C34.368,19.526 33.985,19.501 33.665,19.453 L33.660,19.453 L33.543,19.465 C33.446,19.476 33.320,19.492 33.176,19.512 C32.888,19.551 32.530,19.604 32.183,19.658 C31.579,19.750 31.007,19.842 30.865,19.865 L26.410,21.127 L26.330,21.150 L26.247,21.150 C25.951,21.149 25.687,21.121 25.439,21.043 C25.193,20.967 24.959,20.829 24.787,20.635 C24.436,20.231 24.386,19.753 24.383,19.281 C24.382,18.869 24.462,18.510 24.616,18.214 C24.768,17.917 24.988,17.700 25.196,17.548 C25.619,17.253 25.976,17.117 26.080,16.992 C26.747,16.326 27.298,15.457 27.907,14.599 C28.061,14.384 28.220,14.169 28.386,13.958 C27.360,13.892 26.546,13.046 26.546,12.003 C26.546,11.931 26.559,11.863 26.567,11.793 C26.500,11.862 26.463,11.911 26.448,11.938 C26.421,11.993 26.415,11.993 26.411,12.156 C26.411,12.280 26.425,12.481 26.426,12.748 C26.431,13.102 26.282,13.440 26.073,13.660 C25.941,13.801 25.795,13.905 25.648,13.985 C25.696,14.038 25.741,14.095 25.783,14.158 C25.914,14.355 25.997,14.610 25.995,14.873 C25.993,15.510 25.606,15.996 25.177,16.284 C24.740,16.579 24.224,16.736 23.709,16.739 C21.762,16.739 20.093,16.340 18.563,15.958 C17.659,15.731 16.805,15.522 15.964,15.381 C16.082,15.633 16.152,15.912 16.152,16.209 C16.152,17.296 15.272,18.177 14.188,18.177 C13.101,18.177 12.221,17.296 12.221,16.209 C12.221,15.609 12.494,15.079 12.916,14.718 C12.518,14.463 12.105,14.143 11.689,13.806 C10.847,13.118 9.965,12.358 9.443,12.084 L8.475,11.566 C7.585,11.786 6.676,11.822 6.165,11.823 C6.109,11.822 6.057,11.817 6.008,11.809 L5.952,11.958 L5.332,11.481 C5.327,11.477 5.322,11.473 5.317,11.469 L4.965,11.197 L4.976,11.168 C4.760,10.953 4.556,10.704 4.377,10.439 C4.113,10.030 3.888,9.614 3.876,9.103 C3.875,8.980 3.933,8.872 3.971,8.756 C3.907,8.562 3.864,8.358 3.864,8.143 C3.864,7.055 4.744,6.174 5.831,6.174 C6.010,6.174 6.180,6.206 6.345,6.251 C6.622,6.159 6.895,6.058 7.152,5.927 L7.244,5.880 C7.592,5.697 7.920,5.474 8.240,5.235 C7.436,4.987 6.849,4.248 6.849,3.363 C6.849,2.275 7.729,1.394 8.815,1.394 C9.806,1.394 10.618,2.132 10.752,3.088 C11.906,2.135 13.293,1.295 15.210,1.295 C15.216,1.295 15.222,1.295 15.228,1.295 C15.229,1.295 15.229,1.295 15.230,1.295 C15.675,1.295 16.077,1.382 16.461,1.501 C16.671,0.640 17.441,-0.000 18.366,-0.000 C19.450,-0.000 20.331,0.881 20.331,1.969 C20.331,2.645 19.989,3.241 19.470,3.595 C19.916,4.043 20.318,4.457 20.679,4.721 L21.542,5.365 L20.540,5.757 C20.275,5.857 20.101,5.925 19.933,5.963 C19.933,6.004 19.934,6.044 19.934,6.082 C19.933,6.529 19.898,6.756 19.899,6.980 C19.895,7.295 19.770,7.530 19.634,7.728 C19.588,7.794 19.539,7.856 19.487,7.916 C20.160,7.923 20.655,8.211 21.026,8.416 C21.414,8.633 21.675,8.765 22.008,8.765 L23.709,8.765 C24.166,8.765 24.536,8.804 24.866,8.897 C25.195,8.989 25.476,9.145 25.702,9.332 C26.156,9.713 26.407,10.121 26.925,10.632 L27.023,10.731 C27.384,10.308 27.913,10.034 28.513,10.034 C29.597,10.034 30.477,10.916 30.477,12.003 C30.477,12.070 30.464,12.133 30.457,12.199 C31.065,11.906 31.768,11.727 32.585,11.727 C32.589,11.727 32.593,11.727 32.597,11.727 L34.295,11.727 L34.295,12.324 C34.296,12.574 34.316,12.752 34.341,12.903 C34.517,12.816 34.735,12.749 34.976,12.749 C34.977,12.749 34.978,12.749 34.980,12.749 C35.335,12.753 35.678,12.854 36.062,13.000 C36.444,13.149 36.854,13.350 37.267,13.587 C37.777,13.881 38.282,14.227 38.737,14.594 C38.904,14.548 39.076,14.516 39.257,14.516 C40.341,14.516 41.221,15.397 41.221,16.485 C41.221,17.571 40.341,18.452 39.257,18.452 ZM6.754,9.869 L6.464,10.623 C6.814,10.612 7.270,10.579 7.725,10.502 C8.325,10.404 8.919,10.209 9.231,9.963 C9.272,9.931 9.307,9.900 9.338,9.869 C9.158,9.796 8.959,9.713 8.745,9.625 C8.333,9.454 7.902,9.276 7.522,9.127 C7.339,9.442 7.074,9.697 6.754,9.869 ZM25.146,10.445 C24.922,10.216 24.806,10.128 24.540,10.047 C24.361,9.996 24.100,9.960 23.715,9.960 C23.713,9.960 23.711,9.960 23.709,9.960 L22.008,9.960 C21.323,9.960 20.821,9.668 20.446,9.460 C20.058,9.244 19.796,9.111 19.461,9.111 C19.460,9.111 19.458,9.111 19.457,9.111 C19.184,9.111 18.963,9.074 18.792,9.045 C18.621,9.016 18.504,8.996 18.380,8.996 C18.379,8.996 18.376,8.996 18.376,8.996 C18.249,8.997 18.100,9.013 17.864,9.085 L17.419,7.981 C17.680,7.849 18.001,7.648 18.257,7.442 C18.509,7.247 18.689,7.018 18.706,6.960 C18.708,6.631 18.741,6.444 18.740,6.082 C18.740,5.895 18.732,5.656 18.707,5.328 L18.644,4.494 L18.694,4.507 C18.489,4.300 18.277,4.104 18.066,3.906 C17.416,3.806 16.875,3.391 16.599,2.818 C16.178,2.613 15.729,2.491 15.228,2.491 C13.604,2.495 12.516,3.172 11.395,4.105 C10.333,4.988 9.307,6.109 7.900,6.883 L7.865,6.973 C9.435,7.688 10.725,8.082 12.518,8.085 C12.819,8.086 13.481,8.128 14.205,8.168 C14.917,8.208 15.678,8.249 16.071,8.249 C16.073,8.249 16.075,8.249 16.076,8.248 L16.255,9.416 C14.943,9.828 14.101,10.250 13.201,10.705 C12.556,11.032 11.882,11.376 11.020,11.721 C11.279,11.923 11.545,12.141 11.815,12.363 C12.442,12.881 13.082,13.413 13.583,13.728 C13.888,13.930 14.156,14.019 14.210,14.019 C14.214,14.019 14.216,14.019 14.218,14.018 C15.843,14.019 17.333,14.420 18.852,14.798 C20.373,15.179 21.926,15.544 23.709,15.544 C23.713,15.544 23.717,15.544 23.721,15.544 C23.970,15.544 24.293,15.445 24.505,15.297 C24.729,15.139 24.804,14.990 24.801,14.873 L24.785,14.815 L24.659,14.702 C24.513,14.602 24.241,14.500 23.960,14.420 L22.123,13.877 L23.943,13.279 C24.204,13.196 24.474,13.150 24.720,13.077 C24.966,13.009 25.153,12.905 25.196,12.849 L25.232,12.748 C25.232,12.527 25.218,12.352 25.217,12.156 C25.214,11.923 25.251,11.612 25.418,11.336 C25.484,11.223 25.562,11.121 25.652,11.022 C25.442,10.785 25.282,10.588 25.146,10.445 ZM10.101,10.793 C11.147,10.409 11.892,10.029 12.663,9.639 C12.875,9.531 13.089,9.423 13.311,9.314 C12.946,9.295 12.653,9.280 12.524,9.280 C12.522,9.280 12.520,9.280 12.518,9.280 C12.510,9.280 12.502,9.280 12.493,9.280 C11.887,9.280 11.323,9.236 10.785,9.152 L10.737,9.594 C10.686,10.090 10.427,10.502 10.101,10.793 ZM37.698,15.297 C37.142,14.885 36.504,14.502 35.956,14.253 C35.525,14.049 35.128,13.943 34.993,13.943 C34.988,13.943 34.984,13.944 34.980,13.944 L34.855,13.983 C34.791,14.016 34.701,14.081 34.592,14.170 C34.372,14.342 34.083,14.628 33.608,14.768 L33.028,13.766 C33.166,13.633 33.225,13.548 33.239,13.524 C33.237,13.492 33.215,13.376 33.180,13.192 C33.165,13.113 33.150,13.023 33.137,12.922 L32.597,12.922 C31.841,12.923 31.274,13.091 30.781,13.366 C30.290,13.642 29.869,14.038 29.468,14.520 C28.662,15.479 27.979,16.772 26.924,17.838 C26.622,18.130 26.312,18.257 26.095,18.388 C25.870,18.519 25.753,18.616 25.676,18.763 C25.624,18.864 25.578,19.014 25.577,19.281 C25.575,19.559 25.615,19.733 25.648,19.794 C25.686,19.852 25.670,19.853 25.799,19.903 C25.873,19.928 25.995,19.949 26.167,19.954 L30.608,18.696 L30.640,18.691 C30.647,18.690 32.648,18.364 33.409,18.278 C33.524,18.265 33.601,18.256 33.698,18.256 L33.748,18.256 L33.798,18.264 C34.033,18.304 34.390,18.331 34.798,18.331 C35.473,18.331 36.298,18.259 37.036,18.090 C37.326,18.025 37.593,17.939 37.841,17.845 C37.501,17.491 37.290,17.013 37.290,16.485 C37.290,16.036 37.446,15.627 37.698,15.297 ZM17.172,13.397 C16.086,13.397 15.205,12.515 15.205,11.429 C15.205,10.341 16.086,9.460 17.172,9.460 C18.256,9.460 19.137,10.341 19.137,11.429 C19.137,12.515 18.256,13.397 17.172,13.397 ZM4.103,3.745 C3.673,3.744 3.237,3.700 2.823,3.530 C2.410,3.365 2.018,3.038 1.808,2.568 L1.420,1.722 L5.487,1.722 L5.898,1.722 L6.567,3.481 L5.823,3.582 C5.305,3.652 4.703,3.744 4.103,3.745 ZM4.771,130.130 C4.811,130.113 4.998,129.963 5.213,129.772 L5.998,130.672 C5.978,130.689 5.959,130.706 5.939,130.723 C5.741,130.895 5.571,131.049 5.350,131.178 L5.348,131.176 C5.348,131.176 5.347,131.177 5.347,131.177 L5.158,130.834 L4.768,130.134 C4.770,130.133 4.771,130.133 4.772,130.132 L4.771,130.130 ZM6.887,130.932 C7.639,130.932 8.248,131.543 8.248,132.295 C8.248,133.048 7.639,133.657 6.887,133.657 C6.135,133.657 5.525,133.048 5.525,132.295 C5.525,131.543 6.135,130.932 6.887,130.932 ZM23.882,129.575 C24.634,129.575 25.242,130.186 25.242,130.938 C25.242,131.691 24.634,132.300 23.882,132.300 C23.129,132.300 22.520,131.691 22.520,130.938 C22.520,130.186 23.129,129.575 23.882,129.575 ZM32.276,130.029 C33.028,130.029 33.638,130.639 33.638,131.392 C33.638,132.145 33.028,132.754 32.276,132.754 C31.524,132.754 30.914,132.145 30.914,131.392 C30.914,130.639 31.524,130.029 32.276,130.029 ZM61.344,154.191 C62.248,154.191 62.979,154.924 62.979,155.828 C62.979,156.731 62.248,157.463 61.344,157.463 C60.441,157.463 59.708,156.731 59.708,155.828 C59.708,154.924 60.441,154.191 61.344,154.191 Z" class="cls-1"/>
</svg>
