<svg xmlns="http://www.w3.org/2000/svg" width="48" height="47.719" viewBox="0 0 48 47.719">
  <defs>
    <style>
      .cls-1 {
        fill: #131313;
        fill-rule: evenodd;
      }
    </style>
  </defs>
  <path id="_4" data-name="4" class="cls-1" d="M1371.6,331.366h4.8a0.8,0.8,0,1,0,0-1.59h-4.8a0.8,0.8,0,1,0,0,1.59h0Zm0,0,12,11.141h-4.8a0.8,0.8,0,1,0,0,1.593h4.8a0.8,0.8,0,1,0,0-1.593h0Zm0,0-19.2-4.772h4a0.8,0.8,0,1,0,0-1.594h-4a0.8,0.8,0,1,0,0,1.594h0Zm0,0,9.6-.8a0.8,0.8,0,0,0,.8.8h5.6a0.8,0.8,0,1,0,0-1.594h-5.6a0.8,0.8,0,0,0-.8.8h0Zm0,0-2.4.8a0.8,0.8,0,0,0,.57-1.364,0.851,0.851,0,0,0-1.14,0,0.82,0.82,0,0,0-.23.567,0.792,0.792,0,0,0,.8.8h0Zm0,0,4,4.772h-8a0.8,0.8,0,1,0,0,1.593h8a0.8,0.8,0,1,0,0-1.593h0Zm0,0-11.2,1.593a0.84,0.84,0,0,0,.57-0.229,0.86,0.86,0,0,0,.23-0.567,0.8,0.8,0,0,0-1.37-.564,0.8,0.8,0,0,0-.23.564,0.813,0.813,0,0,0,.23.567,0.859,0.859,0,0,0,.57.229h0Zm0,0,19.2-6.365a0.8,0.8,0,0,0,.57-1.364,0.851,0.851,0,0,0-1.14,0,0.835,0.835,0,0,0-.23.567,0.8,0.8,0,0,0,.23.563,0.84,0.84,0,0,0,.57.234h0Zm0,0,9.6-4.8v-9.532h-10.29l-6.88-6.366a3.008,3.008,0,0,0-4.07,0l-6.87,6.366H1354.8v9.532l-4.8,4.445V364h48V337.385Zm-27.16,17.342a0.609,0.609,0,0,0-.04.183,0.589,0.589,0,0,0,.04.186l-14.44,10.943V339.34Zm1.83,0.98h12.26l14.7,11.141h-41.66Zm28.53-11.922v22.254l-14.68-11.125Zm-0.43-1.66c-0.03.016-.05,0.024-0.08,0.043l-2.69,2.04v-4.648Zm-22.92-19.472a1.4,1.4,0,0,1,1.89,0l5.62,5.2h-13.12ZM1356.4,325h35.2v15.976l-11.47,8.7h-12.26l-11.47-8.7V325Zm-1.6,14.763-2.7-2.04c-0.02-.019-0.05-0.027-0.07-0.043l2.77-2.565v4.648Zm0,0" transform="translate(-1350 -316.281)"/>
</svg>
